{"glyphs":{"0":{"ha":704,"x_min":0,"x_max":0,"o":"m 656 441 b 640 256 656 373 650 312 b 587 113 629 201 612 153 b 490 20 562 73 530 42 b 343 -13 451 -2 401 -13 b 204 17 288 -13 242 -3 b 113 103 166 36 136 65 b 63 244 90 142 73 189 b 49 437 54 300 49 364 b 65 621 49 504 54 565 b 118 765 76 677 94 725 b 214 858 142 805 175 836 b 361 890 254 879 303 890 b 501 861 416 890 463 881 b 592 774 539 841 569 812 b 641 633 615 736 631 689 b 656 441 651 577 656 513 m 536 433 b 532 551 536 477 535 516 b 518 643 529 585 524 616 b 494 712 512 670 504 693 b 459 759 484 731 473 747 b 413 786 446 772 430 781 b 354 795 395 792 376 795 b 260 768 316 795 284 786 b 204 693 236 750 218 725 b 176 582 190 661 181 624 b 168 445 171 539 168 494 b 178 278 168 379 172 324 b 211 165 185 232 196 194 b 267 102 225 137 244 116 b 350 83 290 89 317 83 b 417 95 375 83 398 87 b 466 130 436 103 452 115 b 500 184 480 145 491 163 b 522 255 510 206 517 229 b 533 339 528 281 531 309 b 536 433 535 369 536 400 "},"1":{"ha":704,"x_min":0,"x_max":0,"o":"m 629 46 b 627 24 629 38 628 30 b 621 10 625 19 623 14 b 613 2 619 7 616 4 b 604 0 610 1 607 0 l 146 0 b 137 2 143 0 140 1 b 129 10 134 4 132 7 b 123 24 127 14 125 19 b 121 46 122 30 121 38 b 123 67 121 54 122 61 b 129 82 125 73 126 78 b 136 91 131 86 133 89 b 146 94 139 93 142 94 l 329 94 l 329 761 l 159 660 b 139 652 151 655 144 653 b 126 655 133 651 129 652 b 120 669 123 658 121 663 b 118 695 119 676 118 685 b 119 715 118 703 118 709 b 122 728 120 720 121 725 b 128 738 123 732 125 735 b 138 746 130 741 134 743 l 340 876 b 347 879 342 877 344 878 b 357 882 349 880 353 881 b 371 883 361 883 366 883 b 391 884 376 884 383 884 b 418 882 402 884 411 883 b 435 879 426 881 431 880 b 444 872 439 877 442 875 b 446 865 445 870 446 867 l 446 94 l 604 94 b 614 91 608 94 611 93 b 622 82 618 89 620 86 b 627 67 624 78 626 73 b 629 46 628 61 629 54 "},"2":{"ha":704,"x_min":0,"x_max":0,"o":"m 627 50 b 625 28 627 42 626 35 b 620 13 624 22 622 17 b 612 3 618 8 615 5 b 601 0 609 1 605 0 l 116 0 b 99 2 110 0 104 1 b 87 10 95 4 91 7 b 80 26 84 14 81 19 b 77 51 78 33 77 41 b 78 75 77 60 78 68 b 83 93 79 81 80 87 b 91 108 85 98 88 103 b 104 125 95 113 99 119 l 275 305 b 369 417 314 347 346 384 b 424 507 393 450 411 480 b 450 581 437 534 446 559 b 456 644 454 603 456 624 b 446 699 456 663 453 681 b 419 745 440 716 431 732 b 374 776 407 758 392 768 b 311 787 356 784 335 787 b 237 776 284 787 259 784 b 179 751 215 768 196 760 b 138 726 163 742 149 733 b 113 714 127 718 119 714 b 105 717 110 714 107 715 b 99 726 102 719 100 722 b 95 742 97 730 96 735 b 94 766 94 749 94 757 b 94 784 94 773 94 779 b 97 797 95 789 96 793 b 101 807 98 800 99 804 b 112 819 103 810 106 814 b 140 838 117 824 127 830 b 190 862 153 846 170 854 b 257 882 210 870 232 877 b 333 890 281 888 306 890 b 445 872 375 890 413 884 b 524 823 476 860 503 844 b 571 751 545 802 561 778 b 587 663 581 723 587 694 b 579 579 587 635 584 607 b 548 489 574 551 564 521 b 478 381 532 456 508 420 b 357 244 448 341 408 296 l 218 99 l 600 99 b 611 96 604 99 607 98 b 620 87 614 94 617 91 b 625 72 622 83 624 78 b 627 50 626 65 627 58 "},"3":{"ha":704,"x_min":0,"x_max":0,"o":"m 620 251 b 599 142 620 211 613 174 b 538 59 585 110 565 82 b 441 6 512 36 480 18 b 311 -13 403 -7 360 -13 b 229 -6 282 -13 254 -11 b 161 11 203 -1 181 5 b 111 32 141 18 124 25 b 86 47 98 39 90 44 b 79 56 83 50 80 53 b 74 68 77 59 75 63 b 71 84 73 72 72 78 b 70 109 70 91 70 99 b 75 142 70 125 71 136 b 88 152 78 149 82 152 b 112 141 92 152 100 148 b 158 118 124 134 140 126 b 224 94 177 109 199 101 b 308 83 249 87 277 83 b 387 95 338 83 364 87 b 444 127 409 103 428 113 b 478 177 459 142 470 158 b 490 240 486 197 490 217 b 475 307 490 265 485 287 b 432 359 465 327 451 344 b 363 392 414 373 391 384 b 270 404 336 400 305 404 l 186 404 b 176 406 183 404 179 404 b 167 414 173 407 170 410 b 161 428 165 417 163 422 b 159 451 159 434 159 441 b 161 472 159 460 159 467 b 166 486 162 478 164 483 b 175 493 169 489 172 492 b 186 496 178 495 182 496 l 262 496 b 343 507 292 496 319 500 b 403 541 367 515 387 526 b 441 592 420 555 432 572 b 454 660 450 612 454 635 b 446 712 454 678 451 695 b 419 755 440 728 431 743 b 374 784 407 767 392 777 b 311 794 356 791 335 794 b 238 782 284 794 260 790 b 180 757 216 774 197 766 b 137 731 163 748 148 739 b 113 720 126 723 118 720 b 105 721 110 720 107 720 b 99 728 102 722 100 725 b 95 742 97 731 96 736 b 94 766 95 748 94 756 b 95 784 94 773 94 779 b 98 798 95 790 96 794 b 102 808 99 802 101 805 b 112 820 104 812 107 815 b 138 838 116 824 125 830 b 186 862 151 846 167 854 b 253 882 205 870 228 877 b 334 890 278 888 305 890 b 441 875 374 890 410 885 b 518 831 472 864 497 850 b 564 763 538 812 554 789 b 579 675 574 736 579 707 b 568 598 579 647 576 622 b 536 535 561 574 550 553 b 485 488 522 516 505 501 b 414 461 465 475 441 466 l 414 460 b 497 437 445 457 472 449 b 562 392 523 425 544 410 b 605 329 580 374 594 353 b 620 251 615 304 620 279 "},"4":{"ha":704,"x_min":0,"x_max":0,"o":"m 664 250 b 657 214 664 235 662 223 b 638 201 653 206 646 201 l 539 201 l 539 17 b 536 8 539 13 538 10 b 527 1 535 5 531 3 b 509 -3 522 0 517 -2 b 481 -4 502 -4 493 -4 b 454 -3 471 -4 462 -4 b 437 1 447 -2 441 0 b 428 8 433 3 430 5 b 426 17 427 10 426 13 l 426 201 l 64 201 b 50 203 58 201 54 202 b 40 211 47 205 43 207 b 34 227 37 215 35 220 b 33 253 33 233 33 242 b 33 276 33 262 33 269 b 36 295 34 283 35 289 b 41 311 37 300 39 306 b 50 328 44 316 46 322 l 366 861 b 375 870 368 864 371 867 b 392 877 380 873 385 875 b 417 881 399 879 407 880 b 452 882 427 881 439 882 b 491 880 467 882 480 881 b 518 876 502 879 511 877 b 534 868 525 874 530 871 b 539 858 537 865 539 862 l 539 298 l 638 298 b 657 286 646 298 652 294 b 664 250 662 278 664 266 m 425 779 l 139 298 l 426 298 l 426 779 "},"5":{"ha":704,"x_min":0,"x_max":0,"o":"m 623 282 b 599 157 623 235 615 193 b 532 64 583 120 561 89 b 428 7 503 39 468 20 b 295 -13 388 -6 344 -13 b 218 -7 268 -13 242 -11 b 153 7 193 -3 172 1 b 106 24 134 13 118 18 b 82 37 94 29 86 33 b 75 45 79 40 77 43 b 72 55 74 48 73 51 b 69 70 70 59 70 64 b 68 91 69 76 68 83 b 70 112 68 99 69 105 b 73 126 70 118 71 123 b 80 135 75 130 77 133 b 88 138 82 137 85 138 b 109 129 93 138 100 135 b 148 111 119 124 131 117 b 207 92 164 104 183 98 b 292 83 231 86 259 83 b 375 94 322 83 350 87 b 440 128 400 101 422 113 b 484 186 459 144 473 163 b 499 271 494 209 499 238 b 486 346 499 299 495 324 b 445 399 477 367 464 385 b 376 431 427 413 404 424 b 275 441 348 438 314 441 b 204 437 248 441 224 440 b 149 433 184 435 166 433 b 121 442 136 433 127 436 b 113 476 116 448 113 459 l 113 833 b 124 867 113 848 117 859 b 154 878 131 874 141 878 l 543 878 b 553 874 546 878 550 877 b 562 865 556 872 559 869 b 567 850 564 861 565 856 b 568 827 568 843 568 836 b 562 789 568 811 566 798 b 543 776 557 780 551 776 l 215 776 l 215 530 b 263 534 231 532 247 533 b 321 534 280 534 299 534 b 452 516 371 534 415 528 b 546 466 490 504 521 487 b 603 386 571 444 590 417 b 623 282 616 355 623 320 "},"6":{"ha":704,"x_min":0,"x_max":0,"o":"m 649 284 b 631 173 649 246 643 209 b 577 78 620 137 602 105 b 484 12 553 50 522 28 b 351 -13 447 -5 402 -13 b 254 1 315 -13 282 -8 b 181 39 226 10 202 23 b 129 101 160 56 143 77 b 96 184 115 125 104 153 b 78 287 88 216 82 250 b 73 406 74 324 73 364 b 79 520 73 444 75 482 b 100 631 83 559 90 596 b 143 732 111 667 125 701 b 210 814 161 764 183 791 b 307 869 237 837 269 856 b 437 890 344 883 388 890 b 488 887 454 890 471 889 b 536 879 505 885 521 882 b 572 867 550 875 562 871 b 592 858 582 863 589 860 b 599 849 595 855 598 852 b 603 840 601 846 602 843 b 605 828 604 837 604 833 b 606 812 605 824 606 819 b 605 791 606 804 605 797 b 603 777 605 786 604 781 b 596 769 601 774 599 771 b 587 766 594 767 591 766 b 566 771 582 766 575 768 b 535 782 558 774 547 778 b 491 792 523 785 508 789 b 430 797 473 795 453 797 b 321 771 388 797 352 788 b 247 702 291 754 266 731 b 204 601 228 673 214 639 b 189 481 195 563 190 523 b 228 502 200 488 214 495 b 276 520 243 509 259 515 b 332 533 294 526 312 530 b 394 538 351 537 372 538 b 514 519 441 538 481 532 b 593 466 547 506 573 488 b 636 385 613 443 628 416 b 649 284 645 354 649 320 m 531 273 b 523 345 531 300 528 323 b 497 399 518 366 509 385 b 448 434 485 414 469 426 b 373 446 428 442 403 446 b 323 442 356 446 340 445 b 274 430 306 439 290 435 b 230 411 259 424 244 418 b 191 389 215 404 202 397 b 202 242 191 330 194 281 b 234 148 209 203 220 171 b 288 97 249 124 266 107 b 362 81 309 86 334 81 b 437 98 391 81 416 87 b 490 141 459 109 476 123 b 521 203 504 160 515 180 b 531 273 528 226 531 249 "},"7":{"ha":704,"x_min":0,"x_max":0,"o":"m 640 827 b 638 805 640 819 639 812 b 636 786 638 799 637 792 b 631 769 635 780 633 774 b 624 751 629 763 627 757 l 308 22 b 299 9 306 17 303 13 b 287 1 296 6 292 3 b 267 -3 281 -1 275 -2 b 237 -4 258 -4 248 -4 b 201 -2 221 -4 209 -3 b 182 4 192 -1 186 1 b 177 15 178 7 177 11 b 182 31 177 20 179 25 l 514 775 l 93 775 b 74 789 84 775 78 780 b 67 827 69 798 67 810 b 69 849 67 835 68 843 b 74 865 70 855 72 861 b 82 874 76 869 79 872 b 93 878 85 877 89 878 l 604 878 b 621 876 611 878 616 877 b 632 867 626 874 629 871 b 637 852 634 863 636 858 b 640 827 639 845 640 837 "},"8":{"ha":704,"x_min":0,"x_max":0,"o":"m 647 225 b 627 124 647 187 640 153 b 568 49 613 94 594 69 b 473 3 542 28 511 13 b 345 -13 436 -8 393 -13 b 223 1 299 -13 259 -8 b 132 43 187 11 157 25 b 75 112 107 62 88 85 b 56 205 62 139 56 170 b 69 281 56 232 60 258 b 108 345 78 304 91 325 b 171 399 125 364 146 382 b 255 448 196 416 224 432 b 183 492 228 462 204 476 b 130 543 162 508 145 525 b 97 602 116 561 105 581 b 86 669 90 622 86 645 b 103 756 86 700 92 729 b 153 826 114 783 131 806 b 238 873 175 846 204 862 b 359 890 273 885 313 890 b 474 874 404 890 442 885 b 554 831 507 864 533 849 b 601 766 575 813 591 791 b 616 686 611 741 616 715 b 605 620 616 663 612 641 b 572 559 597 599 586 578 b 518 506 557 541 539 523 b 446 460 497 490 473 474 b 532 411 478 444 507 428 b 595 357 557 394 578 376 b 634 296 612 338 625 317 b 647 225 643 275 647 251 m 500 675 b 491 727 500 694 497 712 b 462 766 484 742 474 755 b 415 791 449 777 433 785 b 351 800 396 797 375 800 b 240 766 302 800 265 788 b 202 675 215 744 202 714 b 211 626 202 658 205 641 b 240 583 217 611 227 597 b 289 544 253 570 269 556 b 359 503 308 531 332 517 b 464 581 404 527 439 553 b 500 675 488 610 500 641 m 529 213 b 517 270 529 234 525 253 b 483 317 510 287 498 302 b 424 360 467 332 447 346 b 343 403 401 374 374 388 b 268 361 315 389 290 375 b 215 317 247 347 229 332 b 184 270 202 302 191 287 b 174 216 177 254 174 236 b 219 114 174 172 189 138 b 353 78 249 90 294 78 b 485 114 411 78 455 90 b 529 213 514 138 529 171 "},"9":{"ha":704,"x_min":0,"x_max":0,"o":"m 633 473 b 627 358 633 435 631 397 b 604 246 622 319 614 282 b 560 145 593 210 578 176 b 491 62 542 113 518 86 b 392 7 463 39 430 20 b 258 -13 353 -6 309 -13 b 202 -9 239 -13 220 -12 b 152 0 183 -7 167 -4 b 115 12 138 4 125 7 b 94 24 105 16 98 20 b 84 40 89 28 86 33 b 81 68 82 47 81 57 b 82 92 81 78 81 86 b 85 106 82 98 83 103 b 91 112 86 109 88 111 b 100 114 93 113 96 114 b 121 109 105 114 112 112 b 155 98 130 105 141 102 b 203 86 169 94 185 90 b 266 81 222 83 243 81 b 379 107 310 81 347 90 b 456 175 410 124 436 146 b 500 274 476 203 491 236 b 517 393 510 312 516 351 b 431 355 493 379 464 366 b 315 339 397 345 359 339 b 192 359 267 339 225 346 b 112 414 159 372 132 391 b 69 496 92 437 78 464 b 56 600 60 527 56 562 b 73 710 56 638 61 675 b 125 803 84 745 101 776 b 217 867 149 830 180 851 b 350 890 254 883 298 890 b 447 877 387 890 419 886 b 521 837 476 867 500 854 b 574 773 542 819 559 798 b 609 690 588 749 600 721 b 628 588 617 659 624 625 b 633 473 631 552 633 514 m 515 486 b 503 632 515 544 511 593 b 469 728 496 672 484 704 b 414 781 454 753 436 770 b 339 798 393 792 368 798 b 264 782 310 798 285 792 b 213 739 243 771 226 757 b 183 678 199 721 189 701 b 174 608 177 656 174 632 b 182 535 174 582 176 557 b 210 479 188 513 197 494 b 259 443 222 463 239 452 b 334 431 279 435 304 431 b 433 446 368 431 401 436 b 515 486 464 456 492 470 "}," ":{"ha":314,"x_min":0,"x_max":0,"o":""},"!":{"ha":452,"x_min":0,"x_max":0,"o":"m 302 253 b 299 243 302 249 301 246 b 291 237 298 241 295 238 b 275 233 287 235 282 234 b 252 231 269 232 261 231 b 228 233 242 231 234 232 b 212 237 222 234 216 235 b 204 243 208 238 205 241 b 201 253 202 246 201 249 l 190 900 b 192 914 189 905 190 910 b 202 924 194 918 197 922 b 221 930 207 927 213 929 b 252 932 229 931 239 932 b 282 930 264 932 274 931 b 301 924 290 928 296 926 b 311 914 306 921 309 918 b 313 900 312 910 313 905 l 302 253 m 323 71 b 320 34 323 56 322 43 b 308 10 318 24 314 16 b 286 -3 303 4 295 -1 b 252 -7 277 -6 266 -7 b 217 -3 238 -7 226 -6 b 195 10 207 -1 200 4 b 183 34 189 16 185 24 b 180 71 181 43 180 56 b 183 108 180 85 181 98 b 195 132 185 118 189 126 b 217 144 200 138 207 142 b 252 148 226 147 238 148 b 286 144 266 148 277 147 b 308 132 295 142 303 138 b 320 108 314 126 318 118 b 323 71 322 98 323 85 "},"\"":{"ha":557,"x_min":0,"x_max":0,"o":"m 436 612 b 434 602 436 608 435 605 b 427 595 433 600 430 597 b 413 591 423 594 419 592 b 393 590 408 590 401 590 b 373 591 385 590 378 590 b 360 595 368 592 363 594 b 353 602 356 597 354 600 b 351 612 351 605 351 608 l 335 926 b 338 935 335 929 336 932 b 349 942 341 938 344 940 b 367 946 353 944 359 945 b 393 947 374 947 383 947 b 421 946 404 947 413 947 b 439 942 428 945 434 944 b 449 935 443 940 447 938 b 451 926 451 932 451 929 l 436 612 m 195 612 b 193 602 195 608 195 605 b 186 595 192 600 189 597 b 173 591 182 594 178 592 b 153 590 167 590 161 590 b 132 591 144 590 138 590 b 119 595 127 592 122 594 b 112 602 116 597 113 600 b 110 612 111 605 110 608 l 94 926 b 98 935 94 929 95 932 b 108 942 100 938 103 940 b 126 946 112 944 118 945 b 153 947 133 947 142 947 b 198 942 174 947 189 946 b 211 926 207 938 211 933 l 195 612 "},"#":{"ha":692,"x_min":0,"x_max":0,"o":"m 667 601 b 665 581 667 593 666 587 b 660 568 664 576 662 571 b 653 561 658 565 656 562 b 644 558 650 559 647 558 l 555 558 l 528 333 l 606 333 b 623 323 613 333 619 330 b 629 290 627 316 629 305 b 627 270 629 282 629 275 b 623 257 626 264 624 260 b 615 249 621 253 618 251 b 606 247 612 248 609 247 l 516 247 l 488 15 b 485 6 487 12 486 9 b 477 0 484 4 481 2 b 463 -3 474 -1 469 -2 b 437 -4 456 -4 448 -4 b 412 -3 427 -4 418 -4 b 396 0 405 -2 400 -1 b 389 6 392 2 390 4 b 387 15 387 9 387 12 l 416 247 l 227 247 l 199 15 b 196 6 198 12 197 9 b 189 0 195 4 192 2 b 174 -3 185 -1 181 -2 b 149 -4 168 -4 160 -4 b 123 -3 138 -4 130 -4 b 107 0 116 -2 111 -1 b 100 6 104 2 101 4 b 98 15 98 9 98 12 l 126 247 l 47 247 b 31 257 41 247 35 250 b 24 290 27 263 24 274 b 26 309 24 297 25 304 b 31 322 28 315 29 319 b 38 330 33 326 35 328 b 47 333 41 332 44 333 l 138 333 l 166 558 l 84 558 b 67 568 77 558 72 562 b 61 600 63 575 61 586 b 67 634 61 616 63 627 b 84 644 72 641 77 644 l 176 644 l 204 862 b 207 870 205 865 206 868 b 215 877 209 873 211 875 b 231 880 219 878 224 879 b 257 882 238 881 247 882 b 283 880 268 882 276 881 b 297 877 289 879 294 878 b 304 870 301 875 303 873 b 305 863 305 868 305 865 l 277 644 l 465 644 l 492 862 b 495 870 492 865 493 868 b 503 877 497 873 500 875 b 519 880 507 878 512 879 b 545 882 526 881 534 882 b 571 880 556 882 564 881 b 585 877 577 879 582 878 b 592 870 588 875 591 873 b 593 863 593 868 593 865 l 566 644 l 644 644 b 660 634 650 644 656 641 b 667 601 664 627 667 616 m 239 333 l 427 333 l 455 558 l 266 558 "},"$":{"ha":704,"x_min":0,"x_max":0,"o":"m 632 248 b 611 150 632 212 625 179 b 553 73 598 120 578 94 b 460 22 527 52 496 35 b 337 0 423 10 382 2 l 322 -147 b 320 -155 322 -150 321 -152 b 313 -161 319 -157 316 -159 b 300 -165 310 -163 306 -164 b 278 -166 294 -166 287 -166 b 253 -164 268 -166 259 -166 b 239 -160 247 -163 242 -162 b 232 -154 235 -159 233 -157 b 231 -144 230 -151 230 -147 l 247 3 b 186 13 225 5 205 9 b 137 27 168 18 151 22 b 100 43 123 32 110 37 b 78 58 90 48 82 53 b 68 77 73 63 70 69 b 65 109 66 84 65 95 b 66 133 65 118 66 127 b 71 150 67 140 69 145 b 78 158 72 154 75 157 b 88 161 81 160 84 161 b 113 151 94 161 102 157 b 156 129 124 144 138 137 b 222 107 174 121 196 114 b 315 97 248 100 279 97 b 461 135 379 97 428 110 b 511 238 494 160 511 195 b 492 305 511 265 505 287 b 444 351 480 323 464 338 b 375 384 424 364 401 375 l 297 412 b 219 445 271 422 245 433 b 151 490 194 457 171 472 b 103 556 131 508 115 530 b 85 652 91 582 85 614 b 100 737 85 683 90 711 b 147 806 111 763 126 786 b 226 854 168 826 194 842 b 336 877 257 867 294 874 l 350 1014 b 352 1022 350 1017 351 1019 b 359 1028 353 1024 356 1026 b 372 1032 362 1030 366 1031 b 394 1033 377 1033 385 1033 b 419 1031 404 1033 412 1032 b 434 1027 425 1031 430 1029 b 440 1020 437 1025 439 1023 b 441 1010 441 1017 441 1014 l 427 875 b 469 868 440 873 454 871 b 510 856 484 864 497 860 b 545 842 523 852 535 847 b 567 829 556 837 563 832 b 575 819 570 825 573 822 b 578 808 576 815 578 812 b 581 793 579 804 580 799 b 582 775 582 788 582 782 b 581 753 582 767 582 759 b 578 738 580 746 579 741 b 572 730 576 734 575 732 b 564 727 570 728 567 727 b 541 736 559 727 551 730 b 499 755 530 742 516 748 b 442 774 483 762 464 768 b 370 783 420 780 396 783 b 292 774 339 783 313 780 b 240 749 270 768 253 760 b 211 711 226 738 217 726 b 201 662 204 696 201 680 b 220 594 201 635 208 612 b 269 548 232 576 249 561 b 338 515 289 535 312 524 l 417 487 b 496 455 444 478 470 467 b 565 410 522 443 544 428 b 613 344 585 392 601 370 b 632 248 626 318 632 286 "},"%":{"ha":993,"x_min":0,"x_max":0,"o":"m 427 661 b 415 566 427 626 423 594 b 380 493 407 537 396 513 b 320 446 364 473 344 457 b 235 429 296 434 267 429 b 150 444 202 429 173 434 b 92 489 126 455 107 470 b 59 561 77 509 66 533 b 49 658 52 589 49 622 b 60 749 49 691 53 721 b 94 822 67 777 79 802 b 154 870 110 842 129 858 b 239 888 178 882 206 888 b 329 869 275 888 305 882 b 387 820 353 857 373 841 b 418 748 402 800 412 776 b 427 661 424 720 427 691 m 332 657 b 326 725 332 682 330 705 b 310 774 323 744 317 761 b 280 803 302 787 292 797 b 237 813 268 810 253 813 b 195 804 221 813 207 810 b 166 775 184 797 174 788 b 150 728 159 762 153 747 b 144 662 146 709 144 687 b 151 585 144 631 147 605 b 169 536 155 564 161 548 b 199 511 177 524 187 516 b 240 504 211 506 225 504 b 284 514 258 504 273 507 b 312 544 296 521 305 531 b 327 592 319 558 324 574 b 332 657 330 611 332 633 m 944 222 b 932 127 944 187 940 155 b 897 54 925 98 913 74 b 837 7 881 34 861 18 b 752 -10 813 -5 785 -10 b 667 5 719 -10 691 -5 b 610 51 644 16 625 31 b 577 122 595 70 584 94 b 566 219 570 151 566 183 b 577 311 566 252 570 283 b 612 383 585 339 596 363 b 671 431 627 404 647 420 b 757 449 695 443 724 449 b 847 431 793 449 823 443 b 905 381 871 418 890 402 b 935 309 919 361 929 337 b 944 222 941 282 944 253 m 849 218 b 844 286 849 244 847 266 b 827 335 840 306 834 322 b 798 365 820 348 810 358 b 754 374 785 371 771 374 b 713 365 738 374 725 371 b 684 336 701 359 691 349 b 667 289 676 324 671 308 b 662 223 664 270 662 248 b 668 146 662 192 664 167 b 687 97 673 126 679 109 b 716 72 695 85 705 77 b 758 65 728 67 742 65 b 802 75 776 65 790 68 b 830 105 813 82 823 92 b 845 154 837 119 842 135 b 849 218 848 172 849 194 m 235 -5 b 227 -15 232 -9 230 -13 b 215 -20 223 -17 220 -18 b 199 -23 210 -22 205 -23 b 176 -24 192 -24 185 -24 b 152 -22 166 -24 158 -24 b 139 -15 145 -20 141 -18 b 136 -4 136 -12 135 -8 b 142 11 137 1 139 5 l 753 885 b 761 894 755 889 758 892 b 773 900 764 897 768 899 b 789 903 778 901 783 902 b 812 904 795 904 803 904 b 836 902 822 904 830 903 b 849 895 842 900 846 898 b 852 883 852 891 853 887 b 846 869 851 878 849 874 l 235 -5 "},"&":{"ha":947,"x_min":0,"x_max":0,"o":"m 73 231 b 83 302 73 256 77 280 b 115 367 90 325 101 346 b 172 428 130 388 149 409 b 256 488 195 448 223 468 b 210 554 238 512 223 534 b 178 610 197 574 186 592 b 160 659 170 627 164 643 b 155 706 156 674 155 690 b 169 786 155 734 159 761 b 215 854 178 812 194 834 b 296 901 236 874 263 889 b 416 918 329 912 369 918 b 519 905 456 918 490 914 b 592 869 548 897 572 885 b 635 811 611 853 625 834 b 650 736 645 789 650 764 b 637 663 650 710 645 685 b 595 599 628 641 614 620 b 523 537 576 578 552 557 b 415 472 493 516 457 495 l 465 414 l 522 353 l 582 293 l 643 237 b 667 278 652 249 660 263 b 686 328 675 294 681 310 b 699 381 692 345 696 363 b 703 436 701 399 703 418 l 703 460 b 705 472 703 465 703 469 b 713 479 707 475 709 477 b 729 484 716 481 722 483 b 756 485 736 484 745 485 b 782 484 766 485 775 485 b 799 481 789 484 794 483 b 809 474 803 480 807 477 b 812 460 811 470 812 466 l 812 443 b 805 368 812 418 810 393 b 788 297 801 344 795 320 b 760 230 780 273 771 251 b 723 171 749 209 736 189 b 776 130 743 155 761 141 b 815 104 791 119 804 111 b 841 90 825 97 834 92 b 859 85 848 87 854 85 b 871 86 863 85 867 86 b 881 84 876 87 879 86 b 887 73 884 82 886 79 b 889 48 888 68 889 59 b 888 21 889 37 889 28 b 886 6 888 14 887 9 b 880 -3 885 2 883 0 b 865 -9 878 -5 873 -7 b 837 -12 858 -11 849 -12 b 807 -7 828 -12 818 -10 b 769 10 796 -4 784 2 b 719 42 755 18 738 28 b 651 94 699 56 677 73 b 591 51 632 78 612 64 b 524 17 570 38 548 27 b 449 -4 500 8 475 1 b 365 -12 423 -10 395 -12 b 284 -5 336 -12 309 -10 b 213 17 258 0 235 7 b 155 52 191 26 172 38 b 111 99 137 66 123 81 b 83 159 99 117 90 137 b 73 231 77 182 73 205 m 273 715 b 278 677 273 703 275 690 b 294 638 282 665 287 652 b 320 593 301 624 310 609 b 356 541 330 578 342 560 b 439 592 389 559 417 576 b 493 637 461 607 479 622 b 523 680 507 651 516 666 b 532 726 529 695 532 710 b 525 764 532 739 529 752 b 502 796 520 776 512 787 b 463 818 491 805 478 812 b 406 826 447 823 428 826 b 345 817 382 826 361 823 b 304 792 328 811 315 803 b 281 757 294 782 286 770 b 273 715 276 743 273 729 m 195 243 b 207 178 195 219 199 198 b 241 128 214 159 226 142 b 299 95 257 114 276 103 b 379 83 322 87 349 83 b 433 89 398 83 416 85 b 484 104 451 92 468 98 b 530 128 500 111 515 119 b 570 157 544 137 557 147 l 499 221 l 432 287 l 369 353 b 314 417 349 375 331 396 b 257 374 291 403 273 388 b 221 331 242 360 230 346 b 201 288 211 317 205 303 b 195 243 197 274 195 259 m 0 878 "},"'":{"ha":307,"x_min":0,"x_max":0,"o":"m 197 612 b 194 602 197 608 196 605 b 187 595 193 600 190 597 b 174 591 183 594 179 592 b 153 590 168 590 161 590 b 133 591 145 590 138 590 b 119 595 127 592 123 594 b 112 602 116 597 114 600 b 110 612 111 605 110 608 l 94 926 b 98 935 94 929 95 932 b 108 942 100 938 103 940 b 126 946 113 944 119 945 b 153 947 134 947 143 947 b 181 946 164 947 173 947 b 199 942 188 946 194 944 b 209 935 204 940 207 938 b 212 926 211 932 212 929 l 197 612 "},"(":{"ha":421,"x_min":0,"x_max":0,"o":"m 336 935 b 240 655 293 844 261 750 b 208 366 219 559 208 463 b 240 77 208 269 219 173 b 334 -203 262 -18 293 -112 b 338 -217 337 -209 338 -214 b 334 -227 338 -221 337 -224 b 319 -232 330 -229 326 -231 b 292 -234 313 -233 304 -234 b 271 -233 284 -234 277 -234 b 256 -231 265 -233 260 -232 b 245 -226 252 -229 248 -228 b 239 -220 243 -224 241 -222 b 175 -80 215 -174 194 -127 b 128 64 156 -32 141 16 b 100 213 116 113 106 163 b 90 364 93 263 90 313 b 101 515 90 415 94 466 b 131 664 108 565 118 615 b 178 808 143 713 159 761 b 240 949 196 856 217 903 b 244 954 241 951 242 953 b 252 958 246 956 249 957 b 267 961 256 960 261 961 b 292 962 274 962 282 962 b 317 960 302 962 310 962 b 332 955 323 959 328 957 b 338 946 335 953 337 950 b 336 935 338 942 338 939 "},")":{"ha":421,"x_min":0,"x_max":0,"o":"m 330 364 b 321 213 330 313 327 263 b 292 64 314 163 305 113 b 246 -80 280 16 264 -32 b 182 -220 228 -127 206 -174 b 176 -226 180 -222 178 -224 b 165 -231 173 -228 169 -229 b 150 -233 161 -232 156 -233 b 129 -234 144 -234 137 -234 b 101 -232 117 -234 108 -233 b 87 -227 95 -231 90 -229 b 83 -217 84 -224 83 -221 b 87 -203 83 -214 85 -209 b 181 77 128 -112 160 -19 b 213 366 202 173 213 269 b 181 655 213 463 202 559 b 85 935 160 750 128 844 b 83 946 84 939 83 942 b 90 955 84 950 86 953 b 104 960 93 957 98 959 b 130 962 111 962 119 962 b 153 961 139 962 147 962 b 169 958 160 961 165 960 b 177 954 172 957 175 956 b 181 949 179 953 180 951 b 291 664 228 857 264 761 b 330 364 317 566 330 466 "},"*":{"ha":692,"x_min":0,"x_max":0,"o":"m 570 634 b 579 618 577 631 580 626 b 563 580 579 610 573 597 b 537 547 552 562 544 551 b 519 547 531 543 525 543 l 375 652 l 394 474 b 385 458 395 467 392 462 b 343 453 378 455 364 453 b 301 458 322 453 308 455 b 292 474 294 462 291 467 l 311 652 l 168 547 b 149 547 162 543 156 543 b 123 580 142 551 134 562 b 107 618 113 597 108 610 b 117 634 107 626 110 631 l 280 707 l 117 779 b 107 795 110 782 107 787 b 123 833 108 803 113 816 b 149 866 134 851 142 862 b 168 866 156 870 162 870 l 311 762 l 292 939 b 301 955 291 946 294 951 b 343 960 308 958 322 960 b 385 955 364 960 378 958 b 394 939 392 951 395 946 l 375 762 l 519 866 b 537 866 525 870 531 870 b 563 833 544 862 552 851 b 579 795 573 816 579 803 b 570 779 580 787 577 782 l 407 707 l 570 634 "},"+":{"ha":692,"x_min":0,"x_max":0,"o":"m 644 391 b 642 369 644 382 644 375 b 637 353 641 362 639 357 b 629 345 635 349 632 346 b 618 342 625 343 622 342 l 396 342 l 396 95 b 393 86 396 91 395 88 b 385 79 392 83 389 81 b 370 75 381 78 376 76 b 346 73 363 74 355 73 b 322 75 337 73 329 74 b 307 79 316 76 311 78 b 298 86 303 81 300 83 b 296 95 297 88 296 91 l 296 342 l 73 342 b 63 345 69 342 66 343 b 55 353 60 346 57 349 b 50 369 53 357 51 362 b 47 391 48 375 47 382 b 50 412 47 399 48 406 b 55 427 51 418 53 423 b 63 436 57 431 60 434 b 73 439 66 438 69 439 l 296 439 l 296 686 b 298 695 296 689 297 693 b 307 703 300 698 303 701 b 322 708 311 705 316 707 b 346 709 329 709 337 709 b 370 708 355 709 363 709 b 385 703 376 707 381 705 b 393 695 389 701 392 698 b 396 686 395 693 396 689 l 396 439 l 619 439 b 629 436 623 439 626 438 b 637 427 632 434 635 431 b 643 412 640 423 641 418 b 644 391 644 406 644 399 "},",":{"ha":347,"x_min":0,"x_max":0,"o":"m 252 97 b 250 58 252 83 251 70 b 243 25 248 47 246 35 b 230 -6 240 15 235 4 b 211 -38 225 -16 219 -27 l 118 -178 b 110 -186 116 -181 113 -184 b 99 -192 107 -188 104 -190 b 84 -196 95 -194 90 -195 b 63 -197 79 -196 72 -197 b 44 -196 55 -197 49 -196 b 33 -192 39 -195 35 -194 b 29 -186 30 -191 29 -189 b 31 -176 29 -183 29 -180 l 121 10 l 121 97 b 125 126 121 109 123 119 b 137 142 128 133 132 139 b 157 150 142 146 149 149 b 187 152 165 151 175 152 b 216 150 198 152 208 151 b 236 142 224 149 231 146 b 248 126 242 139 245 133 b 252 97 250 119 252 109 "},"-":{"ha":425,"x_min":0,"x_max":0,"o":"m 378 342 b 372 306 378 325 376 313 b 355 296 368 299 362 296 l 71 296 b 53 306 63 296 57 299 b 47 342 49 313 47 325 b 53 378 47 360 49 372 b 71 389 57 385 63 389 l 355 389 b 365 387 358 389 362 388 b 372 379 367 385 370 383 b 377 364 374 375 376 370 b 378 342 378 358 378 351 "},".":{"ha":351,"x_min":0,"x_max":0,"o":"m 248 74 b 232 10 248 42 243 20 b 174 -6 222 -1 202 -6 b 118 9 147 -6 128 -1 b 102 72 108 20 102 41 b 118 136 102 104 108 125 b 176 152 129 147 148 152 b 233 136 203 152 222 147 b 248 74 243 126 248 105 "},"/":{"ha":536,"x_min":0,"x_max":0,"o":"m 114 -163 b 107 -177 112 -169 110 -174 b 96 -185 104 -181 100 -183 b 79 -189 91 -187 86 -188 b 55 -191 72 -190 64 -191 b 27 -188 44 -191 34 -190 b 9 -181 19 -187 14 -184 b 2 -171 5 -178 3 -175 b 5 -155 1 -166 2 -161 l 415 970 b 422 984 417 976 419 980 b 433 992 425 987 429 990 b 450 996 437 994 443 995 b 474 997 456 997 465 997 b 502 995 485 997 495 996 b 519 988 509 993 515 991 b 526 977 523 985 525 982 b 524 962 527 973 526 968 l 114 -163 "},":":{"ha":372,"x_min":0,"x_max":0,"o":"m 269 543 b 266 506 269 528 268 516 b 255 482 264 496 260 488 b 233 469 249 476 242 471 b 198 465 224 466 212 465 b 163 469 184 465 172 466 b 141 482 154 471 146 476 b 130 506 136 488 132 496 b 127 543 128 516 127 528 b 130 581 127 558 128 571 b 141 605 132 591 136 599 b 163 618 146 611 154 616 b 198 622 172 621 184 622 b 233 618 212 622 224 621 b 255 605 242 616 249 611 b 266 581 260 599 264 591 b 269 543 268 571 269 558 m 269 72 b 266 35 269 57 268 45 b 255 11 264 25 260 17 b 233 -2 249 4 242 0 b 198 -6 224 -5 212 -6 b 163 -2 184 -6 172 -5 b 141 11 154 0 146 4 b 130 35 136 17 132 25 b 127 72 128 45 127 57 b 130 110 127 87 128 99 b 141 134 132 120 136 128 b 163 146 146 139 154 144 b 198 151 172 149 184 151 b 233 146 212 151 224 149 b 255 134 242 144 249 139 b 266 110 260 128 264 120 b 269 72 268 99 269 87 "},";":{"ha":372,"x_min":0,"x_max":0,"o":"m 269 543 b 266 506 269 528 268 516 b 255 482 264 496 260 488 b 233 469 249 476 242 471 b 198 465 224 466 212 465 b 163 469 184 465 172 466 b 141 482 154 471 146 476 b 130 506 136 488 132 496 b 127 543 128 516 127 528 b 130 581 127 558 128 571 b 141 605 132 591 136 599 b 163 618 146 611 154 616 b 198 622 172 621 184 622 b 233 618 212 622 224 621 b 255 605 242 616 249 611 b 266 581 260 599 264 591 b 269 543 268 571 269 558 m 269 97 b 267 58 269 83 269 70 b 261 25 266 47 264 35 b 249 -6 258 15 254 4 b 229 -38 243 -16 237 -27 l 137 -176 b 129 -185 135 -180 132 -183 b 119 -191 126 -187 123 -189 b 104 -195 115 -192 110 -194 b 83 -196 98 -196 92 -196 b 64 -195 76 -196 69 -196 b 53 -191 59 -194 55 -193 b 49 -185 51 -189 49 -187 b 52 -175 49 -182 50 -179 l 140 10 l 140 97 b 144 126 140 109 142 119 b 156 142 147 133 151 139 b 176 150 162 146 168 149 b 205 152 184 151 194 152 b 234 150 216 152 226 151 b 254 142 242 149 249 146 b 266 126 259 139 263 133 b 269 97 268 119 269 109 "},"<":{"ha":692,"x_min":0,"x_max":0,"o":"m 623 110 b 622 82 623 99 623 89 b 617 67 621 75 619 70 b 609 64 615 65 612 63 b 596 68 605 64 601 66 l 62 338 b 51 355 57 341 54 346 b 47 392 48 363 47 376 b 48 412 47 399 47 406 b 51 428 48 419 50 424 b 57 438 53 432 55 435 b 64 444 59 441 61 443 l 596 713 b 617 712 607 718 614 718 b 623 672 621 707 623 693 b 622 641 623 659 623 649 b 619 622 622 633 620 627 b 612 611 617 617 615 614 b 600 604 609 609 605 606 l 163 390 l 597 180 b 611 171 603 177 607 174 b 618 160 614 169 617 165 b 622 141 620 156 622 149 b 623 110 623 133 623 123 "},"=":{"ha":692,"x_min":0,"x_max":0,"o":"m 627 523 b 620 485 627 505 625 492 b 602 475 614 478 608 475 l 89 475 b 71 485 82 475 76 478 b 64 523 66 492 64 505 b 71 559 64 539 66 551 b 89 570 75 566 81 570 l 602 570 b 621 559 610 570 616 566 b 627 523 625 551 627 539 m 627 259 b 620 222 627 241 625 229 b 602 212 614 215 608 212 l 89 212 b 71 222 82 212 76 215 b 64 259 66 229 64 241 b 71 296 64 276 66 288 b 89 307 75 303 81 307 l 602 307 b 621 296 610 307 616 303 b 627 259 625 288 627 276 "},">":{"ha":692,"x_min":0,"x_max":0,"o":"m 646 389 b 644 369 646 382 645 375 b 641 353 643 362 642 357 b 635 342 640 348 638 345 b 628 336 633 340 631 338 l 96 68 b 83 64 91 66 86 64 b 74 68 79 64 76 65 b 70 83 72 72 71 77 b 68 109 69 90 68 98 b 69 139 68 121 69 131 b 72 158 70 147 71 153 b 79 169 74 162 76 166 b 92 176 83 172 87 174 l 529 391 l 94 601 b 80 609 88 604 84 606 b 73 620 77 611 74 615 b 69 639 71 625 70 631 b 68 671 69 647 68 658 b 70 698 68 682 69 692 b 74 712 71 705 72 709 b 83 716 76 715 79 717 b 96 711 86 716 91 714 l 630 442 b 641 426 635 440 638 434 b 646 389 644 417 646 405 "},"?":{"ha":644,"x_min":0,"x_max":0,"o":"m 580 672 b 563 566 580 632 574 597 b 515 488 552 536 536 509 b 442 437 495 466 471 449 b 347 415 414 425 382 417 l 342 252 b 331 236 342 245 339 240 b 292 231 323 233 310 231 b 268 232 283 231 275 232 b 252 236 261 233 256 234 b 243 242 248 237 245 239 b 240 252 241 245 240 248 l 236 439 b 238 465 236 450 236 458 b 248 481 240 471 243 477 b 263 490 252 485 257 488 b 285 492 269 492 277 492 l 300 492 b 375 506 329 492 354 497 b 426 543 396 516 413 528 b 454 597 438 559 448 577 b 463 663 460 618 463 640 b 452 733 463 688 459 712 b 419 789 444 755 434 773 b 365 825 405 805 386 817 b 287 838 343 834 317 838 b 218 830 261 838 238 835 b 167 811 198 824 181 818 b 131 793 152 804 140 798 b 111 785 122 787 115 785 b 102 787 107 785 105 785 b 96 794 100 788 97 791 b 92 810 94 798 92 804 b 90 835 91 817 90 825 b 92 860 90 846 91 854 b 101 874 94 865 97 870 b 127 891 106 879 114 884 b 174 911 140 898 156 905 b 234 926 192 917 212 922 b 302 932 256 930 279 932 b 427 911 351 932 392 925 b 513 855 462 897 491 879 b 564 772 536 832 553 804 b 580 672 574 741 580 707 m 366 71 b 362 34 366 56 365 43 b 351 10 360 24 357 16 b 329 -3 346 4 339 -1 b 295 -7 320 -6 309 -7 b 260 -3 281 -7 269 -6 b 238 10 251 -1 243 4 b 226 34 232 16 228 24 b 223 71 224 43 223 56 b 226 108 223 85 224 98 b 238 132 228 118 232 126 b 260 144 243 138 251 142 b 295 148 269 147 281 148 b 329 144 309 148 320 147 b 351 132 339 142 346 138 b 362 108 357 126 360 118 b 366 71 365 98 366 85 "},"@":{"ha":1242,"x_min":0,"x_max":0,"o":"m 1123 522 b 1117 427 1123 491 1121 459 b 1099 334 1113 395 1107 364 b 1065 248 1090 303 1079 275 b 1013 177 1051 221 1034 197 b 942 129 993 157 969 141 b 850 112 915 118 885 112 b 798 118 831 112 814 114 b 756 137 782 123 768 129 b 725 169 744 145 734 156 b 708 213 717 181 711 196 b 655 166 690 195 672 179 b 606 135 638 154 622 143 b 558 117 589 127 573 121 b 512 112 542 114 527 112 b 460 118 493 112 475 114 b 421 135 446 122 432 127 b 391 162 409 142 399 151 b 371 199 383 173 376 185 b 359 243 366 212 362 227 b 356 296 357 260 356 277 b 361 363 356 316 358 338 b 376 441 364 388 369 414 b 406 519 384 467 394 494 b 453 588 419 545 435 568 b 520 636 472 608 494 624 b 610 655 546 649 576 655 b 652 650 625 655 639 653 b 690 634 665 647 678 641 b 726 607 703 627 714 618 b 760 568 737 596 748 583 l 772 628 b 784 642 774 634 778 639 b 819 647 790 645 802 647 b 840 646 827 647 834 647 b 853 642 846 645 850 643 b 860 636 856 640 858 638 b 860 628 861 634 861 631 l 800 316 b 805 229 792 277 794 248 b 867 201 816 210 836 201 b 917 215 885 201 902 205 b 956 252 932 224 945 236 b 985 308 968 268 977 287 b 1004 374 992 329 999 351 b 1015 446 1009 397 1012 421 b 1018 516 1017 470 1018 493 b 1002 628 1018 555 1013 593 b 947 722 991 664 973 695 b 844 786 922 749 887 770 b 682 810 801 802 747 810 b 539 793 628 810 581 805 b 429 745 498 781 461 765 b 348 675 398 725 371 702 b 291 592 325 649 306 621 b 253 501 275 562 262 532 b 231 411 243 470 236 440 b 221 330 226 383 223 356 b 219 266 220 305 219 283 b 236 128 219 216 225 170 b 296 20 248 87 268 51 b 411 -50 325 -10 363 -33 b 592 -75 459 -67 519 -75 b 682 -70 625 -75 655 -73 b 751 -57 708 -66 731 -62 b 799 -45 771 -53 787 -49 b 824 -39 811 -41 819 -39 b 831 -42 827 -39 829 -40 b 836 -49 833 -43 835 -46 b 838 -62 837 -53 838 -57 b 839 -81 839 -67 839 -74 b 839 -97 839 -88 839 -93 b 837 -108 838 -101 838 -105 b 833 -117 836 -112 835 -115 b 827 -125 832 -120 829 -123 b 803 -135 824 -127 816 -130 b 751 -149 790 -139 773 -144 b 674 -160 729 -153 703 -157 b 577 -165 645 -163 612 -165 b 362 -135 493 -165 421 -155 b 219 -50 304 -115 256 -87 b 140 84 183 -12 156 32 b 115 258 123 136 115 194 b 119 339 115 282 117 309 b 133 437 122 370 126 402 b 163 543 140 472 150 507 b 212 648 175 579 192 614 b 285 746 232 683 256 715 b 387 826 314 776 348 803 b 521 880 426 849 471 866 b 692 899 572 893 629 899 b 885 872 767 899 831 890 b 1019 797 939 855 983 829 b 1097 678 1054 764 1080 725 b 1123 522 1114 631 1123 579 m 730 477 b 677 544 713 506 695 529 b 615 567 659 559 638 567 b 564 553 596 567 579 562 b 524 517 548 544 535 532 b 495 467 512 502 503 486 b 475 410 487 449 480 430 b 465 354 470 391 467 372 b 462 305 463 335 462 319 b 480 228 462 272 468 246 b 541 201 492 210 512 201 b 574 207 551 201 562 203 b 610 224 585 210 597 216 b 650 255 622 232 636 242 b 697 301 664 268 680 283 l 730 477 m 0 878 "},"A":{"ha":804,"x_min":0,"x_max":0,"o":"m 774 41 b 780 17 777 31 779 23 b 774 3 780 11 778 7 b 756 -3 771 0 765 -2 b 723 -4 748 -4 737 -4 b 689 -3 709 -4 698 -4 b 670 0 681 -2 675 -1 b 661 7 666 2 663 4 b 655 17 659 9 657 13 l 580 231 l 215 231 l 143 20 b 138 9 142 16 140 12 b 128 2 135 6 132 4 b 110 -3 124 0 117 -2 b 79 -4 102 -4 91 -4 b 46 -2 66 -4 55 -4 b 29 4 38 -1 32 1 b 24 18 25 7 24 12 b 30 42 24 24 26 32 l 324 857 b 331 869 326 862 328 866 b 344 877 334 873 339 875 b 366 881 350 879 357 880 b 399 882 375 881 386 882 b 435 881 414 882 426 881 b 458 877 445 880 453 879 b 472 869 464 875 469 872 b 479 857 475 866 478 861 l 774 41 m 395 761 l 244 323 l 549 323 l 396 761 "},"B":{"ha":755,"x_min":0,"x_max":0,"o":"m 695 252 b 685 175 695 224 692 199 b 655 113 678 152 668 131 b 609 64 642 94 627 78 b 549 28 591 50 571 38 b 477 7 527 19 503 12 b 389 0 452 2 422 0 l 160 0 b 131 11 150 0 140 4 b 117 47 121 18 117 30 l 117 830 b 131 867 117 848 121 860 b 160 878 140 874 150 878 l 359 878 b 488 863 412 878 455 873 b 572 819 522 853 550 838 b 623 749 594 800 611 777 b 640 656 634 722 640 691 b 632 596 640 635 637 615 b 610 544 627 577 620 560 b 573 500 600 528 588 513 b 523 469 559 488 542 477 b 590 445 547 465 569 457 b 645 399 611 433 629 417 b 682 334 660 380 673 359 b 695 252 691 309 695 281 m 519 644 b 511 702 519 666 517 685 b 483 746 505 719 496 734 b 433 773 470 758 454 767 b 353 783 413 779 386 783 l 232 783 l 232 498 l 365 498 b 438 510 395 498 420 502 b 484 542 457 518 472 529 b 511 589 496 556 505 571 b 519 644 517 607 519 625 m 572 245 b 560 314 572 271 568 294 b 523 364 551 334 539 351 b 463 395 507 378 487 388 b 372 406 439 402 408 406 l 232 406 l 232 96 l 401 96 b 471 106 428 96 451 99 b 524 134 491 112 509 122 b 559 180 539 146 551 162 b 572 245 568 199 572 220 "},"C":{"ha":741,"x_min":0,"x_max":0,"o":"m 703 124 b 702 105 703 117 702 111 b 700 91 701 100 701 95 b 695 80 698 87 697 83 b 686 68 693 77 690 73 b 657 48 681 64 672 57 b 603 21 643 39 625 30 b 529 -2 582 12 557 4 b 438 -11 502 -8 471 -11 b 284 18 381 -11 330 -1 b 166 102 238 37 199 65 b 92 239 134 139 109 185 b 66 427 74 294 66 356 b 94 622 66 500 75 565 b 173 767 113 679 139 727 b 295 857 207 806 247 836 b 452 888 342 878 394 888 b 526 881 477 888 502 886 b 592 863 550 877 572 871 b 646 838 612 856 630 848 b 679 815 662 829 673 821 b 691 801 685 809 689 804 b 695 790 693 798 694 794 b 698 774 697 785 697 780 b 699 753 699 769 699 762 b 698 730 699 744 699 737 b 694 714 697 724 696 719 b 687 705 692 710 690 707 b 678 702 685 703 682 702 b 652 715 672 702 663 706 b 608 744 640 724 626 734 b 543 773 590 755 568 765 b 451 787 517 782 487 787 b 345 763 412 787 377 779 b 263 694 313 748 286 725 b 211 584 241 664 223 627 b 192 434 198 540 192 490 b 210 287 192 378 198 329 b 261 179 222 244 239 208 b 344 114 284 151 311 129 b 454 92 376 100 413 92 b 546 105 489 92 520 97 b 612 134 572 114 594 123 b 657 163 630 145 645 154 b 685 176 669 171 678 176 b 693 174 688 176 691 175 b 699 166 695 172 697 170 b 702 150 700 162 701 157 b 703 124 702 143 703 135 "},"D":{"ha":854,"x_min":0,"x_max":0,"o":"m 791 452 b 762 253 791 376 782 309 b 677 112 743 196 714 149 b 540 28 640 74 594 46 b 346 0 486 9 421 0 l 160 0 b 131 11 150 0 140 4 b 117 47 121 18 117 30 l 117 830 b 131 867 117 848 121 860 b 160 878 140 874 150 878 l 359 878 b 551 848 435 878 499 868 b 683 763 604 828 648 800 b 764 629 719 726 746 682 b 791 452 782 577 791 518 m 669 447 b 651 579 669 494 663 539 b 596 686 639 620 621 656 b 500 755 571 715 539 739 b 352 781 462 772 413 781 l 233 781 l 233 98 l 353 98 b 495 119 409 98 457 105 b 591 183 533 133 566 154 b 649 292 617 212 636 248 b 669 447 662 336 669 387 "},"E":{"ha":678,"x_min":0,"x_max":0,"o":"m 605 48 b 604 27 605 40 604 33 b 599 12 603 21 601 16 b 591 3 597 7 594 5 b 581 0 588 1 585 0 l 160 0 b 131 11 150 0 140 4 b 117 47 121 18 117 30 l 117 830 b 131 867 117 848 121 860 b 160 878 140 874 150 878 l 576 878 b 586 875 580 878 583 877 b 593 866 589 873 592 870 b 598 851 595 862 597 857 b 600 828 599 845 600 837 b 598 807 600 820 599 813 b 593 792 597 801 595 796 b 586 783 592 788 589 785 b 576 781 583 781 580 781 l 233 781 l 233 505 l 528 505 b 537 502 531 505 535 504 b 545 494 540 500 543 497 b 549 479 547 490 548 485 b 551 456 550 472 551 465 b 549 435 551 448 550 441 b 545 421 548 430 547 425 b 537 413 543 418 540 415 b 528 411 535 412 531 411 l 233 411 l 233 97 l 581 97 b 591 94 585 97 588 96 b 599 86 594 92 597 90 b 604 71 601 82 603 77 b 605 48 604 65 605 57 "},"F":{"ha":638,"x_min":0,"x_max":0,"o":"m 578 827 b 576 805 578 819 577 811 b 572 790 576 799 574 794 b 564 781 569 786 567 783 b 555 779 561 779 558 779 l 233 779 l 233 480 l 537 480 b 546 478 540 480 543 479 b 554 470 549 476 552 474 b 559 455 556 466 558 461 b 560 432 560 449 560 441 b 559 410 560 423 560 416 b 554 395 558 404 556 399 b 546 386 552 391 549 388 b 537 383 543 384 540 383 l 233 383 l 233 18 b 231 8 233 14 232 11 b 221 2 229 6 226 3 b 203 -2 217 0 211 -1 b 175 -4 196 -4 187 -4 b 147 -2 164 -4 155 -4 b 129 2 139 -1 133 0 b 119 8 124 3 121 6 b 117 18 118 11 117 14 l 117 830 b 131 867 117 848 121 860 b 160 878 140 874 150 878 l 555 878 b 564 875 558 878 561 877 b 572 866 567 873 569 870 b 576 850 574 862 576 857 b 578 827 577 844 578 836 "},"G":{"ha":876,"x_min":0,"x_max":0,"o":"m 776 758 b 774 735 776 750 775 742 b 770 719 774 729 772 723 b 764 710 769 715 766 712 b 755 707 761 708 758 707 b 728 720 749 707 740 712 b 677 749 715 729 698 738 b 601 777 656 759 630 769 b 495 790 571 786 536 790 b 365 764 447 790 403 781 b 267 690 326 746 294 722 b 206 579 241 659 220 622 b 184 439 192 536 184 490 b 208 290 184 383 192 334 b 273 180 223 247 245 210 b 371 113 300 151 333 128 b 497 90 410 97 451 90 b 579 99 524 90 552 93 b 657 129 607 106 633 116 l 657 385 l 454 385 b 436 396 446 385 440 388 b 431 432 433 404 431 416 b 432 454 431 441 431 448 b 436 469 433 460 434 465 b 444 477 438 473 441 476 b 454 480 446 479 450 480 l 732 480 b 747 477 737 480 742 479 b 761 469 752 476 757 473 b 770 454 765 466 768 461 b 774 433 773 448 774 441 l 774 98 b 768 68 774 87 772 76 b 742 45 764 59 755 52 b 691 24 729 39 712 31 b 627 4 670 16 649 9 b 559 -8 604 -1 582 -5 b 492 -12 537 -11 515 -12 b 311 19 425 -12 364 -2 b 175 109 257 40 212 70 b 91 249 138 148 110 195 b 62 431 71 303 62 364 b 93 620 62 500 72 563 b 182 764 114 676 144 725 b 320 857 220 804 266 835 b 498 890 373 879 433 890 b 592 881 531 890 563 887 b 670 860 621 875 648 868 b 728 834 693 852 712 844 b 760 812 744 825 754 818 b 772 791 766 806 770 799 b 776 758 775 784 776 773 "},"H":{"ha":865,"x_min":0,"x_max":0,"o":"m 749 18 b 746 8 749 14 748 11 b 736 2 744 5 741 3 b 719 -2 732 0 726 -1 b 691 -4 711 -4 702 -4 b 663 -2 679 -4 670 -4 b 645 2 655 -1 649 0 b 635 8 640 3 637 5 b 633 18 634 11 633 14 l 633 407 l 233 407 l 233 18 b 231 8 233 14 232 11 b 221 2 229 5 226 3 b 203 -2 217 0 211 -1 b 175 -4 196 -4 186 -4 b 147 -2 164 -4 155 -4 b 129 2 139 -1 133 0 b 119 8 124 3 121 5 b 117 18 118 11 117 14 l 117 860 b 119 869 117 864 118 867 b 129 876 121 872 124 874 b 147 880 133 877 139 879 b 175 882 155 881 164 882 b 203 880 186 882 196 881 b 221 876 211 879 217 877 b 231 869 226 874 229 872 b 233 860 232 867 233 864 l 233 509 l 633 509 l 633 860 b 635 869 633 864 634 867 b 645 876 637 872 640 874 b 663 880 649 877 655 879 b 691 882 670 881 679 882 b 719 880 702 882 711 881 b 736 876 726 879 732 877 b 746 869 741 874 744 872 b 749 860 748 867 749 864 l 749 18 "},"I":{"ha":350,"x_min":0,"x_max":0,"o":"m 233 18 b 231 8 233 14 232 11 b 221 2 229 5 226 3 b 203 -2 217 0 211 -1 b 175 -4 196 -4 186 -4 b 147 -2 164 -4 155 -4 b 129 2 139 -1 133 0 b 119 8 124 3 121 5 b 117 18 118 11 117 14 l 117 860 b 120 869 117 864 118 867 b 130 876 122 872 125 874 b 148 880 135 877 141 879 b 175 882 156 881 165 882 b 203 880 186 882 196 881 b 221 876 211 879 217 877 b 231 869 226 874 229 872 b 233 860 232 867 233 864 l 233 18 "},"J":{"ha":443,"x_min":0,"x_max":0,"o":"m 328 221 b 319 125 328 186 325 154 b 286 52 312 97 302 72 b 225 4 271 31 251 15 b 132 -12 200 -7 169 -12 b 95 -9 120 -12 107 -11 b 60 -1 82 -7 71 -4 b 33 10 50 2 41 6 b 18 20 26 14 20 17 b 12 28 15 22 13 25 b 8 38 10 31 9 34 b 5 52 7 41 6 46 b 5 73 5 58 5 64 b 6 97 5 83 5 91 b 9 113 6 104 8 109 b 16 121 11 117 13 119 b 25 123 18 123 21 123 b 39 118 29 123 33 122 b 59 107 45 115 51 111 b 87 96 67 103 76 99 b 123 91 97 93 109 91 b 163 97 139 91 152 93 b 190 118 174 100 183 108 b 206 161 197 128 203 143 b 212 233 210 179 212 203 l 212 861 b 214 869 212 864 212 867 b 224 876 216 872 219 874 b 242 880 228 878 234 879 b 270 882 249 881 259 882 b 298 880 281 882 290 881 b 316 876 305 879 311 878 b 325 869 320 874 323 872 b 328 861 327 867 328 864 l 328 221 "},"K":{"ha":722,"x_min":0,"x_max":0,"o":"m 689 19 b 687 9 689 15 688 12 b 677 2 685 6 682 4 b 659 -2 673 0 667 -1 b 629 -4 651 -4 642 -4 b 591 -2 614 -4 601 -3 b 568 5 581 -1 573 2 b 556 18 563 9 559 13 l 233 456 l 233 18 b 231 8 233 14 232 11 b 221 2 229 6 226 3 b 203 -2 217 0 211 -1 b 175 -4 196 -4 186 -4 b 147 -2 164 -4 155 -4 b 129 2 139 -1 133 0 b 119 8 124 3 121 6 b 117 18 118 11 117 14 l 117 860 b 119 869 117 864 118 867 b 129 876 121 872 124 874 b 147 880 133 877 139 879 b 175 882 155 881 164 882 b 203 880 186 882 196 881 b 221 876 211 879 217 877 b 231 869 226 874 229 872 b 233 860 232 867 233 864 l 233 470 l 544 860 b 553 870 547 864 550 867 b 567 877 557 873 561 875 b 586 880 572 878 578 879 b 614 882 593 881 603 882 b 643 880 626 882 636 881 b 660 876 650 879 656 877 b 669 869 664 874 667 871 b 671 860 671 866 671 863 b 667 842 671 854 670 848 b 650 818 664 836 659 828 l 359 470 l 673 54 b 687 30 680 42 685 34 b 689 19 688 25 689 22 "},"L":{"ha":584,"x_min":0,"x_max":0,"o":"m 572 51 b 570 28 572 42 571 34 b 566 13 569 22 568 17 b 558 3 564 8 561 5 b 548 0 556 1 552 0 l 160 0 b 131 11 150 0 140 4 b 117 47 121 18 117 30 l 117 860 b 119 869 117 864 118 867 b 129 876 121 872 124 874 b 147 880 133 877 139 879 b 175 882 155 881 164 882 b 203 880 186 882 196 881 b 221 876 211 879 217 877 b 231 869 226 874 229 872 b 233 860 232 867 233 864 l 233 101 l 548 101 b 558 98 552 101 556 100 b 566 89 561 96 564 93 b 570 74 568 85 569 80 b 572 51 571 68 572 60 "},"M":{"ha":1187,"x_min":0,"x_max":0,"o":"m 1071 18 b 1068 8 1071 14 1070 11 b 1059 2 1066 5 1063 3 b 1041 -2 1054 0 1048 -1 b 1014 -4 1034 -4 1025 -4 b 987 -2 1003 -4 995 -4 b 969 2 980 -1 974 0 b 960 8 965 3 962 5 b 958 18 958 11 958 14 l 958 782 l 956 782 l 644 14 b 638 6 642 11 640 8 b 627 0 635 4 632 2 b 610 -3 622 -1 617 -2 b 587 -4 603 -4 596 -4 b 562 -3 577 -4 569 -4 b 545 1 555 -2 550 -1 b 535 7 541 3 537 5 b 530 14 532 9 531 12 l 231 782 l 230 782 l 230 18 b 227 8 230 14 229 11 b 218 2 225 5 222 3 b 200 -2 213 0 207 -1 b 172 -4 193 -4 184 -4 b 145 -2 161 -4 152 -4 b 128 2 138 -1 132 0 b 119 8 124 3 121 5 b 117 18 117 11 117 14 l 117 825 b 132 865 117 844 122 857 b 165 878 142 873 153 878 l 235 878 b 273 873 250 878 262 876 b 302 861 284 871 294 866 b 322 838 310 855 317 847 b 336 806 328 829 332 819 l 591 171 l 594 171 l 859 804 b 875 839 864 818 869 829 b 894 862 881 848 887 856 b 918 874 901 867 909 871 b 947 878 926 876 936 878 l 1021 878 b 1041 874 1028 878 1035 877 b 1056 865 1047 872 1052 869 b 1067 849 1061 861 1064 855 b 1071 825 1069 842 1071 834 l 1071 18 "},"N":{"ha":897,"x_min":0,"x_max":0,"o":"m 780 48 b 775 25 780 39 778 31 b 764 9 773 19 769 14 b 748 1 759 5 754 2 b 730 -2 742 -1 736 -2 l 693 -2 b 662 2 681 -2 671 -1 b 637 15 653 4 645 9 b 613 42 629 22 621 31 b 587 85 605 53 597 68 l 311 585 l 267 666 l 226 748 l 224 748 b 227 648 225 715 226 682 b 227 547 227 614 227 581 l 227 18 b 224 8 227 14 226 11 b 215 2 223 6 220 3 b 198 -2 211 0 205 -1 b 172 -4 191 -4 182 -4 b 145 -2 161 -4 152 -4 b 128 2 138 -1 132 0 b 119 8 124 3 121 6 b 117 18 118 11 117 14 l 117 827 b 132 866 117 845 122 858 b 164 878 142 874 152 878 l 220 878 b 253 874 233 878 244 876 b 276 863 261 872 269 868 b 297 841 283 858 290 851 b 318 806 303 832 310 820 l 531 421 l 569 352 l 604 286 l 638 222 l 671 159 l 671 159 b 670 270 670 194 670 232 b 669 382 669 309 669 346 l 669 858 b 672 867 669 861 670 864 b 681 874 674 869 677 872 b 698 878 686 876 691 877 b 726 880 705 879 714 880 b 751 878 736 880 744 879 b 768 874 759 877 764 876 b 777 867 772 872 775 869 b 780 858 779 864 780 861 l 780 48 "},"O":{"ha":920,"x_min":0,"x_max":0,"o":"m 852 449 b 827 257 852 378 843 314 b 752 112 810 200 785 152 b 627 19 719 72 677 41 b 451 -13 576 -2 518 -13 b 280 17 385 -13 328 -3 b 160 102 232 36 192 65 b 90 242 129 140 106 186 b 67 434 75 298 67 362 b 92 623 67 503 76 566 b 168 767 109 679 134 727 b 293 858 201 806 243 837 b 469 890 343 880 402 890 b 637 861 533 890 590 881 b 757 776 685 842 725 813 b 828 638 789 739 813 693 b 852 449 844 583 852 520 m 729 441 b 716 579 729 491 725 537 b 672 691 707 622 692 659 b 589 764 651 722 624 747 b 462 791 555 782 512 791 b 334 762 411 791 369 781 b 251 686 300 743 272 718 b 204 575 229 655 214 618 b 191 442 195 533 191 489 b 203 300 191 391 195 343 b 247 188 212 256 227 219 b 329 114 267 156 294 132 b 457 88 363 97 406 88 b 586 117 508 88 551 98 b 670 194 621 136 649 161 b 715 306 691 226 706 263 b 729 441 725 348 729 393 "},"P":{"ha":718,"x_min":0,"x_max":0,"o":"m 656 621 b 634 502 656 577 649 537 b 572 412 620 467 599 437 b 473 354 545 387 512 368 b 333 334 434 340 387 334 l 233 334 l 233 18 b 230 8 233 14 232 11 b 221 2 228 5 225 3 b 203 -2 216 0 211 -1 b 175 -4 196 -4 186 -4 b 147 -2 164 -4 154 -4 b 129 2 139 -1 133 0 b 119 8 124 3 121 5 b 117 18 118 11 117 14 l 117 827 b 131 866 117 845 121 858 b 163 878 140 874 151 878 l 351 878 b 405 875 370 878 388 877 b 467 865 423 874 443 870 b 539 836 491 860 515 850 b 602 783 564 822 585 804 b 642 711 619 762 633 738 b 656 621 651 684 656 654 m 533 611 b 513 701 533 647 526 677 b 464 754 500 725 483 742 b 402 777 444 766 424 773 b 341 781 381 780 361 781 l 233 781 l 233 429 l 338 429 b 426 443 374 429 403 434 b 485 480 450 452 469 464 b 521 538 501 497 513 516 b 533 611 529 561 533 585 "},"Q":{"ha":935,"x_min":0,"x_max":0,"o":"m 960 -77 b 958 -103 960 -88 959 -96 b 953 -120 957 -110 955 -116 b 945 -127 951 -124 948 -126 b 937 -130 943 -129 940 -130 b 893 -118 928 -130 914 -126 b 824 -86 873 -111 850 -100 b 740 -34 798 -72 770 -54 b 653 37 710 -14 681 10 b 569 2 631 24 603 12 b 451 -13 535 -8 496 -13 b 280 16 385 -13 328 -3 b 160 102 232 36 192 64 b 90 242 129 139 106 186 b 67 434 75 298 67 362 b 92 623 67 504 76 567 b 168 767 109 679 134 727 b 293 858 201 806 243 837 b 469 890 343 880 402 890 b 634 861 531 890 587 881 b 754 776 682 842 722 813 b 827 638 787 739 811 693 b 852 450 844 583 852 521 b 845 345 852 413 850 378 b 825 250 841 311 834 279 b 790 167 816 220 804 192 b 741 98 776 142 760 119 b 827 35 774 71 802 50 b 889 1 852 20 873 8 b 927 -16 905 -7 918 -13 b 947 -27 936 -19 943 -23 b 957 -46 952 -32 955 -38 b 960 -77 959 -54 960 -64 m 729 441 b 716 580 729 491 725 537 b 672 691 707 622 692 659 b 589 764 651 722 624 747 b 462 791 555 782 512 791 b 334 763 411 791 369 781 b 251 687 300 744 272 719 b 204 576 229 655 214 618 b 191 442 195 534 191 489 b 203 300 191 391 195 343 b 247 188 212 257 227 220 b 329 114 267 156 294 132 b 457 88 363 97 406 88 b 586 117 508 88 551 98 b 670 194 621 136 649 161 b 715 306 691 226 706 263 b 729 441 725 349 729 394 "},"R":{"ha":754,"x_min":0,"x_max":0,"o":"m 702 18 b 700 8 702 14 701 11 b 691 1 699 5 696 3 b 672 -3 687 0 680 -2 b 640 -4 664 -4 653 -4 b 611 -3 628 -4 618 -4 b 593 2 603 -2 597 0 b 582 10 588 4 585 7 b 576 24 580 14 578 18 l 495 231 b 466 295 486 254 476 276 b 429 346 455 315 443 332 b 380 379 415 360 399 372 b 311 391 361 387 338 391 l 233 391 l 233 18 b 230 8 233 14 232 11 b 221 2 228 5 225 3 b 203 -2 216 0 211 -1 b 175 -4 196 -4 186 -4 b 147 -2 164 -4 154 -4 b 129 2 139 -1 133 0 b 119 8 124 3 121 5 b 117 18 118 11 117 14 l 117 830 b 131 867 117 848 121 860 b 160 878 140 874 150 878 l 347 878 b 402 876 369 878 387 877 b 441 872 417 875 430 873 b 531 844 475 866 505 857 b 597 796 557 832 579 816 b 636 729 614 777 628 754 b 650 646 645 704 650 677 b 638 567 650 617 646 591 b 604 506 630 544 618 523 b 550 459 589 488 571 472 b 480 426 529 446 506 435 b 519 402 495 420 508 412 b 552 367 531 392 542 380 b 581 320 563 353 572 338 b 608 260 590 302 599 283 l 687 67 b 699 33 693 51 697 39 b 702 18 701 26 702 21 m 526 634 b 503 721 526 668 519 697 b 426 772 488 745 462 762 b 388 779 415 776 402 778 b 332 781 373 781 355 781 l 233 781 l 233 486 l 347 486 b 427 497 378 486 405 489 b 483 528 449 504 468 515 b 516 575 498 541 509 557 b 526 634 523 593 526 613 "},"S":{"ha":638,"x_min":0,"x_max":0,"o":"m 588 246 b 565 136 588 205 580 168 b 502 55 550 104 529 77 b 407 4 475 32 444 15 b 290 -13 371 -7 332 -13 b 208 -5 260 -13 233 -10 b 141 13 183 0 160 6 b 91 35 121 20 105 28 b 63 55 78 43 69 50 b 52 76 58 60 54 67 b 48 109 49 84 48 95 b 50 134 48 119 49 127 b 54 150 50 140 52 146 b 60 158 55 154 58 157 b 70 161 63 160 66 161 b 97 149 76 161 85 157 b 141 124 108 142 123 133 b 207 99 159 115 181 107 b 295 87 232 91 262 87 b 365 97 320 87 343 90 b 419 126 386 104 404 113 b 454 172 434 138 446 153 b 466 233 462 190 466 210 b 449 297 466 258 460 279 b 404 343 438 315 423 330 b 341 380 386 357 365 369 l 268 414 b 195 452 243 426 219 438 b 132 502 172 466 151 483 b 87 569 114 521 99 543 b 70 661 76 594 70 625 b 90 759 70 697 77 730 b 145 831 103 787 122 811 b 230 875 169 850 197 865 b 336 890 263 885 298 890 b 395 885 356 890 375 889 b 451 872 415 882 433 877 b 497 853 468 866 484 860 b 524 836 511 846 520 840 b 532 826 528 832 531 828 b 536 816 534 823 535 820 b 538 802 537 812 537 808 b 538 781 538 797 538 790 b 537 760 538 773 538 766 b 534 744 537 753 536 748 b 529 734 533 739 531 736 b 520 731 526 732 523 731 b 497 741 515 731 507 734 b 458 762 486 747 473 754 b 403 784 442 770 424 777 b 332 793 382 790 359 793 b 269 784 308 793 287 790 b 224 758 250 777 236 768 b 197 719 212 747 203 734 b 189 671 191 704 189 688 b 205 608 189 647 194 626 b 251 562 217 591 232 575 b 315 524 269 548 291 536 l 388 490 b 461 452 413 478 437 466 b 525 403 485 438 506 422 b 571 337 544 384 559 362 b 588 246 582 311 588 281 "},"T":{"ha":677,"x_min":0,"x_max":0,"o":"m 667 827 b 665 805 667 819 666 811 b 661 790 664 799 663 794 b 653 781 659 786 656 783 b 644 779 650 779 647 779 l 397 779 l 397 18 b 394 8 397 14 396 11 b 385 2 392 5 389 3 b 367 -2 380 0 374 -1 b 338 -4 359 -4 350 -4 b 311 -2 328 -4 318 -4 b 292 2 303 -1 297 0 b 283 8 288 3 285 5 b 280 18 281 11 280 14 l 280 779 l 33 779 b 23 781 30 779 26 779 b 16 790 20 783 18 786 b 12 805 14 794 13 799 b 10 827 11 811 10 819 b 12 850 10 836 11 844 b 16 866 13 857 14 862 b 23 875 18 870 20 873 b 33 878 26 877 30 878 l 644 878 b 653 875 647 878 650 877 b 661 866 656 873 659 870 b 665 850 663 862 664 857 b 667 827 666 844 667 836 "},"U":{"ha":891,"x_min":0,"x_max":0,"o":"m 777 324 b 753 181 777 271 769 223 b 686 75 738 140 715 104 b 581 9 657 46 622 24 b 439 -13 539 -5 492 -13 b 307 8 390 -13 346 -6 b 204 70 267 22 233 43 b 138 173 176 98 154 132 b 115 315 123 214 115 262 l 115 860 b 118 869 115 864 116 867 b 127 876 120 872 123 874 b 145 880 132 877 138 879 b 174 882 152 881 162 882 b 201 880 184 882 194 881 b 219 876 209 879 215 877 b 229 869 224 874 227 872 b 231 860 230 867 231 864 l 231 330 b 246 223 231 289 236 253 b 289 148 256 193 270 168 b 357 102 308 127 331 112 b 446 87 384 92 413 87 b 537 102 480 87 510 92 b 604 146 563 112 586 127 b 646 220 622 166 636 191 b 661 323 656 250 661 284 l 661 860 b 663 869 661 864 661 867 b 673 876 665 872 668 874 b 691 880 677 877 683 879 b 719 882 698 881 708 882 b 746 880 730 882 739 881 b 764 876 754 879 760 877 b 773 869 768 874 771 872 b 777 860 775 867 777 864 l 777 324 "},"V":{"ha":788,"x_min":0,"x_max":0,"o":"m 471 20 b 464 8 470 15 467 11 b 451 1 461 5 456 2 b 429 -3 445 -1 438 -2 b 396 -4 420 -4 409 -4 b 370 -4 386 -4 377 -4 b 351 -2 362 -4 356 -3 b 337 1 345 -1 341 0 b 327 5 333 2 330 4 b 320 12 324 7 322 9 b 316 21 319 14 317 17 l 29 836 b 23 860 26 846 24 854 b 29 874 23 866 25 871 b 49 880 33 877 40 879 b 85 882 58 881 70 882 b 116 881 98 882 108 881 b 133 877 123 880 129 879 b 142 870 137 875 140 873 b 148 859 144 867 146 863 l 399 120 l 400 120 l 645 857 b 650 869 646 862 648 866 b 659 877 651 873 655 875 b 678 881 664 879 670 880 b 711 882 686 881 697 882 b 744 880 725 882 736 881 b 761 873 752 879 758 877 b 764 860 764 870 765 866 b 758 836 763 853 761 845 l 471 20 "},"W":{"ha":1236,"x_min":0,"x_max":0,"o":"m 957 26 b 949 11 955 19 952 14 b 934 2 945 7 940 4 b 910 -3 928 0 920 -2 b 876 -4 901 -4 890 -4 b 841 -3 862 -4 850 -4 b 817 2 831 -2 823 0 b 802 11 810 4 805 7 b 795 26 799 14 797 19 l 611 688 l 610 688 l 440 26 b 433 11 439 19 437 14 b 420 2 430 7 426 4 b 397 -3 414 0 406 -2 b 361 -4 388 -4 376 -4 b 324 -3 347 -4 334 -4 b 300 2 314 -2 306 0 b 285 11 293 4 289 7 b 278 26 282 14 279 19 l 46 836 b 42 861 43 847 42 855 b 47 874 41 866 43 871 b 66 880 51 877 57 879 b 100 882 74 881 86 882 b 134 881 114 882 125 881 b 152 877 142 880 148 879 b 161 869 157 875 159 873 b 165 857 163 866 164 862 l 362 122 l 363 122 l 550 856 b 555 868 551 861 553 865 b 565 876 557 872 560 874 b 584 880 569 878 576 879 b 617 882 593 881 604 882 b 647 880 630 882 640 881 b 665 876 655 879 661 878 b 675 868 670 874 673 872 b 680 856 677 865 679 861 l 882 122 l 883 122 l 1076 857 b 1080 868 1078 861 1079 865 b 1089 876 1082 872 1085 874 b 1107 880 1093 878 1099 879 b 1139 882 1115 881 1126 882 b 1171 880 1152 882 1163 881 b 1188 873 1179 879 1185 877 b 1193 860 1192 870 1193 866 b 1190 836 1193 854 1192 846 l 957 26 "},"X":{"ha":721,"x_min":0,"x_max":0,"o":"m 675 42 b 686 18 681 32 685 24 b 682 4 687 12 686 8 b 662 -2 677 1 671 -1 b 625 -4 652 -4 640 -4 b 591 -3 610 -4 599 -4 b 571 1 583 -2 576 -1 b 561 7 567 2 563 5 b 554 17 558 10 556 13 l 359 366 l 161 17 b 154 7 159 13 157 9 b 143 0 151 4 148 2 b 123 -3 138 -1 132 -2 b 91 -4 115 -4 104 -4 b 56 -2 76 -4 64 -4 b 38 4 47 -1 41 1 b 34 18 34 8 33 12 b 45 42 35 24 39 32 l 284 446 l 56 836 b 45 860 50 845 47 853 b 48 874 44 866 45 870 b 67 880 52 877 58 879 b 104 882 76 881 89 882 b 138 881 118 882 129 881 b 158 877 146 880 153 879 b 169 870 163 876 167 873 l 176 861 l 365 532 l 552 861 b 559 870 554 864 557 867 b 569 877 561 873 564 876 b 587 881 573 879 579 880 b 618 882 594 881 605 882 b 652 880 632 882 643 881 b 671 873 661 879 667 877 b 675 860 675 870 676 866 b 666 836 675 853 671 845 l 438 448 l 675 42 "},"Y":{"ha":677,"x_min":0,"x_max":0,"o":"m 397 18 b 394 8 397 14 396 11 b 385 2 392 5 389 3 b 366 -2 380 0 374 -1 b 338 -4 359 -4 349 -4 b 310 -2 327 -4 318 -4 b 292 2 303 -1 297 0 b 282 8 287 3 284 5 b 279 18 280 11 279 14 l 279 341 l 31 836 b 22 861 26 847 23 855 b 25 874 21 866 22 871 b 44 880 29 877 35 879 b 79 882 53 881 64 882 b 112 880 93 882 104 881 b 132 877 121 879 127 878 b 143 870 137 875 141 873 b 151 859 146 867 148 863 l 272 606 l 306 531 l 340 452 l 342 452 l 374 529 l 408 604 l 530 858 b 535 869 531 862 533 866 b 546 877 538 873 541 875 b 564 880 550 878 556 879 b 593 882 571 881 581 882 b 631 880 609 882 622 881 b 650 873 640 879 647 877 b 654 860 654 870 655 866 b 645 836 653 854 650 846 l 397 341 "},"Z":{"ha":650,"x_min":0,"x_max":0,"o":"m 621 49 b 620 27 621 40 621 33 b 615 12 619 21 617 16 b 608 3 613 7 611 5 b 597 0 605 1 602 0 l 79 0 b 51 11 68 0 58 4 b 40 45 44 18 40 30 l 40 71 b 41 87 40 76 40 82 b 45 103 42 92 43 97 b 55 122 48 108 51 115 l 70 146 l 475 780 l 75 780 b 63 783 70 780 66 781 b 55 791 60 784 57 787 b 51 806 53 795 52 800 b 50 827 50 812 50 819 b 51 850 50 836 50 844 b 55 866 52 857 53 862 b 63 875 57 870 60 873 b 75 878 66 877 70 878 l 563 878 b 592 867 575 878 585 874 b 602 835 599 860 602 849 l 602 808 b 601 789 602 801 602 795 b 596 772 600 783 598 778 b 587 753 594 766 591 760 b 572 729 583 746 578 738 l 169 98 l 597 98 b 615 87 605 98 611 94 b 621 49 619 79 621 66 "},"[":{"ha":426,"x_min":0,"x_max":0,"o":"m 366 -176 b 360 -208 366 -191 364 -202 b 346 -217 357 -214 352 -217 l 172 -217 b 157 -215 167 -217 162 -216 b 143 -207 152 -213 147 -210 b 133 -192 139 -203 136 -198 b 130 -170 131 -186 130 -179 l 130 901 b 133 923 130 910 131 917 b 143 938 136 929 139 934 b 157 946 147 942 152 945 b 172 949 162 948 167 949 l 346 949 b 354 947 349 949 351 948 b 360 939 356 945 358 943 b 364 926 362 936 363 931 b 366 907 365 921 366 914 b 360 876 366 892 364 882 b 346 866 357 869 352 866 l 235 866 l 235 -135 l 346 -135 b 354 -137 349 -135 351 -136 b 360 -144 356 -138 358 -141 b 364 -157 362 -148 363 -152 b 366 -176 365 -162 366 -169 "},"\\":{"ha":536,"x_min":0,"x_max":0,"o":"m 531 -151 b 535 -170 534 -159 535 -165 b 530 -180 535 -174 533 -177 b 513 -184 526 -182 520 -184 b 484 -186 506 -185 496 -186 b 455 -185 472 -186 462 -185 b 438 -182 448 -184 442 -183 b 428 -176 433 -181 430 -179 b 422 -167 426 -174 424 -170 l 12 958 b 7 977 9 966 7 972 b 13 987 7 981 9 984 b 30 991 17 989 22 990 b 59 992 37 992 47 992 b 87 991 71 992 80 992 b 105 988 95 991 101 990 b 115 983 110 987 113 985 b 120 974 117 980 119 977 l 531 -151 "},"]":{"ha":426,"x_min":0,"x_max":0,"o":"m 297 -170 b 293 -192 297 -179 296 -186 b 283 -207 291 -198 288 -203 b 270 -215 279 -210 275 -213 b 254 -217 264 -216 259 -217 l 81 -217 b 66 -208 74 -217 70 -214 b 61 -176 63 -202 61 -191 b 62 -157 61 -169 61 -162 b 66 -144 63 -152 64 -148 b 72 -137 68 -141 70 -138 b 81 -135 75 -136 78 -135 l 191 -135 l 191 866 l 81 866 b 66 876 74 866 70 869 b 61 907 63 882 61 892 b 62 926 61 914 61 921 b 66 939 63 931 64 936 b 72 947 68 943 70 945 b 81 949 75 948 78 949 l 254 949 b 270 946 259 949 264 948 b 283 938 275 945 279 942 b 293 923 288 934 291 929 b 297 901 296 917 297 910 l 297 -170 "},"^":{"ha":692,"x_min":0,"x_max":0,"o":"m 610 423 b 616 402 614 415 616 408 b 612 391 617 397 615 393 b 594 386 608 388 602 386 b 563 385 587 385 576 385 b 533 386 551 385 541 385 b 514 389 525 386 519 387 b 503 396 509 391 505 393 b 496 406 500 399 498 402 l 339 779 l 337 777 l 189 406 b 183 396 187 402 185 399 b 172 389 180 393 177 391 b 153 386 167 387 160 386 b 124 385 145 385 136 385 b 93 386 111 385 101 385 b 77 391 86 386 80 388 b 72 403 74 394 72 398 b 78 423 72 408 74 415 l 271 863 b 278 873 272 867 274 870 b 292 880 282 876 286 878 b 313 884 298 882 304 883 b 341 886 321 885 330 886 b 371 884 353 886 363 885 b 391 880 379 883 386 882 b 405 873 397 878 401 876 b 413 863 408 870 411 867 l 610 423 "},"_":{"ha":692,"x_min":0,"x_max":0,"o":"m 694 -202 b 689 -237 694 -218 693 -229 b 672 -248 685 -244 680 -248 l 19 -248 b 1 -237 11 -248 5 -244 b -5 -203 -3 -231 -5 -219 b 1 -169 -5 -188 -3 -177 b 19 -157 5 -161 11 -157 l 672 -157 b 689 -168 679 -157 685 -161 b 694 -202 693 -175 694 -187 "},"`":{"ha":404,"x_min":0,"x_max":0,"o":"m 309 769 b 315 756 312 764 314 760 b 312 747 316 753 315 750 b 300 742 310 745 306 743 b 277 740 294 741 287 740 b 254 741 268 740 260 740 b 239 744 248 742 243 743 b 228 751 235 746 231 748 b 218 762 225 753 222 757 l 96 920 b 90 931 92 924 90 928 b 94 942 89 935 90 939 b 110 948 97 945 102 947 b 141 951 118 950 128 951 b 169 949 152 951 161 950 b 187 945 176 949 182 947 b 200 938 192 944 196 941 b 211 926 204 935 207 931 l 309 769 m 0 645 "},"a":{"ha":665,"x_min":0,"x_max":0,"o":"m 564 16 b 558 4 564 11 562 7 b 543 -2 555 1 550 -1 b 515 -4 537 -3 528 -4 b 487 -2 504 -4 494 -3 b 472 4 480 -1 475 1 b 467 16 469 7 467 11 l 467 77 b 378 11 441 49 411 27 b 274 -13 345 -5 311 -13 b 187 0 242 -13 213 -9 b 120 36 161 8 139 20 b 78 94 102 52 88 71 b 62 173 67 117 62 144 b 83 262 62 207 69 237 b 144 326 97 288 118 309 b 240 363 170 342 202 355 b 368 376 278 372 321 376 l 452 376 l 452 423 b 445 486 452 447 450 467 b 421 531 440 504 432 519 b 378 558 410 543 395 552 b 313 567 360 564 338 567 b 238 557 285 567 260 564 b 181 535 216 551 197 543 b 139 514 164 528 150 520 b 115 504 128 507 120 504 b 105 507 111 504 108 505 b 98 515 102 508 100 511 b 94 529 96 518 94 523 b 92 547 93 534 92 541 b 95 574 92 559 93 568 b 106 593 96 581 100 587 b 138 613 112 599 123 605 b 189 635 153 621 170 629 b 253 651 209 642 230 647 b 323 658 276 656 299 658 b 435 643 367 658 404 653 b 509 599 465 633 490 618 b 551 528 528 580 542 556 b 564 428 559 499 564 466 l 564 16 m 357 295 b 277 287 326 295 299 292 b 220 264 254 282 235 274 b 188 228 205 254 195 242 b 177 178 181 213 177 197 b 207 103 177 147 187 122 b 292 75 227 84 255 75 b 373 97 321 75 348 82 b 452 165 398 112 425 135 l 452 295 "},"b":{"ha":730,"x_min":0,"x_max":0,"o":"m 665 330 b 648 188 665 277 660 230 b 597 79 636 145 620 109 b 515 11 575 50 547 27 b 403 -13 482 -5 445 -13 b 349 -7 383 -13 365 -11 b 300 12 332 -3 316 3 b 253 44 285 20 269 31 b 203 92 237 57 220 73 l 203 17 b 200 7 203 13 202 10 b 191 1 198 5 195 3 b 176 -3 187 -1 182 -2 b 153 -4 170 -4 162 -4 b 130 -3 144 -4 136 -4 b 114 1 123 -2 118 -1 b 106 7 110 3 107 5 b 104 17 104 10 104 13 l 104 923 b 106 932 104 927 105 930 b 115 939 108 935 111 937 b 132 943 119 941 125 942 b 159 945 139 944 149 945 b 187 943 171 945 180 944 b 204 939 194 942 200 941 b 213 932 208 937 211 935 b 216 923 215 930 216 927 l 216 557 b 268 604 234 576 251 592 b 318 635 285 617 302 627 b 367 652 334 643 351 649 b 418 658 383 656 400 658 b 532 631 463 658 501 649 b 609 561 563 614 589 590 b 652 456 628 531 643 496 b 665 330 661 417 665 375 m 547 317 b 540 408 547 349 545 379 b 515 486 535 438 527 464 b 469 541 504 509 488 527 b 396 562 449 555 425 562 b 353 555 382 562 367 559 b 311 535 339 551 325 545 b 266 498 296 526 281 513 b 216 442 250 484 233 465 l 216 199 b 304 113 246 161 276 133 b 391 83 332 93 361 83 b 463 104 419 83 443 90 b 512 158 483 117 499 135 b 539 233 524 180 533 205 b 547 317 544 261 547 289 "},"c":{"ha":587,"x_min":0,"x_max":0,"o":"m 543 110 b 542 90 543 102 542 96 b 539 76 541 84 541 79 b 535 65 538 72 537 68 b 525 53 534 63 530 58 b 496 32 519 47 509 40 b 450 9 482 23 467 16 b 395 -7 433 3 415 -3 b 333 -13 375 -11 354 -13 b 216 9 289 -13 250 -6 b 131 72 182 23 154 44 b 79 175 108 100 91 134 b 61 315 67 215 61 262 b 83 470 61 375 68 426 b 143 576 98 513 118 548 b 234 637 169 603 199 624 b 346 657 268 650 306 657 b 402 652 365 657 384 655 b 453 637 421 648 438 643 b 494 617 468 632 482 625 b 520 597 506 609 515 603 b 531 585 526 592 529 588 b 536 573 533 581 535 578 b 539 559 538 569 539 564 b 540 538 540 553 540 547 b 534 502 540 521 538 509 b 519 491 530 494 525 491 b 495 502 512 491 504 495 b 462 527 487 510 475 518 b 413 552 448 536 432 544 b 345 563 393 559 371 563 b 221 501 291 563 249 542 b 178 321 192 459 178 399 b 189 217 178 281 181 247 b 222 143 196 188 207 163 b 275 99 236 123 254 108 b 347 84 296 89 320 84 b 415 96 373 84 396 88 b 466 123 434 104 451 113 b 502 150 480 133 492 142 b 524 161 511 157 519 161 b 532 159 527 161 530 160 b 538 150 535 157 537 154 b 542 133 540 145 541 140 b 543 110 542 127 543 119 "},"d":{"ha":730,"x_min":0,"x_max":0,"o":"m 627 17 b 624 7 627 13 626 10 b 616 1 623 5 620 3 b 601 -3 612 -1 607 -2 b 578 -4 595 -4 587 -4 b 554 -3 568 -4 560 -4 b 538 1 548 -2 543 -1 b 530 7 534 3 531 5 b 527 17 528 10 527 13 l 527 98 b 427 16 495 63 461 36 b 313 -13 392 -3 354 -13 b 199 13 269 -13 230 -4 b 122 84 167 31 141 54 b 79 188 102 113 88 148 b 65 315 70 228 65 270 b 82 457 65 367 71 414 b 132 565 93 499 110 535 b 215 634 154 595 182 618 b 328 658 247 650 285 658 b 426 634 364 658 397 650 b 514 566 456 619 485 596 l 514 920 b 516 929 514 923 515 926 b 526 936 518 932 521 935 b 543 940 530 938 536 939 b 570 942 550 941 559 942 b 597 940 581 942 590 941 b 614 936 605 939 610 938 b 624 929 618 935 622 932 b 627 920 626 926 627 923 l 627 17 m 514 446 b 426 532 484 484 454 512 b 338 562 398 552 368 562 b 265 541 309 562 285 555 b 217 488 245 528 229 510 b 190 412 204 465 195 440 b 181 327 184 384 181 356 b 188 237 181 296 183 266 b 213 158 193 207 201 181 b 260 103 225 136 240 117 b 333 83 279 90 304 83 b 376 89 348 83 362 85 b 418 109 390 93 404 100 b 464 146 433 119 448 131 b 514 202 480 161 496 180 l 514 446 "},"e":{"ha":691,"x_min":0,"x_max":0,"o":"m 625 349 b 611 311 625 331 620 318 b 581 300 603 303 592 300 l 181 300 b 191 208 181 266 184 235 b 225 138 198 181 209 158 b 287 94 241 119 262 104 b 380 78 312 83 343 78 b 457 85 409 78 434 80 b 516 101 480 90 499 95 b 556 117 532 107 546 112 b 581 124 567 122 575 124 b 589 122 584 124 587 123 b 595 115 591 120 593 118 b 598 101 596 111 597 107 b 599 81 598 96 599 89 b 598 65 599 75 599 70 b 596 54 598 61 597 57 b 593 45 596 51 595 47 b 587 37 591 42 589 39 b 565 25 584 34 577 30 b 517 8 553 19 537 14 b 450 -6 498 3 476 -2 b 368 -13 424 -11 397 -13 b 236 8 318 -13 274 -6 b 141 71 199 22 167 43 b 83 174 115 98 96 133 b 63 319 70 216 63 264 b 83 461 63 372 70 419 b 142 567 97 503 117 538 b 235 634 168 596 198 619 b 356 658 271 650 311 658 b 478 635 404 658 445 650 b 562 573 512 619 540 599 b 609 481 583 547 599 516 b 625 369 620 446 625 409 l 625 349 m 512 382 b 473 520 513 441 500 487 b 351 570 446 554 405 570 b 279 555 324 570 300 565 b 227 513 258 544 241 531 b 194 453 212 496 202 476 b 181 382 186 431 182 407 l 512 382 "},"f":{"ha":424,"x_min":0,"x_max":0,"o":"m 438 878 b 437 858 438 870 438 863 b 434 845 436 852 435 848 b 429 839 433 842 431 840 b 422 837 427 837 425 837 b 411 840 419 837 415 838 b 393 847 406 842 400 844 b 369 853 387 849 379 851 b 337 857 360 856 349 857 b 294 848 320 857 306 854 b 266 823 283 843 273 834 b 250 778 259 811 253 797 b 245 711 247 760 245 738 l 245 645 l 382 645 b 391 643 385 645 388 644 b 398 634 393 641 396 638 b 402 620 400 631 401 626 b 404 598 404 614 404 607 b 398 563 404 582 402 570 b 382 552 394 556 389 552 l 245 552 l 245 17 b 243 8 245 13 245 10 b 234 1 241 5 238 3 b 216 -3 229 0 224 -2 b 189 -4 209 -4 200 -4 b 162 -3 178 -4 169 -4 b 145 1 155 -2 149 0 b 136 8 140 3 137 5 b 133 17 134 10 133 13 l 133 552 l 47 552 b 31 563 40 552 34 556 b 25 598 27 570 25 582 b 26 620 25 607 26 614 b 31 634 27 626 29 631 b 37 643 32 638 35 641 b 47 645 40 644 43 645 l 133 645 l 133 708 b 145 818 133 751 137 787 b 181 892 153 848 165 873 b 242 936 197 912 218 926 b 330 949 267 945 296 949 b 376 945 345 949 361 948 b 410 936 391 942 402 939 b 427 926 418 932 424 929 b 433 916 429 924 432 920 b 437 900 435 912 436 906 b 438 878 438 894 438 887 "},"g":{"ha":654,"x_min":0,"x_max":0,"o":"m 614 600 b 607 565 614 584 612 572 b 591 555 603 558 597 555 l 503 555 b 536 501 519 538 530 520 b 546 439 543 481 546 461 b 529 346 546 404 540 373 b 480 277 518 319 502 296 b 406 234 459 258 434 244 b 309 219 377 224 345 219 b 238 229 284 219 261 222 b 186 254 216 235 199 244 b 166 226 178 245 172 236 b 159 190 161 215 159 203 b 181 151 159 174 166 161 b 239 134 195 140 215 135 l 399 127 b 482 114 429 126 457 122 b 548 82 507 107 529 96 b 591 32 566 69 581 52 b 607 -39 602 11 607 -12 b 589 -119 607 -67 601 -93 b 535 -185 578 -144 560 -166 b 443 -231 511 -205 480 -220 b 310 -248 405 -242 361 -248 b 184 -235 261 -248 219 -243 b 99 -201 150 -227 121 -215 b 51 -149 77 -186 61 -169 b 36 -83 41 -129 36 -107 b 41 -40 36 -68 38 -54 b 58 0 45 -26 51 -13 b 86 36 65 13 75 25 b 124 71 97 48 110 59 b 75 113 102 82 86 96 b 59 169 64 130 59 149 b 76 243 59 196 65 221 b 118 301 87 264 101 284 b 85 358 104 318 93 337 b 73 434 77 379 73 404 b 90 528 73 469 78 500 b 139 597 102 555 118 578 b 214 641 160 616 185 631 b 309 656 243 651 275 656 b 361 653 328 656 345 655 b 406 645 377 651 392 649 l 591 645 b 608 634 598 645 604 641 b 614 600 612 626 614 615 m 439 439 b 405 536 439 480 427 513 b 307 571 382 559 349 571 b 251 560 286 571 267 567 b 211 530 235 553 221 543 b 187 487 200 518 192 503 b 179 435 182 470 179 453 b 213 340 179 394 190 363 b 309 305 236 317 268 305 b 367 316 331 305 351 309 b 407 345 383 323 397 332 b 431 388 418 357 426 372 b 439 439 436 404 439 421 m 495 -45 b 463 16 495 -19 484 2 b 376 39 441 30 412 38 l 218 44 b 182 12 203 33 191 22 b 160 -17 173 2 165 -8 b 149 -45 155 -27 151 -36 b 146 -73 147 -54 146 -63 b 191 -139 146 -102 161 -124 b 315 -162 220 -155 262 -162 b 400 -152 349 -162 378 -159 b 456 -126 423 -146 442 -137 b 486 -89 470 -115 480 -103 b 495 -45 492 -75 495 -60 "},"h":{"ha":730,"x_min":0,"x_max":0,"o":"m 629 17 b 627 8 629 13 628 10 b 618 1 625 5 622 3 b 601 -3 614 0 608 -2 b 574 -4 594 -4 585 -4 b 546 -3 562 -4 553 -4 b 529 1 539 -2 533 0 b 520 8 525 3 522 5 b 517 17 518 10 517 13 l 517 374 b 509 458 517 409 515 437 b 486 513 504 480 496 498 b 445 549 475 529 462 541 b 388 561 429 557 410 561 b 304 531 360 561 332 551 b 216 444 276 511 246 482 l 216 17 b 213 8 216 13 215 10 b 204 1 211 5 208 3 b 187 -3 200 0 194 -2 b 159 -4 180 -4 171 -4 b 132 -3 149 -4 139 -4 b 115 1 125 -2 119 0 b 106 8 111 3 108 5 b 104 17 105 10 104 13 l 104 923 b 106 932 104 927 105 930 b 115 939 108 935 111 937 b 132 943 119 941 125 942 b 159 945 139 944 149 945 b 187 943 171 945 180 944 b 204 939 194 942 200 941 b 213 932 208 937 211 935 b 216 923 215 930 216 927 l 216 557 b 313 633 248 591 280 617 b 411 658 345 650 378 658 b 514 637 452 658 486 651 b 581 582 542 623 564 605 b 618 501 598 559 611 532 b 629 389 626 470 629 432 l 629 17 "},"i":{"ha":319,"x_min":0,"x_max":0,"o":"m 216 17 b 213 8 216 13 215 10 b 204 1 211 5 208 3 b 187 -3 200 0 194 -2 b 159 -4 180 -4 171 -4 b 132 -3 149 -4 139 -4 b 115 1 125 -2 119 0 b 106 8 111 3 108 5 b 104 17 105 10 104 13 l 104 627 b 106 636 104 630 105 633 b 115 643 108 639 111 641 b 132 647 119 645 125 646 b 159 648 139 648 149 648 b 187 647 171 648 180 648 b 204 643 194 646 200 645 b 213 636 208 641 211 639 b 216 627 215 633 216 630 l 216 17 m 229 833 b 214 780 229 807 224 789 b 159 766 204 770 185 766 b 105 780 132 766 114 770 b 90 832 95 789 90 806 b 105 886 90 858 95 876 b 160 900 115 895 133 900 b 214 886 186 900 204 895 b 229 833 224 877 229 859 "},"j":{"ha":332,"x_min":0,"x_max":0,"o":"m 229 -10 b 218 -120 229 -55 225 -92 b 186 -190 212 -148 201 -171 b 131 -233 172 -209 153 -223 b 49 -248 108 -243 81 -248 b 12 -245 34 -248 22 -247 b -12 -239 2 -243 -6 -241 b -23 -231 -17 -236 -21 -234 b -27 -221 -25 -228 -26 -225 b -29 -209 -28 -217 -29 -213 b -29 -194 -29 -205 -29 -200 b -28 -173 -29 -186 -29 -179 b -25 -159 -27 -167 -26 -162 b -19 -151 -23 -155 -21 -152 b -12 -149 -17 -149 -15 -149 b 4 -150 -9 -149 -4 -149 b 32 -152 12 -151 21 -152 b 70 -145 47 -152 60 -150 b 96 -123 81 -141 90 -133 b 111 -83 103 -113 108 -100 b 116 -9 114 -67 116 -42 l 116 627 b 119 636 116 630 117 633 b 128 643 120 639 124 641 b 145 647 132 645 138 646 b 172 648 152 648 161 648 b 199 647 183 648 192 648 b 217 643 207 646 212 645 b 226 636 221 641 224 639 b 229 627 228 633 229 630 l 229 -10 m 241 833 b 227 780 241 807 236 789 b 172 766 217 770 198 766 b 118 780 145 766 127 770 b 104 832 109 789 104 806 b 118 886 104 858 109 876 b 173 900 128 895 146 900 b 227 886 200 900 218 895 b 241 833 237 877 241 859 "},"k":{"ha":631,"x_min":0,"x_max":0,"o":"m 605 18 b 602 8 605 14 604 11 b 593 1 600 5 597 3 b 575 -3 589 0 583 -2 b 546 -4 567 -4 558 -4 b 516 -3 534 -4 524 -4 b 496 0 508 -2 501 -1 b 483 7 490 2 486 4 b 473 18 479 10 476 14 l 216 355 l 216 17 b 213 8 216 13 215 10 b 204 1 211 5 208 3 b 187 -3 200 0 194 -2 b 159 -4 180 -4 171 -4 b 132 -3 149 -4 139 -4 b 115 1 125 -2 119 0 b 106 8 111 3 108 5 b 104 17 105 10 104 13 l 104 923 b 106 932 104 927 105 930 b 115 939 108 935 111 937 b 132 943 119 941 125 942 b 159 945 139 944 149 945 b 187 943 171 945 180 944 b 204 939 194 942 200 941 b 213 932 208 937 211 935 b 216 923 215 930 216 927 l 216 371 l 446 625 b 458 636 450 629 454 633 b 472 643 462 639 467 641 b 492 647 478 645 485 647 b 520 648 500 648 509 648 b 549 647 531 648 541 648 b 567 644 556 647 563 646 b 577 638 572 642 575 640 b 581 628 579 635 581 632 b 576 612 581 623 579 617 b 562 593 573 606 568 600 l 340 372 l 589 50 b 601 31 595 42 599 36 b 605 18 604 26 605 22 "},"l":{"ha":319,"x_min":0,"x_max":0,"o":"m 216 17 b 213 8 216 13 215 10 b 204 1 211 5 208 3 b 187 -3 200 0 194 -2 b 159 -4 180 -4 171 -4 b 132 -3 149 -4 139 -4 b 115 1 125 -2 119 0 b 106 8 111 3 108 5 b 104 17 105 10 104 13 l 104 923 b 106 932 104 927 105 930 b 115 939 108 935 111 937 b 132 943 119 941 125 942 b 159 945 139 944 149 945 b 187 943 171 945 180 944 b 204 939 194 942 200 941 b 213 932 208 937 211 935 b 216 923 215 930 216 927 l 216 17 "},"m":{"ha":1109,"x_min":0,"x_max":0,"o":"m 1009 17 b 1006 8 1009 13 1008 10 b 998 1 1005 5 1002 3 b 981 -3 994 0 988 -2 b 954 -4 973 -4 964 -4 b 926 -3 942 -4 933 -4 b 908 1 918 -2 913 0 b 899 8 904 3 901 5 b 897 17 897 10 897 13 l 897 388 b 890 458 897 414 894 437 b 868 513 885 480 878 498 b 830 549 858 529 845 541 b 776 561 815 557 797 561 b 698 531 750 561 724 551 b 612 444 672 511 644 482 l 612 17 b 610 8 612 13 611 10 b 601 1 608 5 605 3 b 583 -3 596 0 590 -2 b 556 -4 576 -4 567 -4 b 529 -3 546 -4 537 -4 b 512 1 522 -2 516 0 b 503 8 507 3 504 5 b 500 17 501 10 500 13 l 500 388 b 493 458 500 414 498 437 b 471 513 488 480 481 498 b 433 549 461 529 448 541 b 379 561 418 557 400 561 b 301 531 353 561 327 551 b 216 444 275 511 246 482 l 216 17 b 213 8 216 13 215 10 b 204 1 211 5 208 3 b 187 -3 200 0 194 -2 b 159 -4 180 -4 171 -4 b 132 -3 149 -4 139 -4 b 115 1 125 -2 119 0 b 106 8 111 3 108 5 b 104 17 105 10 104 13 l 104 627 b 106 636 104 631 104 634 b 114 643 107 639 110 641 b 130 647 118 645 123 647 b 155 648 136 648 144 648 b 179 647 165 648 173 648 b 195 643 186 647 191 645 b 202 636 198 641 201 639 b 205 627 204 634 205 631 l 205 547 b 305 631 239 585 273 613 b 403 658 337 649 370 658 b 471 649 428 658 451 655 b 524 624 491 643 509 635 b 564 586 540 614 553 601 b 591 537 574 572 583 555 b 649 593 611 559 630 578 b 702 631 667 609 685 621 b 751 651 719 640 735 647 b 800 658 767 656 783 658 b 899 637 839 658 872 651 b 963 582 925 623 947 605 b 999 501 980 559 992 532 b 1009 403 1006 470 1009 437 l 1009 17 "},"n":{"ha":730,"x_min":0,"x_max":0,"o":"m 629 17 b 627 8 629 13 628 10 b 618 1 625 5 622 3 b 601 -3 614 0 608 -2 b 574 -4 594 -4 585 -4 b 546 -3 562 -4 553 -4 b 529 1 539 -2 533 0 b 520 8 525 3 522 5 b 517 17 518 10 517 13 l 517 374 b 509 458 517 409 515 437 b 486 513 504 480 496 498 b 445 549 475 529 462 541 b 388 561 429 557 410 561 b 304 531 360 561 332 551 b 216 444 276 511 246 482 l 216 17 b 213 8 216 13 215 10 b 204 1 211 5 208 3 b 187 -3 200 0 194 -2 b 159 -4 180 -4 171 -4 b 132 -3 149 -4 139 -4 b 115 1 125 -2 119 0 b 106 8 111 3 108 5 b 104 17 105 10 104 13 l 104 627 b 106 636 104 631 104 634 b 114 643 107 639 110 641 b 130 647 118 645 123 647 b 155 648 136 648 144 648 b 179 647 165 648 173 648 b 195 643 186 647 191 645 b 202 636 198 641 201 639 b 205 627 204 634 205 631 l 205 547 b 308 631 239 585 273 613 b 411 658 342 649 376 658 b 514 637 452 658 486 651 b 581 582 542 623 564 605 b 618 501 598 559 611 532 b 629 389 626 470 629 433 l 629 17 "},"o":{"ha":732,"x_min":0,"x_max":0,"o":"m 671 329 b 652 192 671 279 665 233 b 593 83 639 150 619 114 b 495 13 567 53 535 30 b 359 -13 456 -4 411 -13 b 228 9 309 -13 266 -5 b 135 75 191 24 160 46 b 79 178 110 103 92 138 b 61 317 67 219 61 265 b 80 454 61 366 67 412 b 139 562 93 496 113 532 b 236 633 165 592 197 616 b 372 658 275 649 320 658 b 504 635 422 658 466 650 b 597 570 541 621 572 599 b 653 467 622 542 640 507 b 671 329 665 426 671 380 m 553 321 b 544 415 553 354 550 386 b 514 492 538 444 528 470 b 457 545 500 515 481 532 b 368 564 433 558 403 564 b 282 547 335 564 306 558 b 224 497 259 535 239 518 b 190 420 208 475 197 450 b 178 324 182 391 178 359 b 188 230 178 291 181 259 b 218 153 194 201 204 175 b 275 101 232 131 251 114 b 365 81 299 88 329 81 b 450 99 397 81 426 87 b 509 149 474 111 493 127 b 543 224 524 170 535 195 b 553 321 550 254 553 286 "},"p":{"ha":730,"x_min":0,"x_max":0,"o":"m 665 332 b 648 188 665 278 660 230 b 597 80 636 145 620 109 b 514 11 575 50 547 27 b 401 -13 481 -5 443 -13 b 351 -7 383 -13 366 -11 b 306 9 335 -4 320 2 b 262 39 291 17 276 27 b 216 80 247 50 232 64 l 216 -225 b 213 -235 216 -229 215 -232 b 204 -241 211 -237 208 -240 b 187 -245 200 -243 194 -245 b 159 -247 180 -246 171 -247 b 132 -245 149 -247 139 -246 b 115 -241 125 -245 119 -243 b 106 -235 111 -240 108 -237 b 104 -225 105 -232 104 -229 l 104 627 b 106 637 104 631 104 635 b 114 644 107 640 110 642 b 130 647 118 645 123 647 b 153 648 136 648 144 648 b 176 647 162 648 170 648 b 191 644 182 647 187 645 b 200 637 195 642 198 640 b 202 627 201 635 202 631 l 202 545 b 256 595 221 564 238 581 b 308 630 273 609 290 620 b 361 651 325 639 343 646 b 419 658 379 655 399 658 b 532 632 463 658 501 649 b 609 562 564 615 589 591 b 652 457 628 532 643 497 b 665 332 661 418 665 376 m 547 319 b 540 409 547 350 545 380 b 516 487 535 438 527 464 b 469 541 504 510 489 528 b 397 562 450 555 426 562 b 354 555 382 562 368 559 b 311 535 340 551 326 544 b 266 498 297 525 282 513 b 216 442 250 483 233 464 l 216 199 b 303 113 246 162 276 133 b 390 83 331 93 360 83 b 462 104 418 83 442 90 b 511 158 482 117 499 135 b 538 234 523 181 533 206 b 547 319 544 262 547 290 "},"q":{"ha":730,"x_min":0,"x_max":0,"o":"m 627 -225 b 624 -235 627 -229 626 -232 b 614 -241 622 -237 618 -240 b 597 -245 610 -243 605 -245 b 570 -247 590 -246 581 -247 b 543 -245 559 -247 550 -246 b 526 -241 536 -245 530 -243 b 516 -235 521 -240 518 -237 b 514 -225 515 -232 514 -229 l 514 87 b 461 40 496 69 478 53 b 412 9 444 27 428 17 b 362 -8 395 1 379 -4 b 311 -13 346 -11 329 -13 b 198 13 267 -13 229 -4 b 122 84 167 31 141 54 b 79 188 102 113 88 148 b 65 315 70 228 65 270 b 82 457 65 367 71 414 b 133 565 93 499 110 535 b 215 634 155 595 183 618 b 329 658 248 650 286 658 b 380 652 347 658 364 656 b 427 634 396 648 411 642 b 474 601 443 625 458 615 b 527 553 490 588 508 572 l 527 627 b 530 637 527 631 528 635 b 538 644 531 640 534 642 b 554 647 543 645 548 647 b 578 648 560 648 568 648 b 601 647 587 648 595 648 b 616 644 607 647 612 645 b 624 637 620 642 623 640 b 627 627 626 635 627 631 l 627 -225 m 514 446 b 426 532 484 484 454 512 b 338 562 398 552 368 562 b 265 541 309 562 285 555 b 217 488 245 528 229 510 b 190 412 204 465 195 440 b 181 327 184 384 181 356 b 188 236 181 296 183 265 b 213 158 193 207 201 181 b 260 103 225 135 240 117 b 333 83 279 90 304 83 b 376 89 348 83 362 85 b 418 109 390 93 404 100 b 464 146 433 119 448 131 b 514 202 480 161 496 180 l 514 446 "},"r":{"ha":484,"x_min":0,"x_max":0,"o":"m 460 587 b 460 562 460 577 460 569 b 457 546 459 555 458 550 b 452 537 456 542 454 539 b 444 534 450 535 447 534 b 430 537 440 534 435 535 b 413 544 425 539 419 542 b 391 549 406 546 399 548 b 364 552 382 551 374 552 b 331 545 353 552 342 550 b 297 523 320 541 309 533 b 259 481 285 512 272 499 b 216 418 246 464 231 443 l 216 17 b 213 8 216 13 215 10 b 204 1 211 5 208 3 b 187 -3 200 0 194 -2 b 159 -4 180 -4 171 -4 b 132 -3 149 -4 139 -4 b 115 1 125 -2 119 0 b 106 8 111 3 108 5 b 104 17 105 10 104 13 l 104 627 b 106 636 104 631 104 634 b 114 643 107 639 110 641 b 130 647 118 645 123 647 b 155 648 136 648 144 648 b 179 647 165 648 173 648 b 195 643 186 647 191 645 b 202 636 198 641 201 639 b 205 627 204 634 205 631 l 205 538 b 252 598 222 563 237 583 b 294 634 267 614 281 626 b 333 653 307 643 320 649 b 372 658 346 656 359 658 b 392 657 378 658 384 657 b 415 653 399 656 407 655 b 437 647 423 651 431 649 b 451 640 444 645 448 642 b 456 634 454 638 456 636 b 459 626 457 632 458 629 b 460 612 459 623 460 618 b 460 587 460 606 460 598 "},"s":{"ha":543,"x_min":0,"x_max":0,"o":"m 487 183 b 470 100 487 152 481 124 b 420 38 458 75 442 55 b 345 0 399 21 374 9 b 248 -13 315 -9 283 -13 b 185 -8 226 -13 205 -11 b 133 5 166 -4 148 0 b 93 21 117 10 104 16 b 69 37 82 27 74 32 b 58 56 64 41 61 47 b 55 89 56 64 55 75 b 56 111 55 97 55 105 b 60 125 57 116 58 121 b 65 133 61 128 63 131 b 74 135 68 134 71 135 b 96 126 79 135 86 132 b 132 106 106 120 118 113 b 182 86 146 99 163 92 b 250 77 202 80 224 77 b 301 83 269 77 286 79 b 341 101 316 87 330 93 b 367 131 352 109 361 119 b 376 174 373 143 376 158 b 363 218 376 191 372 206 b 328 249 354 229 343 240 b 279 273 314 258 297 266 l 223 295 b 167 321 204 303 185 311 b 118 357 149 331 132 343 b 83 407 104 371 92 387 b 70 477 74 426 70 450 b 84 546 70 501 74 524 b 125 603 93 568 107 587 b 195 643 144 620 167 633 b 292 658 223 653 255 658 b 341 654 309 658 325 656 b 385 644 357 651 372 648 b 419 630 398 640 410 635 b 440 618 428 626 435 621 b 449 608 445 614 448 611 b 453 599 451 606 452 603 b 455 587 453 596 454 592 b 456 568 455 582 456 576 b 455 548 456 561 455 554 b 451 534 454 543 453 538 b 446 527 450 531 448 528 b 438 524 443 525 441 524 b 420 532 434 524 428 527 b 391 548 413 537 403 542 b 348 564 378 553 364 559 b 291 571 331 569 312 571 b 241 565 272 571 255 569 b 205 546 226 560 214 554 b 184 518 196 538 189 529 b 177 483 179 507 177 496 b 191 438 177 465 182 450 b 226 407 200 426 211 416 b 275 382 240 398 257 390 l 332 360 b 389 334 351 352 370 344 b 439 300 408 325 424 313 b 474 251 453 286 465 270 b 487 183 483 232 487 209 "},"t":{"ha":465,"x_min":0,"x_max":0,"o":"m 421 62 b 418 31 421 49 420 38 b 410 14 417 23 414 17 b 394 3 407 10 401 7 b 369 -4 387 0 379 -2 b 340 -9 360 -6 350 -8 b 309 -12 329 -11 319 -12 b 227 1 277 -12 250 -7 b 172 39 205 9 186 22 b 140 103 157 56 147 77 b 130 195 133 129 130 160 l 130 552 l 45 552 b 28 563 38 552 33 556 b 22 598 24 570 22 582 b 24 620 22 607 23 614 b 28 634 25 626 27 631 b 36 643 30 638 33 641 b 45 645 39 644 42 645 l 130 645 l 130 790 b 133 799 130 793 131 796 b 141 806 134 802 137 804 b 159 810 146 808 151 810 b 186 812 166 811 175 812 b 214 810 197 812 206 811 b 231 806 221 810 227 808 b 239 799 235 804 238 802 b 242 790 241 796 242 793 l 242 645 l 399 645 b 408 643 402 645 406 644 b 415 634 411 641 413 638 b 420 620 417 631 419 626 b 421 598 421 614 421 607 b 415 563 421 582 419 570 b 399 552 411 556 406 552 l 242 552 l 242 212 b 261 116 242 170 248 138 b 328 84 273 95 295 84 b 355 87 338 84 347 85 b 377 94 363 89 371 91 b 393 100 383 96 389 98 b 406 103 398 102 402 103 b 412 101 408 103 410 103 b 417 95 414 100 416 98 b 420 82 418 92 419 87 b 421 62 421 77 421 70 "},"u":{"ha":730,"x_min":0,"x_max":0,"o":"m 627 17 b 624 8 627 13 626 10 b 616 1 623 5 620 3 b 600 -3 612 0 606 -2 b 576 -4 593 -4 585 -4 b 550 -3 565 -4 557 -4 b 535 1 544 -2 539 0 b 527 8 531 3 528 5 b 525 17 526 10 525 13 l 525 98 b 422 14 490 59 456 31 b 319 -13 388 -4 354 -13 b 216 7 278 -13 244 -6 b 149 63 188 21 166 39 b 112 144 131 86 119 113 b 100 257 104 175 100 213 l 100 627 b 103 636 100 631 101 634 b 112 643 104 639 107 641 b 130 647 116 645 122 647 b 157 648 137 648 146 648 b 184 647 168 648 177 648 b 201 643 191 647 197 645 b 210 636 205 641 208 639 b 213 627 212 634 213 631 l 213 272 b 221 186 213 236 216 208 b 244 131 226 165 234 146 b 285 96 255 116 269 104 b 342 83 301 88 320 83 b 426 113 370 83 398 93 b 514 201 453 133 483 162 l 514 627 b 516 636 514 631 515 634 b 526 643 518 639 521 641 b 543 647 530 645 536 647 b 570 648 550 648 559 648 b 597 647 581 648 590 648 b 614 643 605 647 610 645 b 624 636 618 641 622 639 b 627 627 626 634 627 631 l 627 17 "},"v":{"ha":627,"x_min":0,"x_max":0,"o":"m 604 629 b 604 623 604 627 604 625 b 603 616 604 621 603 619 b 601 609 602 614 602 612 b 599 600 601 606 600 603 l 391 20 b 384 8 389 15 386 11 b 370 1 381 5 376 2 b 348 -3 364 -1 357 -2 b 314 -4 339 -4 328 -4 b 280 -3 300 -4 289 -4 b 258 1 271 -2 264 0 b 245 9 252 3 248 6 b 237 20 242 12 239 16 l 30 600 b 25 614 28 606 27 610 b 23 624 24 618 24 622 b 23 629 23 626 23 627 b 26 638 23 632 24 635 b 35 645 28 641 31 643 b 52 648 39 646 45 647 b 78 648 59 648 68 648 b 110 647 91 648 102 648 b 128 644 117 647 124 645 b 137 637 132 642 135 640 b 143 627 139 634 141 631 l 315 123 l 318 115 l 320 123 l 490 627 b 495 637 491 631 493 634 b 505 644 497 640 501 642 b 523 647 509 645 515 647 b 552 648 530 648 540 648 b 578 648 562 648 571 648 b 594 644 585 647 590 646 b 602 638 598 642 600 640 b 604 629 603 635 604 632 "},"w":{"ha":993,"x_min":0,"x_max":0,"o":"m 958 629 b 956 617 958 625 957 622 b 951 600 955 613 954 607 l 772 20 b 765 8 770 15 768 11 b 753 1 762 5 758 2 b 732 -3 748 -1 741 -2 b 698 -4 723 -4 711 -4 b 663 -3 684 -4 672 -4 b 640 1 653 -2 646 0 b 627 9 634 3 630 6 b 621 20 625 12 623 16 l 493 463 l 492 469 l 490 463 l 372 20 b 365 8 370 15 368 11 b 352 1 362 5 358 2 b 329 -3 346 -1 339 -2 b 295 -4 320 -4 309 -4 b 261 -3 281 -4 270 -4 b 239 1 252 -2 245 0 b 227 9 233 3 229 6 b 220 20 224 12 222 16 l 42 600 b 37 617 40 607 38 613 b 36 629 36 622 36 625 b 39 638 36 633 37 636 b 48 645 40 641 44 643 b 65 648 52 646 58 647 b 92 648 72 648 81 648 b 122 647 104 648 114 648 b 140 644 130 647 136 646 b 149 637 144 642 147 640 b 153 627 150 634 152 631 l 300 123 l 302 117 l 303 123 l 438 627 b 443 637 439 631 440 634 b 452 644 445 640 448 642 b 468 647 456 646 461 647 b 496 648 475 648 484 648 b 523 647 507 648 516 648 b 539 644 530 647 535 646 b 548 637 543 642 546 640 b 552 628 550 635 551 632 l 698 123 l 699 117 l 700 123 l 845 627 b 849 637 846 631 847 634 b 859 644 851 640 855 642 b 877 647 863 646 869 647 b 905 648 884 648 894 648 b 931 648 916 648 925 648 b 947 644 938 647 943 646 b 955 638 951 642 954 640 b 958 629 957 636 958 633 "},"x":{"ha":602,"x_min":0,"x_max":0,"o":"m 566 30 b 572 14 570 24 572 18 b 565 3 572 10 570 6 b 546 -2 561 1 554 -1 b 511 -4 537 -4 525 -4 b 479 -3 498 -4 487 -4 b 460 0 471 -2 465 -1 b 449 6 455 2 452 4 b 443 15 447 9 445 12 l 296 257 l 151 15 b 144 6 149 12 147 9 b 133 0 142 4 138 2 b 115 -3 129 -1 122 -2 b 84 -4 107 -4 97 -4 b 52 -2 71 -4 60 -4 b 34 3 44 -1 37 1 b 28 14 30 6 28 10 b 35 30 28 18 31 24 l 224 328 l 45 614 b 39 630 41 621 39 626 b 45 641 39 635 41 638 b 65 647 49 644 56 646 b 100 648 74 648 85 648 b 131 647 113 648 123 648 b 150 644 139 647 145 646 b 160 639 154 643 158 641 b 166 631 162 637 164 634 l 305 404 l 446 631 b 452 638 448 633 450 636 b 461 644 455 640 458 642 b 478 647 465 646 471 647 b 507 648 485 648 494 648 b 539 647 520 648 530 648 b 557 642 547 646 553 644 b 563 631 562 639 563 636 b 556 614 562 627 560 621 l 378 331 l 566 30 "},"y":{"ha":629,"x_min":0,"x_max":0,"o":"m 300 -224 b 280 -241 298 -232 291 -237 b 229 -247 269 -245 252 -247 b 201 -245 217 -247 208 -246 b 184 -239 194 -244 188 -242 b 178 -229 180 -237 178 -233 b 181 -212 177 -224 178 -219 l 265 0 b 254 9 261 2 257 5 b 246 22 250 13 248 17 l 28 605 b 23 627 25 614 23 622 b 28 640 23 633 25 637 b 46 647 32 643 38 646 b 79 648 54 648 65 648 b 111 647 92 648 103 648 b 129 644 118 647 124 645 b 139 636 133 642 137 639 b 145 622 141 632 143 628 l 319 132 l 321 132 l 490 625 b 499 641 492 633 496 639 b 517 647 503 644 509 646 b 550 648 524 648 536 648 b 581 647 563 648 573 648 b 599 640 589 646 595 643 b 605 627 603 637 605 633 b 601 607 605 622 604 615 l 382 0 "},"z":{"ha":549,"x_min":0,"x_max":0,"o":"m 493 47 b 491 25 493 39 492 32 b 486 11 490 19 488 14 b 479 2 484 7 482 4 b 469 0 476 1 472 0 l 93 0 b 70 9 83 0 76 3 b 60 41 63 16 60 26 l 60 64 b 62 81 60 71 61 76 b 66 96 63 86 64 91 b 73 112 68 101 70 107 b 85 132 76 118 80 124 l 354 551 l 93 551 b 76 562 86 551 80 554 b 69 598 71 569 69 581 b 71 620 69 606 70 613 b 75 634 71 626 73 631 b 82 643 77 638 79 641 b 93 645 85 644 89 645 l 443 645 b 456 643 448 645 452 644 b 466 636 460 642 463 639 b 472 624 469 633 471 629 b 475 605 474 619 475 613 l 475 583 b 473 566 475 577 474 571 b 469 550 472 560 471 555 b 462 533 467 544 465 539 b 450 513 459 527 455 521 l 182 94 l 469 94 b 478 92 472 94 476 93 b 486 84 481 90 484 88 b 491 70 488 80 490 76 b 493 47 492 63 493 56 "},"{":{"ha":437,"x_min":0,"x_max":0,"o":"m 393 -174 b 392 -193 393 -182 393 -188 b 388 -205 391 -198 390 -202 b 380 -212 386 -208 383 -210 b 372 -215 378 -214 375 -215 b 351 -218 364 -217 357 -218 b 329 -218 345 -218 338 -218 b 254 -204 299 -218 274 -214 b 208 -160 235 -194 220 -180 b 185 -88 197 -141 189 -117 b 179 27 181 -59 179 -21 l 179 167 b 173 241 179 198 177 222 b 156 291 169 260 164 277 b 125 326 148 306 138 317 b 80 342 113 335 98 340 b 70 346 76 343 73 344 b 63 353 67 347 65 349 b 60 365 62 356 61 360 b 58 383 59 370 58 376 b 59 401 58 390 59 397 b 63 414 60 406 61 411 b 69 421 64 417 66 420 b 79 425 72 422 75 424 b 154 473 113 428 138 444 b 179 600 171 502 179 544 l 179 709 b 185 824 179 757 181 795 b 209 897 190 853 198 877 b 255 940 221 916 236 931 b 329 955 275 950 299 955 b 350 955 338 955 345 955 b 371 951 356 954 363 953 b 380 949 374 951 377 951 b 388 942 383 948 386 945 b 392 929 390 939 391 935 b 393 911 393 924 393 918 b 392 891 393 903 393 897 b 388 878 391 886 390 882 b 380 871 386 875 383 872 b 370 869 377 869 374 869 l 342 868 b 315 862 332 868 322 866 b 296 840 307 858 301 851 b 285 794 291 829 288 814 b 281 705 283 775 281 745 l 281 606 b 276 521 281 573 280 544 b 257 458 272 498 266 477 b 220 411 247 440 235 424 b 161 383 204 397 185 388 b 220 356 185 379 204 370 b 257 308 235 343 247 327 b 276 245 266 289 272 269 b 281 161 280 222 281 194 l 281 32 b 285 -57 281 -8 283 -38 b 295 -103 287 -76 291 -92 b 314 -125 300 -114 306 -121 b 340 -132 321 -130 330 -132 l 369 -132 b 380 -134 373 -132 377 -133 b 388 -141 383 -136 386 -138 b 392 -154 390 -145 391 -149 b 393 -174 393 -159 393 -166 "},"|":{"ha":640,"x_min":0,"x_max":0,"o":"m 372 -226 b 370 -235 372 -229 372 -233 b 361 -242 368 -238 366 -240 b 345 -246 357 -244 352 -245 b 319 -248 338 -247 330 -248 b 294 -246 309 -248 301 -247 b 278 -242 288 -245 282 -244 b 270 -235 274 -240 271 -238 b 267 -226 268 -233 267 -229 l 267 951 b 270 960 267 955 268 958 b 278 967 271 963 274 965 b 294 971 282 969 288 970 b 319 972 301 972 309 972 b 345 971 330 972 338 972 b 361 967 352 970 357 969 b 370 960 366 965 368 963 b 372 951 372 958 372 955 l 372 -226 "},"}":{"ha":437,"x_min":0,"x_max":0,"o":"m 416 385 b 415 366 416 377 415 371 b 411 354 414 361 413 357 b 405 347 410 351 408 348 b 395 344 402 345 399 344 b 348 324 376 342 361 335 b 317 279 335 312 325 297 b 300 219 309 261 304 241 b 296 136 297 196 296 169 l 296 27 b 289 -87 296 -20 293 -59 b 265 -160 284 -116 276 -141 b 219 -204 254 -179 238 -194 b 146 -218 200 -214 175 -218 b 124 -218 137 -218 130 -218 b 102 -215 118 -217 111 -216 b 93 -212 99 -215 96 -214 b 86 -205 90 -210 88 -208 b 81 -193 84 -202 83 -198 b 79 -174 80 -188 79 -182 b 81 -155 79 -167 80 -160 b 86 -142 83 -150 84 -145 b 94 -134 89 -138 91 -136 b 102 -132 96 -133 99 -132 l 132 -132 b 159 -125 142 -132 152 -130 b 178 -103 167 -121 173 -114 b 189 -58 183 -92 187 -77 b 193 32 191 -38 193 -8 l 193 131 b 198 220 193 164 195 194 b 218 294 202 247 209 271 b 255 352 227 316 239 336 b 313 384 270 368 290 379 b 255 406 290 388 270 396 b 218 443 239 415 227 428 b 198 496 209 458 202 476 b 193 576 195 516 193 542 l 193 705 b 189 794 193 745 191 775 b 179 839 187 813 183 828 b 160 862 174 850 168 858 b 134 868 153 866 144 868 l 106 869 b 94 871 101 869 97 869 b 85 878 91 872 88 874 b 81 891 83 881 82 886 b 79 911 80 896 79 903 b 81 929 79 918 80 924 b 86 942 82 935 84 939 b 93 949 88 945 90 948 b 104 951 96 951 100 951 b 124 955 111 953 118 954 b 146 955 130 955 137 955 b 220 940 176 955 200 950 b 266 897 239 931 255 916 b 289 825 277 878 285 854 b 296 709 294 796 296 757 l 296 570 b 301 500 296 539 298 516 b 319 461 305 485 311 472 b 350 437 327 451 337 443 b 395 425 362 431 377 427 b 404 422 398 425 401 424 b 411 415 407 421 409 418 b 415 402 413 411 414 407 b 416 385 415 398 416 392 "},"~":{"ha":692,"x_min":0,"x_max":0,"o":"m 652 703 b 636 623 651 673 646 646 b 597 565 626 600 613 580 b 542 529 581 549 563 537 b 478 517 521 521 500 517 b 422 525 456 517 438 520 b 380 544 406 529 392 536 b 348 570 368 551 357 560 b 321 601 338 580 329 590 l 297 630 b 273 654 289 639 281 647 b 247 671 265 661 256 667 b 214 677 237 675 227 677 b 175 667 199 677 186 674 b 149 641 165 660 156 652 b 135 604 142 630 138 618 b 130 559 132 590 130 575 b 119 543 130 551 126 545 b 85 539 111 540 100 539 b 63 541 76 539 69 540 b 50 544 58 541 53 543 b 43 551 46 546 44 548 b 41 559 42 553 41 556 l 41 578 b 54 660 41 609 46 636 b 90 720 63 684 75 704 b 145 756 106 736 124 748 b 216 768 167 764 190 768 b 272 761 237 768 256 766 b 314 743 288 756 302 750 b 347 716 326 735 337 726 b 373 686 356 707 365 697 l 396 657 b 420 633 404 648 412 640 b 446 616 428 626 437 621 b 479 610 456 612 467 610 b 518 619 494 610 507 613 b 544 644 528 625 537 633 b 559 682 551 655 556 667 b 564 729 562 696 564 712 b 575 744 564 736 567 741 b 608 747 582 746 593 747 b 629 746 616 747 623 747 b 644 743 635 746 640 744 b 651 736 647 741 650 739 b 652 726 652 733 653 730 l 652 703 "},"":{"ha":452,"x_min":0,"x_max":0,"o":"m 151 549 b 153 558 151 552 151 555 b 161 565 155 561 157 563 b 177 569 166 567 171 568 b 201 570 183 570 191 570 b 225 569 210 570 218 570 b 240 565 231 568 236 567 b 249 558 244 563 247 561 b 251 549 250 555 251 552 l 262 -98 b 260 -112 263 -104 262 -108 b 251 -123 259 -117 255 -120 b 232 -128 246 -125 240 -127 b 201 -130 224 -130 213 -130 b 171 -128 189 -130 179 -129 b 152 -122 163 -127 156 -125 b 142 -112 147 -119 144 -116 b 139 -98 140 -108 139 -104 l 151 549 m 130 731 b 133 768 130 746 131 758 b 144 792 135 778 138 786 b 166 805 150 798 157 802 b 201 808 175 807 187 808 b 236 805 215 808 226 807 b 258 792 245 802 252 798 b 269 768 263 786 267 778 b 272 731 271 758 272 746 b 269 693 272 716 271 704 b 258 670 267 683 263 675 b 236 658 252 664 245 660 b 201 654 226 655 215 654 b 166 658 187 654 175 655 b 144 670 157 660 150 664 b 133 693 138 675 135 683 b 130 731 131 704 130 716 "},"":{"ha":692,"x_min":0,"x_max":0,"o":"m 605 222 b 602 189 605 207 604 196 b 591 170 600 181 596 175 b 570 152 586 164 579 158 b 538 133 561 145 550 139 b 499 116 526 126 513 121 b 453 106 485 112 470 108 l 453 6 b 451 -3 453 3 452 0 b 443 -9 450 -5 447 -8 b 428 -14 439 -11 434 -13 b 404 -15 422 -14 414 -15 b 380 -14 395 -15 387 -14 b 365 -9 374 -13 369 -11 b 357 -3 361 -8 359 -5 b 355 6 356 0 355 3 l 355 104 b 183 200 279 113 222 145 b 125 429 145 255 125 332 b 142 567 125 482 131 528 b 190 668 154 607 170 640 b 262 733 210 696 234 717 b 355 766 290 749 321 760 l 355 865 b 357 874 355 869 355 871 b 365 881 359 877 361 879 b 380 885 369 883 374 884 b 404 886 386 886 394 886 b 428 885 413 886 421 886 b 443 881 434 884 439 883 b 451 874 447 879 450 877 b 453 865 452 871 453 869 l 453 768 b 491 760 466 766 478 764 b 529 746 504 756 517 752 b 563 728 541 741 552 735 b 587 709 573 721 581 715 b 598 696 592 704 596 700 b 603 686 600 693 602 690 b 606 671 604 682 605 677 b 606 652 606 666 606 659 b 605 634 606 645 606 639 b 602 618 605 628 603 623 b 594 608 600 614 597 610 b 583 604 591 605 587 604 b 560 615 576 604 568 607 b 527 640 551 623 541 631 b 478 665 514 649 498 657 b 408 676 459 672 436 676 b 343 663 385 676 363 672 b 291 622 323 655 306 641 b 255 547 275 602 263 577 b 241 435 246 516 241 479 b 255 326 241 392 246 356 b 292 252 263 296 276 271 b 348 211 307 233 326 220 b 418 198 369 202 392 198 b 484 210 443 198 465 202 b 532 236 503 218 519 227 b 566 263 545 246 557 255 b 587 275 575 271 582 275 b 596 272 591 275 594 274 b 601 261 598 269 600 266 b 604 244 603 256 604 250 b 605 222 605 237 605 230 "},"":{"ha":704,"x_min":0,"x_max":0,"o":"m 644 47 b 642 25 644 38 644 31 b 637 11 641 19 639 14 b 629 3 635 7 632 5 b 621 0 626 1 623 0 l 81 0 b 72 3 78 0 75 1 b 64 11 69 5 67 7 b 58 25 62 14 60 19 b 56 47 57 31 56 38 b 58 68 56 55 57 62 b 63 83 59 74 61 79 b 71 92 65 87 68 90 b 81 94 74 93 77 94 l 164 94 l 164 402 l 81 402 b 72 405 78 402 75 403 b 64 412 69 406 67 409 b 58 426 62 416 60 421 b 56 448 57 432 56 439 b 58 469 56 456 57 463 b 63 483 59 474 61 479 b 71 491 65 487 68 490 b 81 494 74 493 77 494 l 164 494 l 164 575 b 183 718 164 631 170 678 b 237 816 196 758 214 791 b 321 871 260 841 288 860 b 432 888 354 883 391 888 b 488 883 451 888 470 887 b 539 869 506 880 523 875 b 581 849 554 864 568 857 b 609 829 593 841 603 835 b 621 814 615 823 619 818 b 627 802 623 811 625 807 b 629 787 628 798 629 793 b 630 767 630 782 630 775 b 629 747 630 759 630 753 b 625 732 628 741 626 736 b 618 723 623 728 621 725 b 610 720 616 721 613 720 b 587 732 603 720 596 724 b 553 757 578 739 567 748 b 504 782 540 766 523 774 b 435 793 485 790 462 793 b 365 780 408 793 385 789 b 317 739 346 770 329 757 b 288 671 304 720 295 698 b 279 579 282 645 279 614 l 279 494 l 501 494 b 511 491 505 494 508 493 b 518 483 514 490 516 487 b 523 469 520 479 522 474 b 525 448 524 463 525 456 b 523 426 525 439 524 432 b 517 412 522 421 520 416 b 510 405 515 409 513 406 b 501 402 507 403 504 402 l 279 402 l 279 94 l 621 94 b 630 92 624 94 627 93 b 637 83 633 90 635 87 b 643 68 640 79 641 74 b 644 47 644 62 644 55 "},"":{"ha":692,"x_min":0,"x_max":0,"o":"m 541 582 b 584 503 560 560 574 533 b 598 400 593 472 598 438 b 581 295 598 363 592 328 b 530 210 569 263 552 235 l 628 68 b 637 48 633 61 636 54 b 634 35 638 43 637 38 b 619 27 631 32 626 29 b 589 24 611 25 602 24 b 562 25 578 24 569 25 b 543 28 554 26 548 27 b 531 33 538 29 534 31 b 524 42 528 35 526 38 l 452 157 b 399 137 436 149 418 142 b 338 130 380 133 359 130 b 281 135 317 130 298 132 b 234 151 264 139 248 144 l 161 35 b 154 26 159 31 157 28 b 142 21 151 24 147 22 b 124 18 137 20 131 19 b 96 18 116 18 107 18 b 66 20 84 18 74 18 b 50 27 59 22 53 24 b 47 41 47 31 46 35 b 57 60 49 46 52 52 l 153 200 b 105 282 132 222 116 249 b 90 389 95 314 90 350 b 106 496 90 429 95 464 b 153 579 117 528 133 556 l 54 723 b 45 743 49 731 46 737 b 47 756 43 749 44 753 b 63 764 51 760 56 762 b 93 766 70 766 80 766 b 120 766 104 766 113 766 b 139 763 128 765 134 764 b 151 758 144 762 148 760 b 159 749 154 756 156 753 l 231 634 b 285 654 247 643 265 649 b 350 661 305 659 326 661 b 411 655 372 661 392 659 b 463 635 430 650 447 644 l 536 751 b 543 760 538 754 540 757 b 554 765 546 762 550 764 b 573 768 559 766 565 767 b 601 769 580 769 590 769 b 631 766 614 769 624 768 b 647 758 638 765 644 762 b 649 745 650 755 650 750 b 640 725 647 739 644 733 l 541 582 m 494 390 b 486 461 494 415 492 439 b 459 521 480 484 471 504 b 413 561 447 538 432 551 b 343 576 393 571 370 576 b 278 563 318 576 296 572 b 231 526 259 554 243 542 b 203 471 218 510 209 492 b 193 401 196 449 193 426 b 202 326 193 373 196 348 b 229 267 207 303 216 283 b 277 229 241 251 257 238 b 348 216 296 220 320 216 b 412 230 372 216 394 220 b 458 267 430 239 446 251 b 485 322 470 283 479 301 b 494 390 491 343 494 366 "},"":{"ha":704,"x_min":0,"x_max":0,"o":"m 410 380 l 597 380 b 612 370 604 380 609 376 b 618 339 616 363 618 353 b 612 306 618 323 616 312 b 597 297 608 300 603 297 l 410 297 l 410 190 l 597 190 b 612 180 604 190 609 187 b 618 149 616 173 618 163 b 612 117 618 134 616 123 b 597 108 608 111 603 108 l 410 108 l 410 16 b 408 7 410 13 409 10 b 398 1 406 5 403 3 b 380 -3 394 -1 387 -2 b 352 -4 372 -4 363 -4 b 324 -3 341 -4 331 -4 b 306 1 316 -2 310 -1 b 296 7 301 3 298 5 b 294 16 295 10 294 13 l 294 108 l 106 108 b 92 117 101 108 96 111 b 86 149 88 123 86 134 b 92 180 86 163 88 173 b 106 190 96 187 101 190 l 294 190 l 294 297 l 106 297 b 92 306 101 297 96 300 b 86 339 88 312 86 323 b 92 370 86 353 88 363 b 106 380 96 376 101 380 l 294 380 l 294 416 l 48 836 b 37 860 42 846 39 853 b 41 873 36 866 37 870 b 60 880 44 877 51 879 b 96 882 69 881 81 882 b 126 881 109 882 119 881 b 146 877 134 880 141 879 b 157 871 151 876 155 873 b 165 861 160 868 163 865 l 267 679 b 312 592 282 650 298 621 l 357 504 l 401 592 b 446 679 415 621 430 650 l 547 861 b 553 871 549 865 551 868 b 563 877 556 873 559 876 b 582 881 568 879 574 880 b 613 882 589 881 600 882 b 647 880 627 882 638 881 b 664 873 655 879 661 877 b 666 860 667 870 668 866 b 656 836 665 853 661 846 l 410 416 "},"":{"ha":692,"x_min":0,"x_max":0,"o":"m 397 515 b 395 506 397 512 397 509 b 387 499 393 503 391 501 b 370 495 382 497 377 495 b 345 494 363 494 355 494 b 319 495 335 494 326 494 b 302 499 312 495 307 497 b 294 506 298 501 296 503 b 292 515 292 509 292 512 l 292 964 b 294 973 292 968 292 970 b 302 980 296 976 298 978 b 319 984 307 982 312 983 b 345 986 326 985 335 986 b 370 984 355 986 363 985 b 387 980 377 983 382 982 b 395 973 391 978 393 976 b 397 964 397 970 397 968 l 397 515 m 397 -244 b 395 -253 397 -247 397 -250 b 387 -260 393 -256 391 -258 b 370 -264 382 -262 377 -263 b 345 -265 363 -265 355 -265 b 319 -264 335 -265 326 -265 b 302 -260 312 -263 307 -262 b 294 -253 298 -258 296 -256 b 292 -244 292 -250 292 -247 l 292 212 b 294 221 292 215 292 218 b 302 228 296 224 298 226 b 319 233 307 230 312 232 b 345 234 326 234 335 234 b 370 233 355 234 363 234 b 387 228 377 232 382 230 b 395 221 391 226 393 224 b 397 212 397 218 397 215 l 397 -244 "},"":{"ha":692,"x_min":0,"x_max":0,"o":"m 616 373 b 608 318 616 354 614 336 b 584 267 602 300 594 283 b 548 223 574 251 562 237 b 500 186 533 209 518 197 b 539 131 518 170 531 152 b 553 60 548 110 553 87 b 535 -24 553 29 547 1 b 485 -86 523 -49 506 -70 b 408 -125 463 -103 438 -116 b 311 -138 378 -133 346 -138 b 245 -131 287 -138 265 -136 b 192 -116 225 -127 207 -122 b 154 -99 177 -111 164 -105 b 134 -85 143 -93 137 -88 b 127 -77 131 -82 129 -79 b 123 -67 126 -74 124 -71 b 121 -54 123 -64 122 -59 b 121 -37 121 -49 121 -43 b 122 -16 121 -28 121 -21 b 126 -1 123 -10 124 -5 b 132 7 127 3 129 6 b 140 9 134 9 137 9 b 162 0 146 9 154 6 b 196 -20 171 -6 182 -12 b 245 -40 210 -27 226 -34 b 316 -49 265 -46 288 -49 b 366 -43 334 -49 350 -47 b 405 -24 381 -39 394 -33 b 430 6 416 -16 424 -6 b 439 50 436 18 439 33 b 433 91 439 65 437 79 b 411 123 428 103 421 113 b 372 150 401 133 388 142 b 315 176 356 159 337 167 l 256 200 b 182 236 229 211 204 223 b 127 280 161 249 142 263 b 92 336 112 296 100 315 b 80 410 84 357 80 382 b 89 465 80 429 83 447 b 113 515 94 483 102 500 b 150 560 123 531 135 546 b 198 595 164 574 180 586 b 158 654 180 613 167 632 b 144 731 149 675 144 701 b 160 806 144 759 150 784 b 205 863 171 828 186 847 b 275 900 225 879 248 891 b 364 912 302 908 332 912 b 415 908 382 912 399 911 b 459 898 431 905 445 902 b 493 883 472 893 484 889 b 512 871 503 878 509 874 b 519 864 515 869 517 866 b 522 855 520 862 521 859 b 525 841 523 851 524 846 b 526 822 525 836 526 829 b 524 802 526 814 525 808 b 521 788 523 796 522 792 b 515 780 519 784 518 782 b 507 778 513 779 510 778 b 491 785 503 778 498 780 b 464 802 484 790 475 796 b 422 818 453 807 439 813 b 363 826 406 823 386 826 b 314 818 344 826 328 823 b 281 798 301 812 290 806 b 263 769 273 789 267 780 b 257 738 259 759 257 748 b 264 694 257 721 259 707 b 286 661 269 682 276 670 b 325 632 296 651 309 641 b 382 606 340 624 359 615 l 441 582 b 514 546 468 571 492 559 b 569 503 536 533 554 519 b 604 446 584 486 596 467 b 616 373 612 425 616 401 m 505 365 b 477 440 505 396 495 421 b 390 492 458 460 429 477 l 333 515 b 302 529 322 520 311 524 b 274 543 292 533 283 538 b 212 490 246 531 225 513 b 192 418 199 467 192 443 b 199 376 192 402 194 388 b 220 342 203 363 210 352 b 256 315 229 333 241 323 b 307 290 270 306 287 298 l 363 267 b 395 254 375 263 385 259 b 422 239 404 249 413 244 b 485 293 451 251 472 269 b 505 365 498 316 505 340 "},"":{"ha":545,"x_min":0,"x_max":0,"o":"m 216 825 b 202 774 216 800 211 784 b 152 761 193 765 176 761 b 102 774 127 761 111 765 b 90 823 94 783 90 799 b 103 875 90 849 94 866 b 153 888 112 884 128 888 b 203 875 177 888 194 884 b 216 825 211 866 216 849 m 456 825 b 442 774 456 800 451 784 b 392 761 433 765 416 761 b 342 774 368 761 351 765 b 330 823 334 783 330 799 b 343 875 330 849 334 866 b 393 888 352 884 368 888 b 443 875 418 888 434 884 b 456 825 451 866 456 849 m 0 645 "},"":{"ha":1159,"x_min":0,"x_max":0,"o":"m 585 66 b 760 97 655 66 713 76 b 871 184 806 118 843 147 b 931 316 899 222 919 265 b 949 478 943 366 949 420 b 930 645 949 541 943 596 b 865 768 917 693 895 734 b 749 844 836 801 797 827 b 574 871 701 862 643 871 b 413 845 512 871 459 862 b 299 767 367 827 329 801 b 232 638 269 733 246 690 b 210 458 217 587 210 526 b 231 287 210 393 217 336 b 297 164 245 238 267 197 b 413 91 327 132 366 107 b 585 66 460 74 518 66 m 1040 486 b 1010 263 1040 400 1030 325 b 921 107 990 200 960 148 b 776 17 882 67 833 36 b 578 -13 718 -3 652 -13 b 377 16 501 -13 434 -3 b 234 103 320 36 272 65 b 148 248 195 142 167 190 b 119 451 128 306 119 374 b 148 671 119 535 129 608 b 236 826 168 733 197 785 b 380 919 274 867 322 898 b 581 949 438 939 505 949 b 785 919 660 949 728 939 b 928 829 843 898 890 868 b 1013 683 966 789 995 741 b 1040 486 1031 626 1040 560 m 768 277 b 767 259 768 270 767 264 b 765 246 767 254 766 250 b 761 236 764 242 762 239 b 752 226 760 233 757 230 b 730 209 748 222 741 216 b 692 189 719 202 706 195 b 643 174 677 183 661 178 b 585 168 625 170 606 168 b 479 187 545 168 510 175 b 401 244 448 200 422 219 b 354 336 381 269 365 300 b 338 463 344 372 338 415 b 358 600 338 515 345 561 b 411 694 371 638 388 669 b 492 749 434 719 461 737 b 593 767 524 761 557 767 b 644 762 611 767 628 765 b 689 749 660 759 675 754 b 726 730 702 743 715 737 b 751 711 738 722 746 716 b 761 700 756 706 760 703 b 765 690 763 697 764 694 b 768 677 766 687 767 682 b 768 661 768 673 768 667 b 767 645 768 655 768 650 b 764 632 766 640 765 636 b 758 623 762 628 760 625 b 749 620 755 621 752 620 b 725 630 741 620 733 623 b 696 651 717 636 708 643 b 654 673 685 659 671 667 b 592 683 638 680 617 683 b 480 628 544 683 506 665 b 441 468 454 591 441 538 b 452 373 441 431 445 400 b 482 306 458 346 469 324 b 531 267 495 288 512 275 b 598 254 550 258 573 254 b 658 264 621 254 641 257 b 701 288 675 271 689 279 b 731 311 713 296 723 304 b 753 321 739 318 746 321 b 759 319 755 321 757 321 b 764 312 761 318 763 316 b 767 298 765 308 766 304 b 768 277 767 292 768 285 "},"":{"ha":559,"x_min":0,"x_max":0,"o":"m 456 437 b 453 431 456 435 455 432 b 446 426 452 429 449 427 b 433 422 443 425 439 423 b 414 421 428 422 421 421 b 392 422 405 421 397 422 b 378 426 386 423 382 425 b 372 431 375 427 373 429 b 370 438 370 433 370 435 l 370 475 l 368 475 b 308 430 351 456 331 441 b 233 414 285 419 260 414 b 169 423 209 414 188 417 b 120 449 150 429 134 438 b 90 491 107 460 97 474 b 79 549 82 508 79 527 b 93 612 79 573 84 594 b 135 656 103 630 117 645 b 202 683 154 668 176 677 b 294 691 229 688 259 691 l 355 691 l 355 719 b 350 757 355 733 353 746 b 334 784 347 768 341 777 b 304 801 327 792 317 797 b 259 806 292 805 277 806 b 210 800 241 806 225 804 b 171 786 195 796 182 791 b 143 771 160 780 151 776 b 127 765 135 767 130 765 b 110 777 120 765 114 769 b 104 810 106 785 104 796 b 105 824 104 815 104 820 b 109 835 105 829 107 832 b 116 843 110 838 113 840 b 141 857 119 846 127 850 b 196 876 154 863 172 869 b 275 886 220 883 246 886 b 359 875 308 886 336 883 b 415 842 382 867 400 856 b 446 790 429 828 439 811 b 456 722 452 770 456 748 l 456 437 m 460 276 b 455 243 460 261 459 250 b 437 234 451 237 445 234 l 101 234 b 83 243 93 234 87 237 b 77 276 79 250 77 261 b 83 309 77 292 79 303 b 101 319 87 316 93 319 l 437 319 b 455 309 445 319 451 316 b 460 276 459 303 460 292 m 296 626 b 244 621 276 626 259 624 b 209 607 230 618 218 613 b 189 584 200 601 193 593 b 182 553 185 575 182 565 b 202 505 182 533 189 517 b 254 488 215 494 232 488 b 282 492 264 488 273 489 b 306 502 290 494 298 497 b 329 518 314 506 321 511 b 355 543 337 525 346 533 l 355 626 "},"":{"ha":711,"x_min":0,"x_max":0,"o":"m 589 109 b 593 98 592 105 593 101 b 588 90 593 94 592 92 b 573 84 585 87 580 86 b 545 83 566 83 557 83 b 520 83 535 83 526 83 b 505 85 514 83 509 84 b 495 90 500 87 497 88 b 488 99 493 92 490 95 l 339 327 b 330 354 333 336 330 346 b 340 382 330 363 333 373 l 485 606 b 492 614 487 609 490 612 b 502 620 494 617 498 618 b 517 622 506 621 511 622 b 542 623 524 622 532 623 b 569 621 553 623 562 622 b 585 615 576 620 582 618 b 590 607 588 613 590 610 b 587 595 591 603 589 599 l 441 354 l 589 109 m 336 100 b 341 87 339 95 341 91 b 337 77 341 83 340 80 b 322 71 334 74 329 72 b 294 68 315 69 306 68 b 270 69 284 68 276 69 b 255 72 264 70 259 71 b 245 77 251 73 248 75 b 238 86 243 80 240 83 l 88 326 b 79 355 82 336 79 346 b 90 383 79 364 83 373 l 237 618 b 244 627 239 622 241 625 b 254 633 246 630 250 631 b 269 635 258 634 263 635 b 293 636 275 636 283 636 b 320 634 304 636 313 635 b 335 628 327 633 332 631 b 340 618 338 625 340 622 b 336 606 340 615 338 611 l 192 353 "},"":{"ha":692,"x_min":0,"x_max":0,"o":"m 625 218 b 623 208 625 214 624 211 b 614 200 621 205 618 202 b 599 196 610 198 605 197 b 575 195 592 195 585 195 b 553 196 566 195 559 195 b 537 200 546 197 541 198 b 528 208 533 202 530 205 b 526 218 526 211 526 214 l 526 340 l 65 340 b 55 343 61 340 58 341 b 48 352 52 345 50 348 b 43 367 46 355 44 360 b 41 389 42 373 41 380 b 43 410 41 397 42 404 b 48 425 45 416 46 421 b 56 433 51 429 53 432 b 66 436 59 435 62 436 l 577 436 b 614 427 595 436 607 433 b 625 391 622 420 625 408 l 625 218 "},"":{"ha":704,"x_min":0,"x_max":0,"o":"m 617 692 b 596 588 617 655 610 620 b 540 504 583 555 564 527 b 455 447 516 480 488 461 b 351 427 422 433 388 427 b 244 447 312 427 277 433 b 161 502 212 460 184 478 b 106 585 138 525 120 552 b 87 690 93 617 87 652 b 107 794 87 727 94 762 b 164 878 121 826 140 854 b 249 934 188 902 216 920 b 353 954 281 947 316 954 b 459 935 392 954 427 948 b 543 880 492 921 520 903 b 597 797 566 857 584 829 b 617 692 611 765 617 730 m 556 688 b 541 775 556 720 551 749 b 498 843 531 801 517 824 b 434 886 480 861 459 876 b 353 901 409 896 382 901 b 269 884 322 901 294 895 b 204 840 244 873 222 859 b 162 773 186 821 172 799 b 148 693 153 748 148 722 b 163 606 148 661 153 633 b 205 539 173 580 187 558 b 270 495 224 520 245 506 b 351 480 295 485 322 480 b 435 497 382 480 410 486 b 500 542 461 508 482 523 b 542 607 518 560 532 582 b 556 688 551 632 556 659 m 476 564 b 475 558 476 562 476 560 b 470 555 474 557 473 556 b 458 553 467 554 463 554 b 438 553 453 553 447 553 b 419 553 430 553 424 553 b 408 556 415 554 411 555 b 401 561 405 557 403 558 b 397 569 400 563 398 565 l 383 616 b 364 651 378 633 371 644 b 330 661 356 657 345 661 l 312 661 l 312 566 b 306 555 312 561 310 557 b 279 553 302 554 293 553 b 252 555 265 553 256 554 b 245 566 247 557 245 561 l 245 809 b 252 832 245 819 247 827 b 275 841 257 838 265 841 l 353 841 b 400 836 371 841 387 839 b 436 821 414 833 426 828 b 458 796 445 814 453 806 b 465 760 463 786 465 774 b 448 709 465 738 459 721 b 400 684 436 697 420 689 b 431 665 411 680 421 674 b 455 627 440 657 448 644 l 471 583 b 476 564 474 573 476 566 m 392 751 b 390 766 392 756 391 761 b 382 778 389 770 386 774 b 367 785 378 781 373 784 b 343 788 361 787 353 788 l 312 788 l 312 712 l 342 712 b 381 723 361 712 374 716 b 392 751 388 730 392 740 "},"":{"ha":547,"x_min":0,"x_max":0,"o":"m 437 877 b 446 874 440 877 444 876 b 453 867 449 873 451 870 b 457 853 454 864 456 859 b 458 833 458 848 458 841 b 457 813 458 825 458 819 b 453 800 456 808 454 804 b 446 792 451 797 449 794 b 437 789 444 790 440 789 l 112 789 b 102 792 108 789 105 790 b 95 800 99 794 97 797 b 91 813 93 804 92 808 b 90 833 90 819 90 825 b 91 853 90 841 90 848 b 95 867 92 859 93 864 b 102 874 97 870 99 873 b 112 877 105 876 108 877 l 437 877 m 0 645 "},"":{"ha":471,"x_min":0,"x_max":0,"o":"m 401 768 b 388 706 401 746 397 725 b 353 655 380 687 368 669 b 299 621 338 640 320 629 b 233 608 279 612 257 608 b 167 620 209 608 187 612 b 116 651 148 627 130 637 b 82 700 101 665 90 681 b 70 763 74 719 70 740 b 83 827 70 786 74 807 b 118 878 91 847 103 864 b 172 911 133 892 151 903 b 238 923 192 919 214 923 b 303 911 262 923 283 919 b 355 880 323 904 340 893 b 389 831 369 867 380 850 b 401 768 397 812 401 791 m 315 766 b 309 800 315 778 313 789 b 292 827 305 811 300 820 b 267 845 285 835 276 841 b 234 852 257 850 246 852 b 202 845 223 852 212 850 b 177 827 193 841 184 835 b 160 800 170 820 164 811 b 154 767 156 790 154 779 b 160 731 154 754 156 742 b 177 703 164 720 170 711 b 204 685 185 696 194 690 b 237 679 214 681 225 679 b 268 686 248 679 258 681 b 293 704 277 690 286 696 b 309 732 300 712 305 721 b 315 766 313 742 315 753 m 0 878 "},"":{"ha":692,"x_min":0,"x_max":0,"o":"m 640 488 b 633 452 640 472 638 459 b 615 440 628 444 622 440 l 395 440 l 395 196 b 392 188 395 193 394 190 b 384 181 390 185 387 183 b 369 177 380 179 375 178 b 346 175 362 176 355 175 b 323 177 337 175 329 176 b 308 181 316 178 311 179 b 299 188 304 183 301 185 b 296 196 297 190 296 193 l 296 440 l 77 440 b 59 452 70 440 64 444 b 52 488 54 459 52 472 b 53 510 52 496 52 504 b 58 524 54 516 56 521 b 66 532 61 528 63 531 b 76 535 69 534 72 535 l 296 535 l 296 781 b 299 789 296 784 297 787 b 308 797 301 792 304 794 b 323 801 311 799 316 800 b 346 803 329 802 337 803 b 369 801 355 803 362 802 b 384 797 375 800 380 799 b 392 789 387 794 390 792 b 395 781 394 787 395 784 l 395 535 l 616 535 b 625 532 619 535 622 534 b 633 524 628 531 631 528 b 638 510 636 521 637 516 b 640 488 640 504 640 496 m 636 47 b 634 25 636 38 635 31 b 628 10 633 19 631 14 b 621 2 626 6 623 3 b 612 0 618 1 615 0 l 82 0 b 73 2 79 0 76 1 b 65 10 70 3 67 6 b 59 25 63 14 61 19 b 57 47 58 31 57 38 b 59 70 57 57 58 64 b 64 84 60 76 62 81 b 72 93 66 88 69 91 b 81 96 75 95 78 96 l 612 96 b 622 93 616 96 619 95 b 629 84 625 91 627 88 b 634 70 632 81 633 76 b 636 47 636 64 636 57 "},"":{"ha":467,"x_min":0,"x_max":0,"o":"m 417 529 b 413 499 417 516 416 506 b 399 489 410 492 406 489 l 81 489 b 67 490 76 489 71 489 b 58 496 64 491 60 493 b 53 507 55 498 54 502 b 51 526 51 512 51 519 b 52 545 51 533 51 540 b 56 558 53 550 54 554 b 63 571 57 563 60 567 b 74 584 66 575 69 579 l 178 686 b 232 745 200 707 218 727 b 264 793 246 762 257 778 b 279 833 272 807 277 821 b 283 867 282 845 283 857 b 261 920 283 889 276 906 b 199 940 247 933 226 940 b 154 933 183 940 168 938 b 119 919 141 929 129 924 b 93 905 109 914 100 909 b 77 898 86 900 80 898 b 71 900 75 898 73 899 b 66 907 69 901 67 904 b 63 920 64 910 63 915 b 62 939 62 925 62 931 b 64 963 62 949 62 957 b 72 978 65 969 68 974 b 92 992 76 982 83 987 b 126 1008 102 998 113 1003 b 171 1020 140 1013 155 1017 b 222 1025 187 1023 204 1025 b 297 1014 251 1025 276 1021 b 351 984 319 1007 337 997 b 382 939 365 971 375 956 b 393 882 389 921 393 902 b 388 834 393 866 391 850 b 368 782 385 819 379 801 b 323 718 358 763 343 742 b 244 637 303 695 277 668 l 172 568 l 399 568 b 412 558 404 568 409 565 b 417 529 415 551 417 542 "},"":{"ha":465,"x_min":0,"x_max":0,"o":"m 408 640 b 393 572 408 615 403 592 b 352 522 383 552 369 536 b 286 491 334 509 312 498 b 199 480 260 484 231 480 b 142 484 178 480 159 481 b 97 494 125 487 110 490 b 68 506 85 498 75 502 b 54 514 61 509 56 512 b 50 520 52 515 51 517 b 46 529 48 522 47 525 b 45 542 46 532 45 536 b 44 562 44 547 44 553 b 47 586 44 571 45 580 b 59 595 50 592 54 595 b 74 589 62 595 67 593 b 102 576 81 585 90 581 b 141 564 113 572 126 568 b 192 558 157 560 173 558 b 271 578 226 558 253 565 b 299 636 290 592 299 611 b 291 672 299 649 296 661 b 266 699 286 682 277 691 b 225 715 255 706 241 711 b 168 720 209 718 190 720 l 119 720 b 111 722 116 720 113 721 b 105 729 108 724 106 726 b 101 741 103 732 102 736 b 100 760 100 746 100 752 b 101 776 100 766 100 771 b 105 787 102 780 103 784 b 111 793 106 789 108 791 b 119 795 113 794 116 795 l 165 795 b 252 817 203 795 232 802 b 281 880 271 832 281 853 b 261 929 281 900 275 917 b 199 947 248 941 227 947 b 154 941 183 947 168 945 b 116 927 139 937 127 932 b 88 912 105 922 95 917 b 73 906 80 908 75 906 b 62 914 68 906 64 909 b 59 942 60 920 59 929 b 60 957 59 948 59 953 b 61 967 60 961 61 964 b 64 975 62 970 63 973 b 70 982 65 977 67 979 b 89 994 73 985 79 989 b 124 1008 99 999 110 1004 b 168 1020 137 1013 152 1017 b 218 1025 184 1023 201 1025 b 292 1015 246 1025 271 1022 b 344 988 313 1009 330 1000 b 375 946 358 976 368 962 b 385 893 381 930 385 913 b 358 810 385 861 376 833 b 279 766 340 788 314 773 l 279 764 b 330 752 297 763 314 759 b 371 726 346 746 359 737 b 398 688 383 715 392 702 b 408 640 404 673 408 657 "},"":{"ha":406,"x_min":0,"x_max":0,"o":"m 194 926 b 203 938 197 931 200 935 b 217 945 207 941 211 944 b 236 949 222 947 228 949 b 264 951 244 950 253 951 b 295 948 276 951 287 950 b 311 942 303 947 308 945 b 315 931 314 939 316 935 b 309 920 315 928 313 924 l 186 762 b 177 751 183 757 180 753 b 166 744 174 748 170 746 b 152 741 163 743 158 742 b 129 740 145 740 138 740 b 105 742 119 740 111 741 b 93 747 99 743 95 745 b 90 756 90 750 89 753 b 96 769 91 760 92 764 l 194 926 m 0 645 "},"":{"ha":764,"x_min":0,"x_max":0,"o":"m 749 52 b 746 20 749 38 748 27 b 739 5 745 12 742 7 b 727 -2 736 2 732 0 b 709 -7 723 -4 717 -6 b 687 -11 702 -9 695 -10 b 663 -12 680 -12 672 -12 b 572 13 625 -12 594 -4 b 527 96 549 29 534 57 b 429 15 494 58 461 31 b 332 -10 396 -2 364 -10 b 261 1 306 -10 282 -7 b 209 38 240 8 223 20 b 211 6 210 28 211 17 b 214 -30 212 -6 213 -18 b 215 -65 215 -41 215 -53 b 216 -98 216 -77 216 -88 l 216 -225 b 213 -235 216 -229 215 -232 b 204 -241 211 -237 208 -240 b 187 -245 200 -243 194 -245 b 159 -247 180 -246 171 -247 b 132 -245 149 -247 139 -246 b 115 -241 125 -245 119 -243 b 106 -235 111 -240 108 -237 b 104 -225 105 -232 104 -229 l 104 627 b 106 636 104 631 105 634 b 115 643 108 639 111 641 b 132 647 119 645 125 647 b 159 648 139 648 149 648 b 187 647 171 648 180 648 b 204 643 194 647 200 645 b 213 636 208 641 211 639 b 216 627 215 634 216 631 l 216 243 b 249 126 216 193 227 154 b 345 84 271 98 303 84 b 429 114 373 84 401 94 b 517 201 457 133 486 162 l 517 627 b 520 636 517 631 518 634 b 529 643 522 639 525 641 b 546 647 533 645 539 647 b 574 648 553 648 562 648 b 601 647 585 648 594 648 b 618 643 608 647 614 645 b 627 636 622 641 625 639 b 629 627 628 634 629 631 l 629 184 b 632 137 629 165 630 150 b 641 106 634 124 637 113 b 657 89 645 98 650 92 b 684 83 664 85 673 83 b 703 85 692 83 698 84 b 717 87 709 86 713 87 b 727 90 721 88 724 89 b 736 92 730 91 733 92 b 742 90 738 92 740 91 b 746 84 743 89 745 87 b 748 72 747 81 748 77 b 749 52 748 67 749 60 "},"":{"ha":814,"x_min":0,"x_max":0,"o":"m 693 -139 b 691 -148 693 -142 692 -145 b 683 -153 689 -150 687 -152 b 668 -157 679 -155 674 -156 b 644 -159 662 -158 654 -159 b 621 -157 635 -159 628 -158 b 606 -153 615 -156 610 -155 b 598 -148 602 -152 600 -150 b 596 -139 597 -145 596 -142 l 596 790 l 462 790 l 462 -139 b 459 -148 462 -142 461 -145 b 451 -153 457 -150 455 -152 b 437 -157 448 -155 443 -156 b 413 -159 430 -158 422 -159 b 374 -153 394 -159 381 -157 b 364 -139 368 -150 364 -145 l 364 361 b 240 379 318 361 276 367 b 149 429 204 390 173 407 b 92 509 124 451 105 478 b 73 616 79 540 73 576 b 92 720 73 654 79 688 b 149 802 105 751 124 779 b 241 858 173 826 204 844 b 381 878 278 871 325 878 l 654 878 b 684 866 668 878 677 874 b 693 837 690 858 693 849 l 693 -139 "},"":{"ha":351,"x_min":0,"x_max":0,"o":"m 248 396 b 232 332 248 364 243 343 b 174 316 222 321 202 316 b 118 332 147 316 128 321 b 102 394 108 342 102 363 b 118 458 102 426 108 447 b 176 474 129 469 148 474 b 233 458 203 474 222 469 b 248 396 243 448 248 427 "},"":{"ha":427,"x_min":0,"x_max":0,"o":"m 311 -50 b 331 -101 320 -71 327 -87 b 338 -138 336 -114 338 -127 b 328 -184 338 -156 335 -171 b 301 -219 322 -198 313 -209 b 259 -240 289 -228 275 -235 b 204 -248 243 -245 224 -248 b 160 -244 189 -248 174 -247 b 123 -238 145 -242 133 -240 b 102 -232 113 -236 106 -234 b 94 -225 98 -230 96 -228 b 91 -215 92 -222 91 -219 b 90 -199 90 -211 90 -205 b 94 -171 90 -185 91 -175 b 109 -163 97 -166 102 -163 l 193 -163 b 227 -154 207 -163 218 -160 b 239 -127 235 -148 239 -139 b 235 -105 239 -121 237 -114 b 224 -77 232 -96 228 -87 l 189 0 l 288 0 l 311 -50 "},"":{"ha":342,"x_min":0,"x_max":0,"o":"m 253 501 b 250 493 253 498 252 495 b 241 489 248 491 245 490 b 226 486 237 487 232 487 b 203 485 220 485 212 485 b 181 486 194 485 187 485 b 167 488 175 486 170 487 b 159 493 163 490 161 491 b 157 501 157 495 157 498 l 157 927 l 56 873 b 40 867 49 870 44 868 b 31 870 36 867 33 868 b 25 881 28 872 27 876 b 24 900 24 886 24 892 b 24 916 24 906 24 912 b 27 927 25 921 26 924 b 32 935 28 930 30 933 b 39 942 34 937 36 940 l 165 1017 b 171 1019 167 1018 169 1018 b 180 1021 174 1020 177 1021 b 193 1022 183 1022 188 1022 b 211 1023 198 1023 204 1023 b 233 1022 220 1023 227 1022 b 246 1019 239 1021 243 1020 b 252 1016 249 1018 251 1017 b 253 1010 253 1014 253 1012 l 253 501 "},"":{"ha":587,"x_min":0,"x_max":0,"o":"m 516 654 b 501 556 516 619 511 586 b 458 480 491 527 477 502 b 388 431 439 459 416 443 b 292 414 360 420 328 414 b 192 430 253 414 220 419 b 122 476 163 440 140 456 b 81 550 103 496 90 520 b 68 650 72 579 68 612 b 82 746 68 685 73 717 b 124 822 92 775 106 801 b 195 871 143 843 167 859 b 296 888 224 883 257 888 b 391 872 332 888 364 883 b 460 825 419 861 442 845 b 502 751 478 805 492 780 b 516 654 511 722 516 690 m 491 276 b 485 243 491 261 489 250 b 467 234 481 237 475 234 l 116 234 b 98 243 108 234 102 237 b 92 276 94 250 92 261 b 98 309 92 292 94 303 b 116 319 102 316 108 319 l 467 319 b 485 309 475 319 481 316 b 491 276 489 303 491 292 m 407 650 b 401 709 407 670 405 690 b 382 759 397 728 391 744 b 347 792 373 773 362 784 b 292 805 332 801 314 805 b 240 794 272 805 255 801 b 204 763 226 786 214 776 b 184 714 195 749 188 733 b 177 652 179 696 177 675 b 182 591 177 630 179 610 b 201 542 186 572 192 556 b 237 510 210 528 222 518 b 292 498 252 502 270 498 b 341 507 310 498 327 501 b 377 535 356 513 368 522 b 399 582 387 547 394 563 b 407 650 404 601 407 624 "},"":{"ha":711,"x_min":0,"x_max":0,"o":"m 474 86 b 467 77 472 83 469 80 b 457 72 464 75 461 73 b 442 69 454 71 448 70 b 418 68 436 69 428 68 b 391 71 406 68 397 69 b 375 77 384 72 379 74 b 371 86 372 79 370 83 b 375 98 371 90 372 94 l 519 352 l 374 605 b 370 617 372 609 370 614 b 374 628 370 621 371 625 b 389 634 378 631 382 633 b 416 636 396 635 405 636 b 440 635 426 636 434 636 b 456 633 447 635 452 634 b 465 627 460 631 463 630 b 473 618 467 625 470 622 l 622 379 b 631 350 628 369 631 359 b 621 321 631 341 628 331 l 474 86 m 226 99 b 219 90 224 95 221 92 b 210 85 217 88 214 86 b 194 83 205 84 200 83 b 169 82 188 82 179 82 b 141 84 157 82 148 83 b 125 89 134 85 129 87 b 120 98 122 92 120 95 b 125 110 120 101 122 105 l 271 351 l 121 595 b 117 607 119 600 117 604 b 122 615 117 610 119 613 b 138 621 126 617 131 619 b 166 623 145 622 154 623 b 191 622 176 623 184 622 b 207 619 197 621 203 621 b 216 614 210 618 214 616 b 223 606 218 612 221 609 l 372 378 b 381 350 378 368 381 359 b 371 322 381 341 378 332 l 226 99 "},"":{"ha":884,"x_min":0,"x_max":0,"o":"m 833 125 b 829 98 833 113 831 104 b 817 88 826 91 822 88 l 766 88 l 766 12 b 764 5 766 9 766 7 b 756 0 762 3 760 1 b 742 -3 753 -1 748 -2 b 719 -4 735 -4 728 -4 b 697 -3 710 -4 703 -4 b 683 0 691 -2 687 -1 b 675 5 679 1 677 3 b 673 12 674 7 673 9 l 673 88 l 479 88 b 469 90 475 88 472 89 b 463 95 467 90 464 92 b 459 107 461 98 460 102 b 458 128 458 113 458 120 b 458 146 458 135 458 142 b 460 160 458 151 459 156 b 464 172 461 164 462 168 b 470 184 465 175 467 179 l 630 429 b 637 434 631 431 634 433 b 649 439 640 436 644 437 b 669 442 655 440 661 441 b 697 443 677 443 686 443 b 729 442 710 443 721 443 b 751 439 738 441 745 440 b 763 434 757 437 761 436 b 766 427 765 432 766 430 l 766 159 l 817 159 b 828 151 822 159 825 156 b 833 125 831 146 833 137 m 671 363 l 536 159 l 673 159 l 673 363 m 168 -5 b 159 -15 165 -9 163 -13 b 148 -20 156 -17 152 -18 b 132 -23 143 -22 138 -23 b 109 -24 125 -24 118 -24 b 84 -22 99 -24 91 -24 b 72 -15 78 -20 74 -18 b 69 -4 69 -12 68 -8 b 75 11 70 1 72 5 l 686 885 b 694 894 688 889 691 892 b 706 900 697 897 701 899 b 722 903 710 901 716 902 b 745 904 728 904 736 904 b 769 902 755 904 763 903 b 782 895 775 900 779 898 b 785 883 785 891 786 887 b 779 869 784 878 782 874 l 168 -5 m 275 450 b 273 443 275 448 274 445 b 264 438 271 441 268 439 b 249 435 260 437 255 436 b 226 435 243 435 235 435 b 204 435 217 435 210 435 b 189 438 198 436 193 437 b 181 443 185 439 182 441 b 178 450 179 445 178 448 l 178 792 l 77 739 b 62 733 71 736 66 734 b 52 735 58 733 54 733 b 47 745 50 738 48 741 b 46 764 47 750 46 756 b 46 780 46 769 46 775 b 49 792 47 784 47 788 b 54 801 50 796 52 799 b 61 807 56 803 58 805 l 188 882 b 194 883 190 882 192 883 b 201 884 196 883 198 884 b 213 885 204 884 208 884 b 231 885 217 885 223 885 b 253 884 240 885 248 885 b 267 882 259 884 263 883 b 274 879 270 881 273 880 b 275 874 275 878 275 876 l 275 450 "},"":{"ha":932,"x_min":0,"x_max":0,"o":"m 275 450 b 273 443 275 448 274 445 b 264 438 271 441 268 439 b 249 435 260 437 255 436 b 226 435 243 435 235 435 b 204 435 217 435 210 435 b 189 438 198 436 193 437 b 181 443 185 439 182 441 b 178 450 179 445 178 448 l 178 792 l 77 739 b 62 733 71 736 66 734 b 52 735 58 733 54 733 b 47 745 50 738 48 741 b 46 764 47 750 46 756 b 46 780 46 769 46 775 b 49 792 47 784 47 788 b 54 801 50 796 52 799 b 61 807 56 803 58 805 l 188 882 b 194 883 190 882 192 883 b 201 884 196 883 198 884 b 213 885 204 884 208 884 b 231 885 217 885 223 885 b 253 884 240 885 248 885 b 267 882 259 884 263 883 b 274 879 270 881 273 880 b 275 874 275 878 275 876 l 275 450 m 871 36 b 866 8 871 23 869 14 b 855 0 863 3 860 0 l 575 0 b 562 1 570 0 565 0 b 553 7 558 2 556 4 b 548 18 551 9 549 13 b 547 39 547 23 547 30 b 547 56 547 45 547 51 b 550 69 548 61 549 65 b 556 80 551 73 553 77 b 567 92 558 84 562 87 l 657 174 b 699 216 674 190 688 204 b 726 249 710 227 720 238 b 741 279 733 259 738 269 b 745 311 744 289 745 300 b 727 355 745 329 739 343 b 677 372 715 366 698 372 b 636 366 662 372 648 370 b 605 354 624 363 614 359 b 583 342 596 350 589 346 b 570 337 577 339 573 337 b 564 339 568 337 566 338 b 560 346 562 340 561 343 b 557 358 559 349 558 353 b 556 377 556 363 556 369 b 558 397 556 386 557 393 b 564 410 559 402 561 406 b 582 422 567 413 573 417 b 613 435 591 426 601 431 b 653 445 625 439 639 442 b 699 449 668 448 683 449 b 765 440 725 449 747 446 b 812 414 784 434 800 425 b 841 374 825 402 834 389 b 850 323 847 358 850 341 b 844 279 850 308 848 293 b 824 235 840 265 834 250 b 786 186 815 220 802 204 b 724 130 769 169 748 150 l 659 75 l 852 75 b 866 65 859 75 863 72 b 871 36 869 58 871 49 m 168 -5 b 159 -15 165 -9 163 -13 b 148 -20 156 -17 152 -18 b 132 -23 143 -22 138 -23 b 109 -24 125 -24 118 -24 b 84 -22 99 -24 91 -24 b 72 -15 78 -20 74 -18 b 69 -4 69 -12 68 -8 b 75 11 70 1 72 5 l 686 885 b 694 894 688 889 691 892 b 706 900 697 897 701 899 b 722 903 710 901 716 902 b 745 904 728 904 736 904 b 769 902 755 904 763 903 b 782 895 775 900 779 898 b 785 883 785 891 786 887 b 779 869 784 878 782 874 l 168 -5 "},"":{"ha":938,"x_min":0,"x_max":0,"o":"m 376 564 b 362 509 376 544 371 525 b 324 466 353 492 340 478 b 265 438 308 454 288 445 b 189 429 242 432 217 429 b 144 432 173 429 158 430 b 105 439 130 434 117 436 b 75 450 93 443 83 446 b 57 461 67 454 61 458 b 50 475 54 465 52 469 b 48 501 49 481 48 489 b 51 526 48 513 49 522 b 60 532 53 530 56 532 b 75 527 64 532 69 530 b 99 516 82 523 90 520 b 134 505 109 512 120 508 b 182 500 147 502 163 500 b 223 506 198 500 212 502 b 250 520 234 510 243 514 b 266 539 257 525 262 532 b 271 562 269 547 271 555 b 264 590 271 573 269 582 b 245 611 260 598 254 605 b 211 624 236 617 225 621 b 160 629 197 627 180 629 l 115 629 b 107 630 112 629 109 629 b 102 636 105 631 103 633 b 98 647 100 639 99 642 b 97 663 97 651 97 657 b 98 680 97 670 97 676 b 102 690 99 684 100 688 b 107 695 103 693 105 694 b 114 696 109 696 111 696 l 158 696 b 231 714 190 696 215 702 b 256 762 248 725 256 741 b 239 801 256 777 250 791 b 182 817 227 812 208 817 b 145 812 169 817 157 815 b 114 800 133 808 123 804 b 90 788 104 796 96 792 b 76 783 83 785 79 783 b 71 785 74 783 72 784 b 66 790 69 786 67 787 b 63 801 64 793 63 796 b 62 817 62 805 62 810 b 62 829 62 821 62 826 b 63 838 62 832 63 836 b 66 845 64 841 65 843 b 71 851 67 847 69 849 b 87 861 73 853 79 857 b 117 873 95 865 105 869 b 158 883 130 877 143 880 b 207 888 173 886 190 888 b 273 879 232 888 254 885 b 319 856 291 874 307 866 b 347 821 332 846 341 835 b 356 775 353 807 356 792 b 350 739 356 762 354 750 b 331 708 345 727 339 717 b 302 684 323 698 314 690 b 264 669 291 677 278 672 b 312 657 283 667 299 663 b 347 635 326 651 338 644 b 368 603 356 626 363 615 b 376 564 373 591 376 578 m 221 -5 b 213 -15 219 -9 216 -13 b 201 -20 210 -17 206 -18 b 185 -23 197 -22 191 -23 b 162 -24 179 -24 171 -24 b 138 -22 152 -24 144 -24 b 125 -15 132 -20 128 -18 b 122 -4 123 -12 122 -8 b 129 11 123 1 125 5 l 739 885 b 747 894 741 889 744 892 b 759 900 751 897 754 899 b 775 903 764 901 769 902 b 799 904 782 904 789 904 b 822 902 808 904 816 903 b 836 895 828 900 833 898 b 839 883 838 891 839 887 b 832 869 838 878 836 874 l 221 -5 m 887 125 b 883 98 887 113 886 104 b 871 88 880 91 876 88 l 821 88 l 821 12 b 818 5 821 9 820 7 b 810 0 817 3 814 1 b 796 -3 807 -1 802 -2 b 773 -4 790 -4 782 -4 b 751 -3 765 -4 757 -4 b 737 0 746 -2 741 -1 b 729 5 734 1 731 3 b 727 12 728 7 727 9 l 727 88 l 533 88 b 524 90 529 88 526 89 b 517 95 521 90 519 92 b 513 107 516 98 514 102 b 512 128 512 113 512 120 b 512 146 512 135 512 142 b 514 160 513 151 513 156 b 518 172 515 164 516 168 b 524 184 519 175 522 179 l 684 429 b 691 434 686 431 688 433 b 704 439 694 436 698 437 b 723 442 709 440 715 441 b 751 443 731 443 741 443 b 784 442 764 443 775 443 b 805 439 792 441 800 440 b 817 434 811 437 815 436 b 821 427 819 432 821 430 l 821 159 l 871 159 b 883 151 876 159 880 156 b 887 125 886 146 887 137 m 726 363 l 591 159 l 727 159 l 727 363 "},"":{"ha":644,"x_min":0,"x_max":0,"o":"m 64 130 b 81 235 64 169 69 205 b 128 314 92 266 108 292 b 201 365 149 336 173 353 b 296 387 230 377 262 384 l 301 550 b 313 565 301 557 305 562 b 351 570 321 569 334 570 b 376 569 361 570 369 570 b 392 566 383 569 388 568 b 401 560 396 564 399 562 b 404 550 403 557 404 554 l 408 362 b 405 337 408 352 407 343 b 396 320 403 330 400 325 b 380 312 392 316 387 313 b 359 309 374 310 367 309 l 344 309 b 269 295 314 309 289 305 b 218 258 248 286 231 274 b 190 204 205 243 196 225 b 181 139 184 183 181 162 b 192 68 181 113 185 90 b 225 13 199 47 210 28 b 279 -24 239 -3 257 -15 b 357 -37 301 -32 327 -37 b 426 -28 383 -37 406 -34 b 477 -9 445 -22 462 -16 b 512 9 491 -3 503 3 b 533 17 522 14 529 17 b 542 15 536 17 539 16 b 548 7 544 14 546 11 b 552 -8 550 3 551 -2 b 553 -33 553 -15 553 -23 b 551 -58 553 -44 553 -52 b 543 -73 550 -64 547 -69 b 516 -90 538 -77 529 -83 b 470 -109 504 -97 488 -103 b 409 -124 451 -115 431 -120 b 341 -130 387 -128 365 -130 b 216 -109 293 -130 251 -123 b 130 -53 182 -96 153 -77 b 80 29 108 -30 91 -2 b 64 130 69 61 64 94 m 278 731 b 281 768 278 746 279 758 b 292 792 283 778 287 786 b 314 805 298 798 305 802 b 349 808 324 807 335 808 b 384 805 363 808 375 807 b 406 792 393 802 400 798 b 417 768 412 786 415 778 b 420 731 419 758 420 746 b 417 693 420 716 419 704 b 406 670 415 683 412 675 b 384 658 400 664 393 660 b 349 654 375 655 363 654 b 314 658 335 654 324 655 b 292 670 305 660 298 664 b 281 693 287 675 283 683 b 278 731 279 704 278 716 "},"":{"ha":804,"x_min":0,"x_max":0,"o":"m 774 41 b 780 17 777 31 779 23 b 774 3 780 11 778 7 b 756 -3 771 0 765 -2 b 723 -4 748 -4 737 -4 b 689 -3 709 -4 698 -4 b 670 0 681 -2 675 -1 b 661 7 666 2 663 4 b 655 17 659 9 657 13 l 580 231 l 215 231 l 143 20 b 138 9 142 16 140 12 b 128 2 135 6 132 4 b 110 -3 124 0 117 -2 b 79 -4 102 -4 91 -4 b 46 -2 66 -4 55 -4 b 29 4 38 -1 32 1 b 24 18 25 7 24 12 b 30 42 24 24 26 32 l 324 857 b 331 869 326 862 328 866 b 344 877 334 873 339 875 b 366 881 350 879 357 880 b 399 882 375 881 386 882 b 435 881 414 882 426 881 b 458 877 445 880 453 879 b 472 869 464 875 469 872 b 479 857 475 866 478 861 l 774 41 m 395 761 l 244 323 l 549 323 l 396 761 m 436 975 b 444 962 440 970 443 966 b 442 953 445 959 444 956 b 430 948 440 951 436 949 b 405 946 424 947 415 946 b 381 947 395 946 387 946 b 364 950 375 948 369 949 b 351 957 359 952 355 954 b 338 967 347 959 343 963 l 185 1111 b 176 1124 180 1115 177 1120 b 179 1135 175 1128 176 1131 b 196 1142 182 1138 188 1140 b 228 1145 204 1144 214 1145 b 257 1144 239 1145 249 1145 b 277 1141 265 1144 271 1142 b 294 1133 283 1139 289 1136 b 309 1120 299 1130 304 1126 l 436 975 m 86 878 "},"":{"ha":804,"x_min":0,"x_max":0,"o":"m 774 41 b 780 17 777 31 779 23 b 774 3 780 11 778 7 b 756 -3 771 0 765 -2 b 723 -4 748 -4 737 -4 b 689 -3 709 -4 698 -4 b 670 0 681 -2 675 -1 b 661 7 666 2 663 4 b 655 17 659 9 657 13 l 580 231 l 215 231 l 143 20 b 138 9 142 16 140 12 b 128 2 135 6 132 4 b 110 -3 124 0 117 -2 b 79 -4 102 -4 91 -4 b 46 -2 66 -4 55 -4 b 29 4 38 -1 32 1 b 24 18 25 7 24 12 b 30 42 24 24 26 32 l 324 857 b 331 869 326 862 328 866 b 344 877 334 873 339 875 b 366 881 350 879 357 880 b 399 882 375 881 386 882 b 435 881 414 882 426 881 b 458 877 445 880 453 879 b 472 869 464 875 469 872 b 479 857 475 866 478 861 l 774 41 m 395 761 l 244 323 l 549 323 l 396 761 m 477 1120 b 492 1133 482 1126 487 1130 b 508 1141 497 1136 502 1139 b 529 1144 514 1142 521 1144 b 558 1145 537 1145 547 1145 b 590 1142 572 1145 582 1144 b 606 1135 598 1140 603 1138 b 609 1124 609 1131 610 1128 b 602 1111 608 1120 606 1115 l 448 967 b 435 957 443 963 439 959 b 422 950 431 954 427 952 b 405 947 417 949 411 948 b 380 946 398 946 390 946 b 356 948 370 946 362 947 b 344 953 350 949 346 951 b 342 962 342 956 341 959 b 349 975 343 966 345 970 l 477 1120 m 252 878 "},"":{"ha":804,"x_min":0,"x_max":0,"o":"m 774 41 b 780 17 777 31 779 23 b 774 3 780 11 778 7 b 756 -3 771 0 765 -2 b 723 -4 748 -4 737 -4 b 689 -3 709 -4 698 -4 b 670 0 681 -2 675 -1 b 661 7 666 2 663 4 b 655 17 659 9 657 13 l 580 231 l 215 231 l 143 20 b 138 9 142 16 140 12 b 128 2 135 6 132 4 b 110 -3 124 0 117 -2 b 79 -4 102 -4 91 -4 b 46 -2 66 -4 55 -4 b 29 4 38 -1 32 1 b 24 18 25 7 24 12 b 30 42 24 24 26 32 l 324 857 b 331 869 326 862 328 866 b 344 877 334 873 339 875 b 366 881 350 879 357 880 b 399 882 375 881 386 882 b 435 881 414 882 426 881 b 458 877 445 880 453 879 b 472 869 464 875 469 872 b 479 857 475 866 478 861 l 774 41 m 395 761 l 244 323 l 549 323 l 396 761 m 410 1145 b 434 1145 420 1145 428 1145 b 451 1142 440 1144 446 1143 b 463 1136 455 1140 459 1138 b 474 1126 466 1133 470 1130 l 619 972 b 627 960 623 967 626 963 b 624 952 628 957 627 954 b 610 947 621 950 617 948 b 586 946 604 946 596 946 b 553 947 572 946 562 946 b 534 950 545 948 539 949 b 522 955 529 951 525 952 b 514 961 519 957 516 959 l 410 1078 l 302 964 b 291 955 298 961 295 958 b 277 949 287 953 283 951 b 257 947 272 948 265 947 b 227 946 249 946 239 946 b 200 948 215 946 207 947 b 188 952 194 949 190 950 b 185 960 185 955 184 957 b 193 972 186 963 189 967 l 345 1126 b 356 1136 348 1130 352 1133 b 369 1142 360 1138 364 1140 b 386 1145 374 1143 380 1144 b 410 1145 393 1145 401 1145 m 95 878 "},"":{"ha":804,"x_min":0,"x_max":0,"o":"m 774 41 b 780 17 777 31 779 23 b 774 3 780 11 778 7 b 756 -3 771 0 765 -2 b 723 -4 748 -4 737 -4 b 689 -3 709 -4 698 -4 b 670 0 681 -2 675 -1 b 661 7 666 2 663 4 b 655 17 659 9 657 13 l 580 231 l 215 231 l 143 20 b 138 9 142 16 140 12 b 128 2 135 6 132 4 b 110 -3 124 0 117 -2 b 79 -4 102 -4 91 -4 b 46 -2 66 -4 55 -4 b 29 4 38 -1 32 1 b 24 18 25 7 24 12 b 30 42 24 24 26 32 l 324 857 b 331 869 326 862 328 866 b 344 877 334 873 339 875 b 366 881 350 879 357 880 b 399 882 375 881 386 882 b 435 881 414 882 426 881 b 458 877 445 880 453 879 b 472 869 464 875 469 872 b 479 857 475 866 478 861 l 774 41 m 395 761 l 244 323 l 549 323 l 396 761 m 555 1095 b 565 1106 555 1100 559 1104 b 597 1109 571 1108 582 1109 b 629 1104 614 1109 624 1108 b 637 1082 634 1101 637 1094 b 602 983 637 1040 625 1007 b 503 947 579 959 546 947 b 441 959 479 947 458 951 b 392 986 423 967 407 976 l 351 1012 b 310 1024 338 1020 324 1024 b 270 1007 291 1024 278 1018 b 258 962 262 996 258 981 b 255 954 258 958 257 956 b 247 949 253 952 250 950 b 234 947 243 948 239 947 b 216 947 228 947 223 947 b 184 952 200 947 189 949 b 177 974 179 956 177 963 b 186 1032 177 996 180 1015 b 214 1074 193 1049 202 1063 b 256 1100 225 1086 240 1094 b 311 1109 273 1106 291 1109 b 373 1097 335 1109 355 1105 b 421 1071 391 1089 407 1080 l 462 1044 b 504 1032 475 1036 489 1032 b 542 1046 520 1032 532 1037 b 555 1095 551 1055 555 1072 m 90 878 "},"":{"ha":804,"x_min":0,"x_max":0,"o":"m 774 41 b 780 17 777 31 779 23 b 774 3 780 11 778 7 b 756 -3 771 0 765 -2 b 723 -4 748 -4 737 -4 b 689 -3 709 -4 698 -4 b 670 0 681 -2 675 -1 b 661 7 666 2 663 4 b 655 17 659 9 657 13 l 580 231 l 215 231 l 143 20 b 138 9 142 16 140 12 b 128 2 135 6 132 4 b 110 -3 124 0 117 -2 b 79 -4 102 -4 91 -4 b 46 -2 66 -4 55 -4 b 29 4 38 -1 32 1 b 24 18 25 7 24 12 b 30 42 24 24 26 32 l 324 857 b 331 869 326 862 328 866 b 344 877 334 873 339 875 b 366 881 350 879 357 880 b 399 882 375 881 386 882 b 435 881 414 882 426 881 b 458 877 445 880 453 879 b 472 869 464 875 469 872 b 479 857 475 866 478 861 l 774 41 m 395 761 l 244 323 l 549 323 l 396 761 m 331 1037 b 317 985 331 1012 326 994 b 264 970 307 975 290 970 b 213 984 239 970 222 975 b 199 1036 204 994 199 1011 b 213 1087 199 1061 204 1078 b 265 1101 223 1097 240 1101 b 317 1088 290 1101 308 1097 b 331 1037 326 1079 331 1062 m 611 1037 b 597 985 611 1012 606 994 b 545 970 588 975 570 970 b 493 984 520 970 503 975 b 479 1036 484 994 479 1011 b 494 1087 479 1061 484 1078 b 545 1101 503 1097 520 1101 b 597 1088 571 1101 588 1097 b 611 1037 607 1079 611 1062 m 110 878 "},"":{"ha":804,"x_min":0,"x_max":0,"o":"m 774 41 b 780 17 777 31 779 23 b 774 3 780 11 778 7 b 756 -3 771 0 765 -2 b 723 -4 748 -4 737 -4 b 689 -3 709 -4 698 -4 b 670 0 681 -2 675 -1 b 661 7 666 2 663 4 b 655 17 659 9 657 13 l 580 231 l 215 231 l 143 20 b 138 9 142 16 140 12 b 128 2 135 6 132 4 b 110 -3 124 0 117 -2 b 79 -4 102 -4 91 -4 b 46 -2 66 -4 55 -4 b 29 4 38 -1 32 1 b 24 18 25 7 24 12 b 30 42 24 24 26 32 l 324 857 b 331 869 326 862 328 866 b 344 877 334 873 339 875 b 366 881 350 879 357 880 b 399 882 375 881 386 882 b 435 881 414 882 426 881 b 458 877 445 880 453 879 b 472 869 464 875 469 872 b 479 857 475 866 478 861 l 774 41 m 395 761 l 244 323 l 549 323 l 396 761 m 544 1052 b 534 1000 544 1033 541 1015 b 506 959 528 984 518 970 b 461 932 494 948 479 939 b 403 922 444 926 425 922 b 343 931 380 922 360 925 b 300 957 326 938 312 946 b 275 996 289 968 281 981 b 267 1047 270 1012 267 1029 b 276 1100 267 1067 270 1084 b 304 1140 282 1116 292 1129 b 348 1166 316 1151 331 1160 b 408 1176 366 1173 385 1176 b 509 1143 451 1176 485 1165 b 544 1052 532 1121 544 1091 m 468 1048 b 453 1096 468 1067 463 1083 b 406 1115 444 1108 428 1115 b 358 1098 385 1115 369 1109 b 342 1052 348 1087 342 1071 b 357 1002 342 1031 347 1015 b 407 984 367 990 383 984 b 453 1002 428 984 443 990 b 468 1048 463 1014 468 1029 m 178 878 "},"":{"ha":1060,"x_min":0,"x_max":0,"o":"m 985 48 b 984 27 985 40 985 33 b 980 12 983 21 982 16 b 972 3 978 7 975 5 b 963 0 969 1 966 0 l 542 0 b 512 11 531 0 521 4 b 498 47 503 18 498 30 l 498 214 l 196 214 l 92 19 b 84 8 89 14 87 11 b 72 1 81 5 77 2 b 52 -3 67 -1 60 -2 b 20 -4 44 -4 33 -4 b -5 -3 10 -4 2 -4 b -22 -1 -12 -3 -17 -2 b -32 4 -27 0 -30 2 b -35 14 -34 7 -35 10 b -33 25 -35 17 -34 21 b -25 42 -31 30 -29 35 l 417 852 b 427 866 420 858 423 862 b 441 873 431 869 436 872 b 464 877 447 875 455 876 b 496 878 472 877 483 878 l 958 878 b 967 875 961 878 964 877 b 975 866 970 873 973 870 b 979 851 977 862 978 857 b 981 828 980 845 981 837 b 979 807 981 820 980 813 b 975 792 978 801 977 796 b 967 783 973 788 970 785 b 958 781 964 781 961 781 l 614 781 l 614 505 l 909 505 b 919 502 913 505 916 504 b 926 493 922 500 925 497 b 931 478 928 489 930 484 b 932 456 932 472 932 464 b 931 434 932 447 932 440 b 926 419 930 428 928 423 b 919 410 925 415 922 412 b 909 408 916 408 913 408 l 614 408 l 614 97 l 963 97 b 972 94 966 97 969 96 b 980 86 975 92 978 90 b 984 71 982 82 983 77 b 985 48 985 65 985 57 m 494 781 l 240 308 l 498 308 l 498 781 "},"":{"ha":741,"x_min":0,"x_max":0,"o":"m 500 -50 b 521 -101 510 -71 517 -87 b 527 -138 525 -114 527 -127 b 517 -184 527 -156 524 -171 b 491 -219 511 -198 502 -209 b 449 -240 479 -228 465 -235 b 394 -248 433 -245 414 -248 b 349 -244 378 -248 363 -247 b 313 -238 335 -242 323 -240 b 292 -232 302 -236 295 -234 b 284 -225 288 -230 285 -228 b 280 -215 282 -222 281 -219 b 279 -199 280 -211 279 -205 b 284 -171 279 -185 281 -175 b 298 -163 287 -166 292 -163 l 382 -163 b 416 -154 397 -163 408 -160 b 429 -127 425 -148 429 -139 b 425 -105 429 -121 427 -114 b 414 -77 422 -96 418 -87 l 382 -7 b 266 26 342 -3 303 8 b 164 105 228 43 194 70 b 92 239 133 140 109 185 b 66 427 74 294 66 356 b 94 622 66 500 75 565 b 173 767 113 679 139 727 b 295 857 207 806 247 836 b 452 888 342 878 394 888 b 526 881 477 888 502 886 b 592 863 550 877 572 871 b 646 838 612 856 630 848 b 679 815 662 829 673 821 b 691 801 685 809 689 804 b 695 790 693 798 694 794 b 698 774 697 785 697 780 b 699 753 699 769 699 762 b 698 730 699 744 699 737 b 694 714 697 724 696 719 b 687 705 692 710 690 707 b 678 702 685 703 682 702 b 652 715 672 702 663 706 b 608 744 640 724 626 734 b 543 773 590 755 568 765 b 451 787 517 782 487 787 b 345 763 412 787 377 779 b 263 694 313 748 286 725 b 211 584 241 664 223 627 b 192 434 198 540 192 490 b 210 287 192 378 198 329 b 261 179 222 244 239 208 b 344 114 284 151 311 129 b 454 92 376 100 413 92 b 544 105 487 92 517 96 b 611 134 570 113 593 123 b 657 163 630 144 645 154 b 685 176 669 171 678 176 b 693 174 688 176 691 175 b 699 166 695 172 697 170 b 702 150 700 162 701 157 b 703 124 702 143 703 135 b 702 105 703 117 702 111 b 700 91 701 100 701 95 b 695 80 698 87 697 83 b 686 68 693 77 690 73 b 657 48 681 64 672 57 b 605 21 643 39 625 30 b 542 1 584 12 563 6 b 481 -9 521 -4 500 -7 l 500 -50 "},"":{"ha":678,"x_min":0,"x_max":0,"o":"m 605 48 b 604 27 605 40 604 33 b 599 12 603 21 601 16 b 591 3 597 7 594 5 b 581 0 588 1 585 0 l 160 0 b 131 11 150 0 140 4 b 117 47 121 18 117 30 l 117 830 b 131 867 117 848 121 860 b 160 878 140 874 150 878 l 576 878 b 586 875 580 878 583 877 b 593 866 589 873 592 870 b 598 851 595 862 597 857 b 600 828 599 845 600 837 b 598 807 600 820 599 813 b 593 792 597 801 595 796 b 586 783 592 788 589 785 b 576 781 583 781 580 781 l 233 781 l 233 505 l 528 505 b 537 502 531 505 535 504 b 545 494 540 500 543 497 b 549 479 547 490 548 485 b 551 456 550 472 551 465 b 549 435 551 448 550 441 b 545 421 548 430 547 425 b 537 413 543 418 540 415 b 528 411 535 412 531 411 l 233 411 l 233 97 l 581 97 b 591 94 585 97 588 96 b 599 86 594 92 597 90 b 604 71 601 82 603 77 b 605 48 604 65 605 57 m 397 975 b 405 962 401 970 403 966 b 403 953 406 959 405 956 b 390 948 401 951 396 949 b 366 946 384 947 376 946 b 342 947 356 946 348 946 b 325 950 335 948 330 949 b 312 957 320 952 315 954 b 299 967 308 959 304 963 l 146 1111 b 137 1124 141 1115 138 1120 b 140 1135 136 1128 137 1131 b 156 1142 143 1138 148 1140 b 189 1145 164 1144 175 1145 b 217 1144 200 1145 209 1145 b 238 1141 225 1144 232 1142 b 254 1133 244 1139 249 1136 b 269 1120 259 1130 264 1126 l 397 975 m 47 878 "},"":{"ha":678,"x_min":0,"x_max":0,"o":"m 605 48 b 604 27 605 40 604 33 b 599 12 603 21 601 16 b 591 3 597 7 594 5 b 581 0 588 1 585 0 l 160 0 b 131 11 150 0 140 4 b 117 47 121 18 117 30 l 117 830 b 131 867 117 848 121 860 b 160 878 140 874 150 878 l 576 878 b 586 875 580 878 583 877 b 593 866 589 873 592 870 b 598 851 595 862 597 857 b 600 828 599 845 600 837 b 598 807 600 820 599 813 b 593 792 597 801 595 796 b 586 783 592 788 589 785 b 576 781 583 781 580 781 l 233 781 l 233 505 l 528 505 b 537 502 531 505 535 504 b 545 494 540 500 543 497 b 549 479 547 490 548 485 b 551 456 550 472 551 465 b 549 435 551 448 550 441 b 545 421 548 430 547 425 b 537 413 543 418 540 415 b 528 411 535 412 531 411 l 233 411 l 233 97 l 581 97 b 591 94 585 97 588 96 b 599 86 594 92 597 90 b 604 71 601 82 603 77 b 605 48 604 65 605 57 m 444 1120 b 458 1133 448 1126 453 1130 b 474 1141 463 1136 468 1139 b 495 1144 480 1142 487 1144 b 524 1145 503 1145 513 1145 b 556 1142 538 1145 548 1144 b 572 1135 564 1140 569 1138 b 575 1124 576 1131 577 1128 b 568 1111 574 1120 572 1115 l 414 967 b 401 957 409 963 405 959 b 388 950 397 954 393 952 b 371 947 383 949 377 948 b 347 946 364 946 356 946 b 322 948 336 946 328 947 b 310 953 316 949 312 951 b 308 962 308 956 307 959 b 315 975 309 966 311 970 l 444 1120 m 218 878 "},"":{"ha":678,"x_min":0,"x_max":0,"o":"m 605 48 b 604 27 605 40 604 33 b 599 12 603 21 601 16 b 591 3 597 7 594 5 b 581 0 588 1 585 0 l 160 0 b 131 11 150 0 140 4 b 117 47 121 18 117 30 l 117 830 b 131 867 117 848 121 860 b 160 878 140 874 150 878 l 576 878 b 586 875 580 878 583 877 b 593 866 589 873 592 870 b 598 851 595 862 597 857 b 600 828 599 845 600 837 b 598 807 600 820 599 813 b 593 792 597 801 595 796 b 586 783 592 788 589 785 b 576 781 583 781 580 781 l 233 781 l 233 505 l 528 505 b 537 502 531 505 535 504 b 545 494 540 500 543 497 b 549 479 547 490 548 485 b 551 456 550 472 551 465 b 549 435 551 448 550 441 b 545 421 548 430 547 425 b 537 413 543 418 540 415 b 528 411 535 412 531 411 l 233 411 l 233 97 l 581 97 b 591 94 585 97 588 96 b 599 86 594 92 597 90 b 604 71 601 82 603 77 b 605 48 604 65 605 57 m 363 1145 b 387 1145 372 1145 380 1145 b 403 1142 393 1144 398 1143 b 415 1136 408 1140 412 1138 b 427 1126 419 1133 422 1130 l 572 972 b 579 960 576 967 578 963 b 576 952 580 957 579 954 b 563 947 574 950 569 948 b 538 946 557 946 548 946 b 506 947 525 946 514 946 b 486 950 498 948 491 949 b 474 955 481 951 477 952 b 467 961 471 957 469 959 l 362 1078 l 254 964 b 243 955 251 961 247 958 b 230 949 240 953 235 951 b 210 947 224 948 218 947 b 179 946 201 946 191 946 b 153 948 168 946 159 947 b 140 952 147 949 143 950 b 138 960 138 955 137 957 b 145 972 139 963 141 967 l 297 1126 b 308 1136 301 1130 304 1133 b 321 1142 312 1138 316 1140 b 339 1145 326 1143 332 1144 b 363 1145 345 1145 353 1145 m 47 878 "},"":{"ha":678,"x_min":0,"x_max":0,"o":"m 605 48 b 604 27 605 40 604 33 b 599 12 603 21 601 16 b 591 3 597 7 594 5 b 581 0 588 1 585 0 l 160 0 b 131 11 150 0 140 4 b 117 47 121 18 117 30 l 117 830 b 131 867 117 848 121 860 b 160 878 140 874 150 878 l 576 878 b 586 875 580 878 583 877 b 593 866 589 873 592 870 b 598 851 595 862 597 857 b 600 828 599 845 600 837 b 598 807 600 820 599 813 b 593 792 597 801 595 796 b 586 783 592 788 589 785 b 576 781 583 781 580 781 l 233 781 l 233 505 l 528 505 b 537 502 531 505 535 504 b 545 494 540 500 543 497 b 549 479 547 490 548 485 b 551 456 550 472 551 465 b 549 435 551 448 550 441 b 545 421 548 430 547 425 b 537 413 543 418 540 415 b 528 411 535 412 531 411 l 233 411 l 233 97 l 581 97 b 591 94 585 97 588 96 b 599 86 594 92 597 90 b 604 71 601 82 603 77 b 605 48 604 65 605 57 m 288 1037 b 274 985 288 1012 283 994 b 222 970 264 975 247 970 b 170 984 196 970 179 975 b 157 1036 161 994 157 1011 b 171 1087 157 1061 161 1078 b 222 1101 180 1097 197 1101 b 274 1088 248 1101 265 1097 b 288 1037 284 1079 288 1062 m 568 1037 b 554 985 568 1012 564 994 b 502 970 545 975 528 970 b 451 984 477 970 460 975 b 437 1036 441 994 437 1011 b 451 1087 437 1061 441 1078 b 503 1101 460 1097 478 1101 b 555 1088 528 1101 546 1097 b 568 1037 564 1079 568 1062 m 67 878 "},"":{"ha":350,"x_min":0,"x_max":0,"o":"m 233 18 b 231 8 233 14 232 11 b 221 2 229 5 226 3 b 203 -2 217 0 211 -1 b 175 -4 196 -4 186 -4 b 147 -2 164 -4 155 -4 b 129 2 139 -1 133 0 b 119 8 124 3 121 5 b 117 18 118 11 117 14 l 117 860 b 120 869 117 864 118 867 b 130 876 122 872 125 874 b 148 880 135 877 141 879 b 175 882 156 881 165 882 b 203 880 186 882 196 881 b 221 876 211 879 217 877 b 231 869 226 874 229 872 b 233 860 232 867 233 864 l 233 18 m 227 975 b 234 962 231 970 233 966 b 233 953 235 959 235 956 b 220 948 230 951 226 949 b 195 946 214 947 206 946 b 172 947 186 946 178 946 b 155 950 165 948 160 949 b 141 957 150 952 145 954 b 129 967 138 959 133 963 l -24 1111 b -34 1124 -29 1115 -32 1120 b -31 1135 -35 1128 -34 1131 b -14 1142 -27 1138 -22 1140 b 18 1145 -6 1144 5 1145 b 47 1144 30 1145 39 1145 b 68 1141 55 1144 62 1142 b 84 1133 74 1139 79 1136 b 99 1120 89 1130 94 1126 l 227 975 m -123 878 "},"":{"ha":350,"x_min":0,"x_max":0,"o":"m 233 18 b 231 8 233 14 232 11 b 221 2 229 5 226 3 b 203 -2 217 0 211 -1 b 175 -4 196 -4 186 -4 b 147 -2 164 -4 155 -4 b 129 2 139 -1 133 0 b 119 8 124 3 121 5 b 117 18 118 11 117 14 l 117 860 b 120 869 117 864 118 867 b 130 876 122 872 125 874 b 148 880 135 877 141 879 b 175 882 156 881 165 882 b 203 880 186 882 196 881 b 221 876 211 879 217 877 b 231 869 226 874 229 872 b 233 860 232 867 233 864 l 233 18 m 253 1120 b 268 1133 258 1126 263 1130 b 283 1141 272 1136 278 1139 b 304 1144 289 1142 296 1144 b 334 1145 313 1145 322 1145 b 366 1142 347 1145 358 1144 b 382 1135 373 1140 379 1138 b 385 1124 385 1131 386 1128 b 377 1111 384 1120 381 1115 l 223 967 b 211 957 219 963 214 959 b 197 950 207 954 202 952 b 180 947 192 949 187 948 b 156 946 173 946 165 946 b 132 948 146 946 137 947 b 119 953 126 949 122 951 b 117 962 117 956 116 959 b 125 975 118 966 121 970 l 253 1120 m 27 878 "},"":{"ha":350,"x_min":0,"x_max":0,"o":"m 233 18 b 231 8 233 14 232 11 b 221 2 229 5 226 3 b 203 -2 217 0 211 -1 b 175 -4 196 -4 186 -4 b 147 -2 164 -4 155 -4 b 129 2 139 -1 133 0 b 119 8 124 3 121 5 b 117 18 118 11 117 14 l 117 860 b 120 869 117 864 118 867 b 130 876 122 872 125 874 b 148 880 135 877 141 879 b 175 882 156 881 165 882 b 203 880 186 882 196 881 b 221 876 211 879 217 877 b 231 869 226 874 229 872 b 233 860 232 867 233 864 l 233 18 m 180 1145 b 204 1145 190 1145 198 1145 b 221 1142 210 1144 216 1143 b 233 1136 225 1140 230 1138 b 244 1126 236 1133 240 1130 l 389 972 b 397 960 393 967 396 963 b 394 952 398 957 397 954 b 380 947 391 950 387 948 b 356 946 374 946 366 946 b 323 947 342 946 332 946 b 304 950 315 948 309 949 b 292 955 299 951 295 952 b 284 961 289 957 286 959 l 180 1078 l 72 964 b 61 955 68 961 65 958 b 47 949 57 953 53 951 b 27 947 42 948 35 947 b -3 946 19 946 9 946 b -30 948 -15 946 -23 947 b -42 952 -36 949 -40 950 b -45 960 -45 955 -46 957 b -37 972 -44 963 -41 967 l 115 1126 b 126 1136 118 1130 122 1133 b 139 1142 130 1138 134 1140 b 156 1145 144 1143 150 1144 b 180 1145 163 1145 171 1145 m -135 878 "},"":{"ha":350,"x_min":0,"x_max":0,"o":"m 233 18 b 231 8 233 14 232 11 b 221 2 229 5 226 3 b 203 -2 217 0 211 -1 b 175 -4 196 -4 186 -4 b 147 -2 164 -4 155 -4 b 129 2 139 -1 133 0 b 119 8 124 3 121 5 b 117 18 118 11 117 14 l 117 860 b 120 869 117 864 118 867 b 130 876 122 872 125 874 b 148 880 135 877 141 879 b 175 882 156 881 165 882 b 203 880 186 882 196 881 b 221 876 211 879 217 877 b 231 869 226 874 229 872 b 233 860 232 867 233 864 l 233 18 m 102 1037 b 87 985 102 1012 97 994 b 35 970 78 975 61 970 b -16 984 10 970 -7 975 b -30 1036 -25 994 -30 1011 b -16 1087 -30 1061 -25 1078 b 36 1101 -7 1097 11 1101 b 88 1088 61 1101 79 1097 b 102 1037 97 1079 102 1062 m 382 1037 b 368 985 382 1012 377 994 b 315 970 359 975 341 970 b 264 984 290 970 273 975 b 250 1036 255 994 250 1011 b 264 1087 250 1061 255 1078 b 316 1101 274 1097 291 1101 b 368 1088 342 1101 359 1097 b 382 1037 377 1079 382 1062 m -119 878 "},"":{"ha":867,"x_min":0,"x_max":0,"o":"m 804 452 b 775 253 804 376 795 309 b 690 112 756 196 727 149 b 552 28 652 74 606 46 b 358 0 498 9 433 0 l 172 0 b 143 11 162 0 152 4 b 130 47 134 18 130 30 l 130 408 l 41 408 b 32 410 38 408 34 408 b 24 419 29 412 26 415 b 20 434 22 423 21 428 b 18 456 19 440 18 447 b 20 478 18 464 19 472 b 24 493 21 484 22 489 b 32 502 26 497 29 500 b 41 505 34 504 38 505 l 130 505 l 130 830 b 143 867 130 848 134 860 b 172 878 152 874 162 878 l 371 878 b 564 848 447 878 511 868 b 696 763 617 828 661 800 b 777 629 732 726 759 682 b 804 452 795 577 804 518 m 681 447 b 663 579 681 494 675 539 b 608 686 651 620 633 656 b 513 755 583 715 552 739 b 364 781 474 772 425 781 l 245 781 l 245 505 l 406 505 b 415 502 409 505 412 504 b 422 493 418 500 420 497 b 427 478 424 489 426 484 b 428 456 427 472 428 464 b 427 434 428 447 427 440 b 422 419 426 428 424 423 b 415 410 420 415 418 412 b 406 408 412 408 409 408 l 245 408 l 245 98 l 366 98 b 508 119 422 98 470 105 b 604 183 546 133 578 154 b 662 292 629 212 649 248 b 681 447 674 336 681 387 "},"":{"ha":897,"x_min":0,"x_max":0,"o":"m 780 48 b 775 25 780 39 778 31 b 764 9 773 19 769 14 b 748 1 759 5 754 2 b 730 -2 742 -1 736 -2 l 693 -2 b 662 2 681 -2 671 -1 b 637 15 653 4 645 9 b 613 42 629 22 621 31 b 587 85 605 53 597 68 l 311 585 l 267 666 l 226 748 l 224 748 b 227 648 225 715 226 682 b 227 547 227 614 227 581 l 227 18 b 224 8 227 14 226 11 b 215 2 223 6 220 3 b 198 -2 211 0 205 -1 b 172 -4 191 -4 182 -4 b 145 -2 161 -4 152 -4 b 128 2 138 -1 132 0 b 119 8 124 3 121 6 b 117 18 118 11 117 14 l 117 827 b 132 866 117 845 122 858 b 164 878 142 874 152 878 l 220 878 b 253 874 233 878 244 876 b 276 863 261 872 269 868 b 297 841 283 858 290 851 b 318 806 303 832 310 820 l 531 421 l 569 352 l 604 286 l 638 222 l 671 159 l 671 159 b 670 270 670 194 670 232 b 669 382 669 309 669 346 l 669 858 b 672 867 669 861 670 864 b 681 874 674 869 677 872 b 698 878 686 876 691 877 b 726 880 705 879 714 880 b 751 878 736 880 744 879 b 768 874 759 877 764 876 b 777 867 772 872 775 869 b 780 858 779 864 780 861 l 780 48 m 597 1095 b 607 1106 597 1100 601 1104 b 640 1109 613 1108 624 1109 b 671 1104 656 1109 666 1108 b 679 1082 676 1101 679 1094 b 644 983 679 1040 667 1007 b 545 947 621 959 588 947 b 483 959 521 947 500 951 b 434 986 465 967 449 976 l 393 1012 b 352 1024 380 1020 366 1024 b 312 1007 333 1024 320 1018 b 300 962 304 996 300 981 b 297 954 300 958 299 956 b 289 949 295 952 293 950 b 276 947 285 948 281 947 b 258 947 270 947 265 947 b 227 952 242 947 231 949 b 219 974 222 956 219 963 b 229 1032 219 996 222 1015 b 256 1074 235 1049 244 1063 b 298 1100 267 1086 282 1094 b 353 1109 315 1106 333 1109 b 415 1097 377 1109 397 1105 b 463 1071 433 1089 449 1080 l 504 1044 b 546 1032 517 1036 531 1032 b 584 1046 562 1032 574 1037 b 597 1095 593 1055 597 1072 m 132 878 "},"":{"ha":920,"x_min":0,"x_max":0,"o":"m 852 449 b 827 257 852 378 843 314 b 752 112 810 200 785 152 b 627 19 719 72 677 41 b 451 -13 576 -2 518 -13 b 280 17 385 -13 328 -3 b 160 102 232 36 192 65 b 90 242 129 140 106 186 b 67 434 75 298 67 362 b 92 623 67 503 76 566 b 168 767 109 679 134 727 b 293 858 201 806 243 837 b 469 890 343 880 402 890 b 637 861 533 890 590 881 b 757 776 685 842 725 813 b 828 638 789 739 813 693 b 852 449 844 583 852 520 m 729 441 b 716 579 729 491 725 537 b 672 691 707 622 692 659 b 589 764 651 722 624 747 b 462 791 555 782 512 791 b 334 762 411 791 369 781 b 251 686 300 743 272 718 b 204 575 229 655 214 618 b 191 442 195 533 191 489 b 203 300 191 391 195 343 b 247 188 212 256 227 219 b 329 114 267 156 294 132 b 457 88 363 97 406 88 b 586 117 508 88 551 98 b 670 194 621 136 649 161 b 715 306 691 226 706 263 b 729 441 725 348 729 393 m 513 975 b 521 962 517 970 520 966 b 519 953 522 959 522 956 b 507 948 517 951 513 949 b 482 946 501 947 493 946 b 458 947 473 946 465 946 b 441 950 452 948 446 949 b 428 957 437 952 432 954 b 416 967 424 959 420 963 l 262 1111 b 253 1124 257 1115 254 1120 b 256 1135 252 1128 253 1131 b 273 1142 260 1138 265 1140 b 305 1145 281 1144 292 1145 b 334 1144 316 1145 326 1145 b 355 1141 342 1144 349 1142 b 371 1133 361 1139 366 1136 b 386 1120 376 1130 381 1126 l 513 975 m 163 878 "},"":{"ha":920,"x_min":0,"x_max":0,"o":"m 852 449 b 827 257 852 378 843 314 b 752 112 810 200 785 152 b 627 19 719 72 677 41 b 451 -13 576 -2 518 -13 b 280 17 385 -13 328 -3 b 160 102 232 36 192 65 b 90 242 129 140 106 186 b 67 434 75 298 67 362 b 92 623 67 503 76 566 b 168 767 109 679 134 727 b 293 858 201 806 243 837 b 469 890 343 880 402 890 b 637 861 533 890 590 881 b 757 776 685 842 725 813 b 828 638 789 739 813 693 b 852 449 844 583 852 520 m 729 441 b 716 579 729 491 725 537 b 672 691 707 622 692 659 b 589 764 651 722 624 747 b 462 791 555 782 512 791 b 334 762 411 791 369 781 b 251 686 300 743 272 718 b 204 575 229 655 214 618 b 191 442 195 533 191 489 b 203 300 191 391 195 343 b 247 188 212 256 227 219 b 329 114 267 156 294 132 b 457 88 363 97 406 88 b 586 117 508 88 551 98 b 670 194 621 136 649 161 b 715 306 691 226 706 263 b 729 441 725 348 729 393 m 530 1120 b 545 1133 535 1126 540 1130 b 561 1141 550 1136 555 1139 b 582 1144 567 1142 574 1144 b 611 1145 590 1145 600 1145 b 643 1142 625 1145 635 1144 b 659 1135 651 1140 656 1138 b 662 1124 662 1131 663 1128 b 654 1111 661 1120 659 1115 l 500 967 b 488 957 496 963 492 959 b 475 950 484 954 480 952 b 457 947 470 949 464 948 b 433 946 451 946 443 946 b 409 948 423 946 415 947 b 397 953 403 949 399 951 b 395 962 394 956 394 959 b 402 975 396 966 398 970 l 530 1120 m 304 878 "},"":{"ha":920,"x_min":0,"x_max":0,"o":"m 852 449 b 827 257 852 378 843 314 b 752 112 810 200 785 152 b 627 19 719 72 677 41 b 451 -13 576 -2 518 -13 b 280 17 385 -13 328 -3 b 160 102 232 36 192 65 b 90 242 129 140 106 186 b 67 434 75 298 67 362 b 92 623 67 503 76 566 b 168 767 109 679 134 727 b 293 858 201 806 243 837 b 469 890 343 880 402 890 b 637 861 533 890 590 881 b 757 776 685 842 725 813 b 828 638 789 739 813 693 b 852 449 844 583 852 520 m 729 441 b 716 579 729 491 725 537 b 672 691 707 622 692 659 b 589 764 651 722 624 747 b 462 791 555 782 512 791 b 334 762 411 791 369 781 b 251 686 300 743 272 718 b 204 575 229 655 214 618 b 191 442 195 533 191 489 b 203 300 191 391 195 343 b 247 188 212 256 227 219 b 329 114 267 156 294 132 b 457 88 363 97 406 88 b 586 117 508 88 551 98 b 670 194 621 136 649 161 b 715 306 691 226 706 263 b 729 441 725 348 729 393 m 467 1145 b 491 1145 477 1145 485 1145 b 508 1142 497 1144 503 1143 b 520 1136 512 1140 516 1138 b 531 1126 523 1133 527 1130 l 676 972 b 684 960 680 967 683 963 b 681 952 684 957 684 954 b 667 947 678 950 674 948 b 643 946 661 946 653 946 b 610 947 629 946 618 946 b 591 950 602 948 596 949 b 579 955 586 951 582 952 b 571 961 576 957 573 959 l 467 1078 l 359 964 b 348 955 355 961 352 958 b 334 949 344 953 340 951 b 314 947 329 948 322 947 b 283 946 306 946 296 946 b 257 948 272 946 263 947 b 244 952 251 949 247 950 b 242 960 242 955 241 957 b 250 972 243 963 245 967 l 401 1126 b 413 1136 405 1130 409 1133 b 426 1142 417 1138 421 1140 b 443 1145 431 1143 437 1144 b 467 1145 450 1145 458 1145 m 152 878 "},"":{"ha":920,"x_min":0,"x_max":0,"o":"m 852 449 b 827 257 852 378 843 314 b 752 112 810 200 785 152 b 627 19 719 72 677 41 b 451 -13 576 -2 518 -13 b 280 17 385 -13 328 -3 b 160 102 232 36 192 65 b 90 242 129 140 106 186 b 67 434 75 298 67 362 b 92 623 67 503 76 566 b 168 767 109 679 134 727 b 293 858 201 806 243 837 b 469 890 343 880 402 890 b 637 861 533 890 590 881 b 757 776 685 842 725 813 b 828 638 789 739 813 693 b 852 449 844 583 852 520 m 729 441 b 716 579 729 491 725 537 b 672 691 707 622 692 659 b 589 764 651 722 624 747 b 462 791 555 782 512 791 b 334 762 411 791 369 781 b 251 686 300 743 272 718 b 204 575 229 655 214 618 b 191 442 195 533 191 489 b 203 300 191 391 195 343 b 247 188 212 256 227 219 b 329 114 267 156 294 132 b 457 88 363 97 406 88 b 586 117 508 88 551 98 b 670 194 621 136 649 161 b 715 306 691 226 706 263 b 729 441 725 348 729 393 m 612 1095 b 622 1106 612 1100 616 1104 b 654 1109 628 1108 639 1109 b 686 1104 671 1109 681 1108 b 694 1082 691 1101 694 1094 b 659 983 694 1040 682 1007 b 560 947 636 959 603 947 b 498 959 536 947 515 951 b 449 986 480 967 464 976 l 408 1012 b 367 1024 395 1020 381 1024 b 327 1007 348 1024 335 1018 b 315 962 319 996 315 981 b 312 954 315 958 314 956 b 304 949 310 952 307 950 b 291 947 300 948 296 947 b 273 947 285 947 280 947 b 241 952 257 947 246 949 b 234 974 236 956 234 963 b 243 1032 234 996 237 1015 b 271 1074 250 1049 259 1063 b 313 1100 282 1086 296 1094 b 368 1109 329 1106 348 1109 b 430 1097 392 1109 412 1105 b 478 1071 448 1089 464 1080 l 519 1044 b 561 1032 532 1036 546 1032 b 598 1046 577 1032 589 1037 b 612 1095 608 1055 612 1072 m 146 878 "},"":{"ha":920,"x_min":0,"x_max":0,"o":"m 852 449 b 827 257 852 378 843 314 b 752 112 810 200 785 152 b 627 19 719 72 677 41 b 451 -13 576 -2 518 -13 b 280 17 385 -13 328 -3 b 160 102 232 36 192 65 b 90 242 129 140 106 186 b 67 434 75 298 67 362 b 92 623 67 503 76 566 b 168 767 109 679 134 727 b 293 858 201 806 243 837 b 469 890 343 880 402 890 b 637 861 533 890 590 881 b 757 776 685 842 725 813 b 828 638 789 739 813 693 b 852 449 844 583 852 520 m 729 441 b 716 579 729 491 725 537 b 672 691 707 622 692 659 b 589 764 651 722 624 747 b 462 791 555 782 512 791 b 334 762 411 791 369 781 b 251 686 300 743 272 718 b 204 575 229 655 214 618 b 191 442 195 533 191 489 b 203 300 191 391 195 343 b 247 188 212 256 227 219 b 329 114 267 156 294 132 b 457 88 363 97 406 88 b 586 117 508 88 551 98 b 670 194 621 136 649 161 b 715 306 691 226 706 263 b 729 441 725 348 729 393 m 388 1037 b 374 985 388 1012 383 994 b 321 970 364 975 347 970 b 270 984 296 970 279 975 b 256 1036 261 994 256 1011 b 270 1087 256 1061 261 1078 b 322 1101 280 1097 297 1101 b 374 1088 347 1101 365 1097 b 388 1037 383 1079 388 1062 m 668 1037 b 654 985 668 1012 663 994 b 602 970 645 975 627 970 b 550 984 577 970 560 975 b 536 1036 541 994 536 1011 b 551 1087 536 1061 541 1078 b 602 1101 560 1097 577 1101 b 654 1088 628 1101 645 1097 b 668 1037 663 1079 668 1062 m 167 878 "},"":{"ha":692,"x_min":0,"x_max":0,"o":"m 618 184 b 624 176 621 182 623 179 b 626 168 625 174 626 171 b 620 149 626 162 624 155 b 603 130 615 142 610 135 b 583 115 597 124 590 119 b 566 109 576 111 571 109 b 558 111 564 109 561 109 b 551 115 556 112 553 113 l 345 321 l 140 116 b 131 111 137 114 134 112 b 122 109 128 110 125 109 b 104 116 117 109 111 111 b 85 132 98 120 91 126 b 71 152 80 138 75 145 b 65 169 67 159 65 164 b 72 184 65 174 67 179 l 278 391 l 73 596 b 67 604 70 598 68 601 b 65 612 66 606 65 609 b 72 631 65 618 67 625 b 88 650 76 638 82 644 b 108 665 94 656 101 661 b 125 671 115 669 120 671 b 141 663 131 671 136 668 l 347 457 l 552 663 b 559 668 554 665 557 667 b 568 670 562 669 565 670 b 587 663 574 670 580 668 b 606 647 593 659 600 653 b 621 628 611 641 616 635 b 627 610 625 621 627 615 b 625 602 627 608 626 605 b 620 595 624 600 623 597 l 414 389 "},"":{"ha":922,"x_min":0,"x_max":0,"o":"m 854 449 b 829 257 854 378 846 314 b 753 112 812 200 787 152 b 627 19 719 72 677 41 b 452 -13 576 -2 518 -13 b 374 -7 424 -13 398 -11 b 307 11 350 -3 328 3 l 232 -140 b 225 -147 231 -142 228 -145 b 213 -152 222 -149 218 -151 b 194 -155 207 -153 201 -154 b 170 -156 187 -156 179 -156 b 142 -154 158 -156 149 -155 b 127 -146 136 -152 131 -150 b 123 -135 124 -143 123 -140 b 127 -121 123 -131 125 -126 l 214 54 b 150 118 189 72 168 93 b 104 203 131 143 116 171 b 76 308 92 234 82 269 b 67 434 70 346 67 388 b 92 623 67 503 76 566 b 168 767 109 679 134 727 b 293 858 201 806 243 837 b 469 890 344 880 402 890 b 546 884 497 890 522 888 b 615 865 569 880 592 873 l 688 1015 b 696 1023 690 1018 693 1021 b 708 1029 699 1026 703 1027 b 727 1031 714 1030 720 1031 b 752 1032 734 1032 743 1032 b 779 1029 763 1032 772 1031 b 793 1022 785 1028 790 1025 b 798 1011 797 1019 798 1016 b 793 997 798 1007 796 1002 l 707 822 b 771 758 732 804 753 782 b 817 673 789 733 804 705 b 845 571 829 642 839 608 b 854 449 851 533 854 493 m 733 442 b 714 596 733 499 727 550 b 653 714 702 642 682 682 l 352 108 b 400 92 367 101 383 96 b 459 87 418 89 437 87 b 589 115 511 87 554 96 b 674 192 624 134 652 160 b 720 305 695 225 710 262 b 733 442 729 348 733 394 m 571 770 b 522 787 556 778 540 783 b 462 792 504 790 484 792 b 333 764 411 792 368 783 b 249 688 298 745 270 720 b 202 576 227 656 212 619 b 189 441 193 534 189 489 b 207 282 189 383 195 330 b 269 162 220 234 240 194 l 571 770 "},"":{"ha":891,"x_min":0,"x_max":0,"o":"m 777 324 b 753 181 777 271 769 223 b 686 75 738 140 715 104 b 581 9 657 46 622 24 b 439 -13 539 -5 492 -13 b 307 8 390 -13 346 -6 b 204 70 267 22 233 43 b 138 173 176 98 154 132 b 115 315 123 214 115 262 l 115 860 b 118 869 115 864 116 867 b 127 876 120 872 123 874 b 145 880 132 877 138 879 b 174 882 152 881 162 882 b 201 880 184 882 194 881 b 219 876 209 879 215 877 b 229 869 224 874 227 872 b 231 860 230 867 231 864 l 231 330 b 246 223 231 289 236 253 b 289 148 256 193 270 168 b 357 102 308 127 331 112 b 446 87 384 92 413 87 b 537 102 480 87 510 92 b 604 146 563 112 586 127 b 646 220 622 166 636 191 b 661 323 656 250 661 284 l 661 860 b 663 869 661 864 661 867 b 673 876 665 872 668 874 b 691 880 677 877 683 879 b 719 882 698 881 708 882 b 746 880 730 882 739 881 b 764 876 754 879 760 877 b 773 869 768 874 771 872 b 777 860 775 867 777 864 l 777 324 m 487 975 b 495 962 491 970 494 966 b 493 953 496 959 495 956 b 480 948 491 951 487 949 b 456 946 474 947 466 946 b 432 947 446 946 438 946 b 415 950 426 948 420 949 b 402 957 410 952 406 954 b 389 967 398 959 394 963 l 236 1111 b 227 1124 231 1115 228 1120 b 230 1135 226 1128 227 1131 b 247 1142 233 1138 239 1140 b 279 1145 254 1144 265 1145 b 308 1144 290 1145 300 1145 b 328 1141 315 1144 322 1142 b 345 1133 334 1139 340 1136 b 359 1120 349 1130 354 1126 l 487 975 m 137 878 "},"":{"ha":891,"x_min":0,"x_max":0,"o":"m 777 324 b 753 181 777 271 769 223 b 686 75 738 140 715 104 b 581 9 657 46 622 24 b 439 -13 539 -5 492 -13 b 307 8 390 -13 346 -6 b 204 70 267 22 233 43 b 138 173 176 98 154 132 b 115 315 123 214 115 262 l 115 860 b 118 869 115 864 116 867 b 127 876 120 872 123 874 b 145 880 132 877 138 879 b 174 882 152 881 162 882 b 201 880 184 882 194 881 b 219 876 209 879 215 877 b 229 869 224 874 227 872 b 231 860 230 867 231 864 l 231 330 b 246 223 231 289 236 253 b 289 148 256 193 270 168 b 357 102 308 127 331 112 b 446 87 384 92 413 87 b 537 102 480 87 510 92 b 604 146 563 112 586 127 b 646 220 622 166 636 191 b 661 323 656 250 661 284 l 661 860 b 663 869 661 864 661 867 b 673 876 665 872 668 874 b 691 880 677 877 683 879 b 719 882 698 881 708 882 b 746 880 730 882 739 881 b 764 876 754 879 760 877 b 773 869 768 874 771 872 b 777 860 775 867 777 864 l 777 324 m 516 1120 b 531 1133 521 1126 526 1130 b 547 1141 535 1136 541 1139 b 568 1144 552 1142 559 1144 b 597 1145 576 1145 585 1145 b 629 1142 610 1145 621 1144 b 645 1135 636 1140 642 1138 b 648 1124 648 1131 649 1128 b 640 1111 647 1120 644 1115 l 486 967 b 474 957 482 963 478 959 b 460 950 470 954 465 952 b 443 947 456 949 450 948 b 419 946 437 946 429 946 b 395 948 409 946 401 947 b 382 953 389 949 385 951 b 380 962 380 956 380 959 b 388 975 381 966 384 970 l 516 1120 m 290 878 "},"":{"ha":891,"x_min":0,"x_max":0,"o":"m 777 324 b 753 181 777 271 769 223 b 686 75 738 140 715 104 b 581 9 657 46 622 24 b 439 -13 539 -5 492 -13 b 307 8 390 -13 346 -6 b 204 70 267 22 233 43 b 138 173 176 98 154 132 b 115 315 123 214 115 262 l 115 860 b 118 869 115 864 116 867 b 127 876 120 872 123 874 b 145 880 132 877 138 879 b 174 882 152 881 162 882 b 201 880 184 882 194 881 b 219 876 209 879 215 877 b 229 869 224 874 227 872 b 231 860 230 867 231 864 l 231 330 b 246 223 231 289 236 253 b 289 148 256 193 270 168 b 357 102 308 127 331 112 b 446 87 384 92 413 87 b 537 102 480 87 510 92 b 604 146 563 112 586 127 b 646 220 622 166 636 191 b 661 323 656 250 661 284 l 661 860 b 663 869 661 864 661 867 b 673 876 665 872 668 874 b 691 880 677 877 683 879 b 719 882 698 881 708 882 b 746 880 730 882 739 881 b 764 876 754 879 760 877 b 773 869 768 874 771 872 b 777 860 775 867 777 864 l 777 324 m 448 1145 b 472 1145 458 1145 466 1145 b 489 1142 478 1144 484 1143 b 501 1136 493 1140 497 1138 b 512 1126 504 1133 508 1130 l 657 972 b 665 960 661 967 664 963 b 662 952 666 957 665 954 b 648 947 659 950 655 948 b 624 946 642 946 634 946 b 591 947 610 946 600 946 b 572 950 583 948 577 949 b 560 955 567 951 563 952 b 552 961 557 957 554 959 l 448 1078 l 340 964 b 329 955 336 961 333 958 b 315 949 325 953 321 951 b 295 947 310 948 303 947 b 264 946 287 946 277 946 b 238 948 253 946 244 947 b 225 952 232 949 228 950 b 223 960 223 955 222 957 b 231 972 224 963 227 967 l 382 1126 b 394 1136 386 1130 390 1133 b 407 1142 398 1138 402 1140 b 424 1145 412 1143 418 1144 b 448 1145 431 1145 439 1145 m 133 878 "},"":{"ha":891,"x_min":0,"x_max":0,"o":"m 777 324 b 753 181 777 271 769 223 b 686 75 738 140 715 104 b 581 9 657 46 622 24 b 439 -13 539 -5 492 -13 b 307 8 390 -13 346 -6 b 204 70 267 22 233 43 b 138 173 176 98 154 132 b 115 315 123 214 115 262 l 115 860 b 118 869 115 864 116 867 b 127 876 120 872 123 874 b 145 880 132 877 138 879 b 174 882 152 881 162 882 b 201 880 184 882 194 881 b 219 876 209 879 215 877 b 229 869 224 874 227 872 b 231 860 230 867 231 864 l 231 330 b 246 223 231 289 236 253 b 289 148 256 193 270 168 b 357 102 308 127 331 112 b 446 87 384 92 413 87 b 537 102 480 87 510 92 b 604 146 563 112 586 127 b 646 220 622 166 636 191 b 661 323 656 250 661 284 l 661 860 b 663 869 661 864 661 867 b 673 876 665 872 668 874 b 691 880 677 877 683 879 b 719 882 698 881 708 882 b 746 880 730 882 739 881 b 764 876 754 879 760 877 b 773 869 768 874 771 872 b 777 860 775 867 777 864 l 777 324 m 370 1037 b 356 985 370 1012 366 994 b 304 970 347 975 329 970 b 252 984 279 970 261 975 b 239 1036 243 994 239 1011 b 253 1087 239 1061 243 1078 b 304 1101 262 1097 279 1101 b 356 1088 330 1101 347 1097 b 370 1037 366 1079 370 1062 m 650 1037 b 636 985 650 1012 646 994 b 584 970 627 975 610 970 b 533 984 559 970 542 975 b 519 1036 523 994 519 1011 b 533 1087 519 1061 524 1078 b 585 1101 543 1097 560 1101 b 637 1088 610 1101 628 1097 b 650 1037 646 1079 650 1062 m 149 878 "},"":{"ha":677,"x_min":0,"x_max":0,"o":"m 397 18 b 394 8 397 14 396 11 b 385 2 392 5 389 3 b 366 -2 380 0 374 -1 b 338 -4 359 -4 349 -4 b 310 -2 327 -4 318 -4 b 292 2 303 -1 297 0 b 282 8 287 3 284 5 b 279 18 280 11 279 14 l 279 341 l 31 836 b 22 861 26 847 23 855 b 25 874 21 866 22 871 b 44 880 29 877 35 879 b 79 882 53 881 64 882 b 112 880 93 882 104 881 b 132 877 121 879 127 878 b 143 870 137 875 141 873 b 151 859 146 867 148 863 l 272 606 l 306 531 l 340 452 l 342 452 l 374 529 l 408 604 l 530 858 b 535 869 531 862 533 866 b 546 877 538 873 541 875 b 564 880 550 878 556 879 b 593 882 571 881 581 882 b 631 880 609 882 622 881 b 650 873 640 879 647 877 b 654 860 654 870 655 866 b 645 836 653 854 650 846 l 397 341 m 439 1120 b 453 1133 444 1126 449 1130 b 469 1141 458 1136 463 1139 b 490 1144 475 1142 482 1144 b 519 1145 498 1145 508 1145 b 551 1142 533 1145 544 1144 b 568 1135 559 1140 564 1138 b 571 1124 571 1131 572 1128 b 563 1111 570 1120 567 1115 l 409 967 b 396 957 404 963 400 959 b 383 950 393 954 388 952 b 366 947 378 949 372 948 b 342 946 359 946 351 946 b 317 948 331 946 323 947 b 305 953 312 949 307 951 b 303 962 303 956 302 959 b 311 975 304 966 307 970 l 439 1120 m 213 878 "},"":{"ha":718,"x_min":0,"x_max":0,"o":"m 656 473 b 634 354 656 429 649 390 b 573 264 620 319 600 289 b 476 206 547 239 515 220 b 348 186 438 193 395 186 l 233 186 l 233 15 b 230 6 233 11 232 8 b 221 -1 228 3 225 1 b 203 -5 216 -2 211 -4 b 175 -6 196 -6 186 -6 b 147 -5 164 -6 154 -6 b 129 -1 139 -4 133 -2 b 119 6 124 1 121 3 b 117 15 118 8 117 11 l 117 862 b 119 871 117 865 118 868 b 129 878 121 873 124 876 b 147 882 133 879 139 881 b 175 883 154 883 164 883 b 203 882 186 883 196 883 b 221 878 211 881 216 879 b 230 871 225 876 228 873 b 233 862 232 868 233 865 l 233 730 l 351 730 b 406 727 370 730 388 729 b 458 720 424 726 441 723 b 541 688 489 713 516 702 b 603 635 565 674 586 656 b 642 563 620 614 633 590 b 656 473 651 536 656 506 m 533 463 b 503 569 533 506 523 541 b 417 625 483 597 455 616 b 379 632 405 629 393 631 b 343 633 366 632 354 633 l 233 633 l 233 281 l 357 281 b 432 295 385 281 410 286 b 487 333 454 304 472 317 b 522 390 502 349 514 368 b 533 463 529 413 533 437 "},"":{"ha":732,"x_min":0,"x_max":0,"o":"m 685 182 b 670 104 685 154 680 128 b 626 43 660 80 645 60 b 556 2 607 26 584 12 b 463 -13 529 -8 498 -13 b 423 -9 450 -13 436 -12 b 386 0 410 -7 397 -4 b 357 11 375 3 365 7 b 339 22 349 14 343 18 b 331 37 335 25 333 31 b 328 67 329 44 328 54 b 330 87 328 75 329 81 b 334 101 330 93 332 97 b 340 109 335 105 338 107 b 348 111 343 110 345 111 b 365 106 353 111 359 109 b 387 94 371 102 378 98 b 419 81 396 89 407 85 b 463 76 431 78 446 76 b 509 84 480 76 496 79 b 543 104 522 89 534 96 b 564 134 552 112 559 123 b 571 172 569 146 571 158 b 561 216 571 189 568 204 b 533 251 554 229 545 240 b 494 279 522 261 509 270 l 450 306 b 406 336 435 315 420 326 b 367 374 391 347 378 360 b 339 422 355 388 346 404 b 329 486 332 440 329 461 b 340 549 329 509 333 530 b 373 598 348 568 359 584 b 422 633 386 612 403 624 b 485 652 441 642 462 648 b 495 686 490 663 493 674 b 497 725 496 698 497 711 b 490 772 497 741 495 757 b 466 814 485 788 477 802 b 425 845 455 827 441 837 b 364 857 408 853 388 857 b 295 843 337 857 314 852 b 249 805 276 834 261 821 b 224 746 238 789 229 769 b 216 672 219 723 216 699 l 216 19 b 214 9 216 15 215 12 b 204 2 212 6 209 4 b 187 -2 200 0 194 -1 b 159 -4 180 -4 171 -4 b 133 -2 149 -4 140 -4 b 115 2 126 -1 120 0 b 106 9 111 4 108 6 b 104 19 105 12 104 15 l 104 668 b 121 784 104 710 109 749 b 171 873 132 819 149 848 b 254 929 194 897 221 916 b 368 949 287 943 325 949 b 475 931 409 949 444 943 b 550 883 505 919 530 903 b 595 814 570 863 585 840 b 610 734 605 789 610 762 b 605 672 610 712 609 691 b 589 616 601 652 596 633 b 572 583 583 598 577 587 b 552 577 567 579 561 577 b 500 570 531 577 514 575 b 466 551 486 565 474 559 b 446 525 457 544 450 535 b 440 494 442 515 440 505 b 458 438 440 472 446 454 b 504 397 471 423 486 410 b 563 361 522 385 542 373 b 622 320 584 350 604 336 b 667 263 640 304 655 285 b 685 182 679 241 685 214 "},"":{"ha":665,"x_min":0,"x_max":0,"o":"m 564 16 b 558 4 564 11 562 7 b 543 -2 555 1 550 -1 b 515 -4 537 -3 528 -4 b 487 -2 504 -4 494 -3 b 472 4 480 -1 475 1 b 467 16 469 7 467 11 l 467 77 b 378 11 441 49 411 27 b 274 -13 345 -5 311 -13 b 187 0 242 -13 213 -9 b 120 36 161 8 139 20 b 78 94 102 52 88 71 b 62 173 67 117 62 144 b 83 262 62 207 69 237 b 144 326 97 288 118 309 b 240 363 170 342 202 355 b 368 376 278 372 321 376 l 452 376 l 452 423 b 445 486 452 447 450 467 b 421 531 440 504 432 519 b 378 558 410 543 395 552 b 313 567 360 564 338 567 b 238 557 285 567 260 564 b 181 535 216 551 197 543 b 139 514 164 528 150 520 b 115 504 128 507 120 504 b 105 507 111 504 108 505 b 98 515 102 508 100 511 b 94 529 96 518 94 523 b 92 547 93 534 92 541 b 95 574 92 559 93 568 b 106 593 96 581 100 587 b 138 613 112 599 123 605 b 189 635 153 621 170 629 b 253 651 209 642 230 647 b 323 658 276 656 299 658 b 435 643 367 658 404 653 b 509 599 465 633 490 618 b 551 528 528 580 542 556 b 564 428 559 499 564 466 l 564 16 m 357 295 b 277 287 326 295 299 292 b 220 264 254 282 235 274 b 188 228 205 254 195 242 b 177 178 181 213 177 197 b 207 103 177 147 187 122 b 292 75 227 84 255 75 b 373 97 321 75 348 82 b 452 165 398 112 425 135 l 452 295 m 382 769 b 389 756 386 764 388 760 b 386 747 389 753 389 750 b 374 742 384 745 380 743 b 351 740 368 741 361 740 b 328 741 342 740 334 740 b 313 744 322 742 317 743 b 302 751 309 746 305 748 b 292 762 299 753 295 757 l 170 920 b 163 931 166 924 164 928 b 168 942 163 935 164 939 b 184 948 171 945 176 947 b 215 951 192 950 202 951 b 242 949 226 951 235 950 b 261 945 250 949 256 947 b 274 938 266 944 270 941 b 285 926 278 935 281 931 l 382 769 m 74 645 "},"":{"ha":665,"x_min":0,"x_max":0,"o":"m 564 16 b 558 4 564 11 562 7 b 543 -2 555 1 550 -1 b 515 -4 537 -3 528 -4 b 487 -2 504 -4 494 -3 b 472 4 480 -1 475 1 b 467 16 469 7 467 11 l 467 77 b 378 11 441 49 411 27 b 274 -13 345 -5 311 -13 b 187 0 242 -13 213 -9 b 120 36 161 8 139 20 b 78 94 102 52 88 71 b 62 173 67 117 62 144 b 83 262 62 207 69 237 b 144 326 97 288 118 309 b 240 363 170 342 202 355 b 368 376 278 372 321 376 l 452 376 l 452 423 b 445 486 452 447 450 467 b 421 531 440 504 432 519 b 378 558 410 543 395 552 b 313 567 360 564 338 567 b 238 557 285 567 260 564 b 181 535 216 551 197 543 b 139 514 164 528 150 520 b 115 504 128 507 120 504 b 105 507 111 504 108 505 b 98 515 102 508 100 511 b 94 529 96 518 94 523 b 92 547 93 534 92 541 b 95 574 92 559 93 568 b 106 593 96 581 100 587 b 138 613 112 599 123 605 b 189 635 153 621 170 629 b 253 651 209 642 230 647 b 323 658 276 656 299 658 b 435 643 367 658 404 653 b 509 599 465 633 490 618 b 551 528 528 580 542 556 b 564 428 559 499 564 466 l 564 16 m 357 295 b 277 287 326 295 299 292 b 220 264 254 282 235 274 b 188 228 205 254 195 242 b 177 178 181 213 177 197 b 207 103 177 147 187 122 b 292 75 227 84 255 75 b 373 97 321 75 348 82 b 452 165 398 112 425 135 l 452 295 m 385 926 b 395 938 388 931 391 935 b 408 945 398 941 403 944 b 427 949 413 947 420 949 b 455 951 435 950 444 951 b 486 948 468 951 478 950 b 503 942 494 947 499 945 b 507 931 506 939 507 935 b 500 920 506 928 504 924 l 378 762 b 368 751 374 757 371 753 b 358 744 365 748 362 746 b 343 741 354 743 349 742 b 320 740 337 740 329 740 b 296 742 310 740 302 741 b 284 747 290 743 286 745 b 281 756 281 750 280 753 b 287 769 282 760 284 764 l 385 926 m 191 645 "},"":{"ha":665,"x_min":0,"x_max":0,"o":"m 564 16 b 558 4 564 11 562 7 b 543 -2 555 1 550 -1 b 515 -4 537 -3 528 -4 b 487 -2 504 -4 494 -3 b 472 4 480 -1 475 1 b 467 16 469 7 467 11 l 467 77 b 378 11 441 49 411 27 b 274 -13 345 -5 311 -13 b 187 0 242 -13 213 -9 b 120 36 161 8 139 20 b 78 94 102 52 88 71 b 62 173 67 117 62 144 b 83 262 62 207 69 237 b 144 326 97 288 118 309 b 240 363 170 342 202 355 b 368 376 278 372 321 376 l 452 376 l 452 423 b 445 486 452 447 450 467 b 421 531 440 504 432 519 b 378 558 410 543 395 552 b 313 567 360 564 338 567 b 238 557 285 567 260 564 b 181 535 216 551 197 543 b 139 514 164 528 150 520 b 115 504 128 507 120 504 b 105 507 111 504 108 505 b 98 515 102 508 100 511 b 94 529 96 518 94 523 b 92 547 93 534 92 541 b 95 574 92 559 93 568 b 106 593 96 581 100 587 b 138 613 112 599 123 605 b 189 635 153 621 170 629 b 253 651 209 642 230 647 b 323 658 276 656 299 658 b 435 643 367 658 404 653 b 509 599 465 633 490 618 b 551 528 528 580 542 556 b 564 428 559 499 564 466 l 564 16 m 357 295 b 277 287 326 295 299 292 b 220 264 254 282 235 274 b 188 228 205 254 195 242 b 177 178 181 213 177 197 b 207 103 177 147 187 122 b 292 75 227 84 255 75 b 373 97 321 75 348 82 b 452 165 398 112 425 135 l 452 295 m 249 760 b 241 750 246 756 243 752 b 231 744 238 747 235 745 b 217 741 227 743 222 742 b 195 740 211 740 204 740 b 167 742 183 740 174 741 b 154 749 161 744 156 746 b 153 761 152 752 151 756 b 164 778 155 765 159 771 l 276 933 b 284 942 278 937 281 940 b 296 947 287 944 291 945 b 314 950 301 948 307 949 b 339 951 321 950 329 951 b 363 950 349 951 356 950 b 379 946 369 949 375 948 b 390 941 384 945 387 943 b 398 933 393 939 396 936 l 510 778 b 520 761 515 771 518 765 b 520 749 522 756 522 752 b 507 742 518 746 513 744 b 479 740 500 741 491 740 b 456 741 469 740 462 740 b 442 744 450 742 446 743 b 433 750 439 745 436 747 l 425 760 l 337 882 l 249 760 m 63 645 "},"":{"ha":665,"x_min":0,"x_max":0,"o":"m 564 16 b 558 4 564 11 562 7 b 543 -2 555 1 550 -1 b 515 -4 537 -3 528 -4 b 487 -2 504 -4 494 -3 b 472 4 480 -1 475 1 b 467 16 469 7 467 11 l 467 77 b 378 11 441 49 411 27 b 274 -13 345 -5 311 -13 b 187 0 242 -13 213 -9 b 120 36 161 8 139 20 b 78 94 102 52 88 71 b 62 173 67 117 62 144 b 83 262 62 207 69 237 b 144 326 97 288 118 309 b 240 363 170 342 202 355 b 368 376 278 372 321 376 l 452 376 l 452 423 b 445 486 452 447 450 467 b 421 531 440 504 432 519 b 378 558 410 543 395 552 b 313 567 360 564 338 567 b 238 557 285 567 260 564 b 181 535 216 551 197 543 b 139 514 164 528 150 520 b 115 504 128 507 120 504 b 105 507 111 504 108 505 b 98 515 102 508 100 511 b 94 529 96 518 94 523 b 92 547 93 534 92 541 b 95 574 92 559 93 568 b 106 593 96 581 100 587 b 138 613 112 599 123 605 b 189 635 153 621 170 629 b 253 651 209 642 230 647 b 323 658 276 656 299 658 b 435 643 367 658 404 653 b 509 599 465 633 490 618 b 551 528 528 580 542 556 b 564 428 559 499 564 466 l 564 16 m 357 295 b 277 287 326 295 299 292 b 220 264 254 282 235 274 b 188 228 205 254 195 242 b 177 178 181 213 177 197 b 207 103 177 147 187 122 b 292 75 227 84 255 75 b 373 97 321 75 348 82 b 452 165 398 112 425 135 l 452 295 m 559 891 b 524 781 559 843 547 807 b 428 743 500 756 468 743 b 383 750 411 743 396 745 b 347 766 370 754 358 760 b 317 788 336 773 326 780 b 291 810 308 796 299 803 b 264 826 282 817 273 822 b 237 833 256 831 247 833 b 199 813 219 833 206 826 b 188 761 191 800 188 783 b 186 752 188 758 187 755 b 181 747 186 750 184 748 b 168 744 178 745 173 744 b 146 743 162 743 155 743 b 128 744 139 743 133 744 b 116 748 123 745 119 746 b 110 757 113 750 111 753 b 108 772 109 761 108 766 b 142 879 108 817 119 852 b 239 919 164 906 197 919 b 302 905 263 919 284 914 b 350 874 319 896 335 886 l 390 844 b 430 829 402 834 415 829 b 467 847 446 829 459 835 b 479 901 475 859 479 877 b 487 915 479 908 482 913 b 517 919 491 918 502 919 b 551 914 534 919 545 917 b 559 891 556 910 559 903 m 20 645 "},"":{"ha":665,"x_min":0,"x_max":0,"o":"m 564 16 b 558 4 564 11 562 7 b 543 -2 555 1 550 -1 b 515 -4 537 -3 528 -4 b 487 -2 504 -4 494 -3 b 472 4 480 -1 475 1 b 467 16 469 7 467 11 l 467 77 b 378 11 441 49 411 27 b 274 -13 345 -5 311 -13 b 187 0 242 -13 213 -9 b 120 36 161 8 139 20 b 78 94 102 52 88 71 b 62 173 67 117 62 144 b 83 262 62 207 69 237 b 144 326 97 288 118 309 b 240 363 170 342 202 355 b 368 376 278 372 321 376 l 452 376 l 452 423 b 445 486 452 447 450 467 b 421 531 440 504 432 519 b 378 558 410 543 395 552 b 313 567 360 564 338 567 b 238 557 285 567 260 564 b 181 535 216 551 197 543 b 139 514 164 528 150 520 b 115 504 128 507 120 504 b 105 507 111 504 108 505 b 98 515 102 508 100 511 b 94 529 96 518 94 523 b 92 547 93 534 92 541 b 95 574 92 559 93 568 b 106 593 96 581 100 587 b 138 613 112 599 123 605 b 189 635 153 621 170 629 b 253 651 209 642 230 647 b 323 658 276 656 299 658 b 435 643 367 658 404 653 b 509 599 465 633 490 618 b 551 528 528 580 542 556 b 564 428 559 499 564 466 l 564 16 m 357 295 b 277 287 326 295 299 292 b 220 264 254 282 235 274 b 188 228 205 254 195 242 b 177 178 181 213 177 197 b 207 103 177 147 187 122 b 292 75 227 84 255 75 b 373 97 321 75 348 82 b 452 165 398 112 425 135 l 452 295 m 279 825 b 265 774 279 800 274 784 b 215 761 256 765 239 761 b 165 774 191 761 174 765 b 153 823 157 783 153 799 b 166 875 153 849 157 866 b 216 888 175 884 191 888 b 266 875 241 888 257 884 b 279 825 274 866 279 849 m 519 825 b 505 774 519 800 514 784 b 455 761 496 765 479 761 b 406 774 431 761 414 765 b 393 823 397 783 393 799 b 406 875 393 849 397 866 b 456 888 415 884 431 888 b 506 875 481 888 497 884 b 519 825 515 866 519 849 m 63 645 "},"":{"ha":665,"x_min":0,"x_max":0,"o":"m 564 16 b 558 4 564 11 562 7 b 543 -2 555 1 550 -1 b 515 -4 537 -3 528 -4 b 487 -2 504 -4 494 -3 b 472 4 480 -1 475 1 b 467 16 469 7 467 11 l 467 77 b 378 11 441 49 411 27 b 274 -13 345 -5 311 -13 b 187 0 242 -13 213 -9 b 120 36 161 8 139 20 b 78 94 102 52 88 71 b 62 173 67 117 62 144 b 83 262 62 207 69 237 b 144 326 97 288 118 309 b 240 363 170 342 202 355 b 368 376 278 372 321 376 l 452 376 l 452 423 b 445 486 452 447 450 467 b 421 531 440 504 432 519 b 378 558 410 543 395 552 b 313 567 360 564 338 567 b 238 557 285 567 260 564 b 181 535 216 551 197 543 b 139 514 164 528 150 520 b 115 504 128 507 120 504 b 105 507 111 504 108 505 b 98 515 102 508 100 511 b 94 529 96 518 94 523 b 92 547 93 534 92 541 b 95 574 92 559 93 568 b 106 593 96 581 100 587 b 138 613 112 599 123 605 b 189 635 153 621 170 629 b 253 651 209 642 230 647 b 323 658 276 656 299 658 b 435 643 367 658 404 653 b 509 599 465 633 490 618 b 551 528 528 580 542 556 b 564 428 559 499 564 466 l 564 16 m 357 295 b 277 287 326 295 299 292 b 220 264 254 282 235 274 b 188 228 205 254 195 242 b 177 178 181 213 177 197 b 207 103 177 147 187 122 b 292 75 227 84 255 75 b 373 97 321 75 348 82 b 452 165 398 112 425 135 l 452 295 m 469 853 b 459 803 469 835 465 818 b 432 763 453 787 444 774 b 389 737 420 752 406 743 b 332 728 373 731 354 728 b 274 736 310 728 291 731 b 234 761 258 742 244 751 b 210 799 223 772 215 785 b 202 848 205 814 202 830 b 211 899 202 866 205 883 b 237 938 217 914 225 927 b 280 964 249 949 263 958 b 338 972 297 970 316 972 b 434 940 379 972 412 962 b 469 853 457 919 469 890 m 397 848 b 382 896 397 867 392 883 b 334 915 372 908 356 915 b 289 898 314 915 299 909 b 274 852 279 886 274 871 b 288 804 274 833 279 816 b 336 785 297 792 313 785 b 381 803 356 785 371 791 b 397 848 392 815 397 830 m 113 645 "},"":{"ha":1074,"x_min":0,"x_max":0,"o":"m 1007 349 b 994 311 1007 331 1003 318 b 964 300 985 303 975 300 l 564 300 b 574 208 564 266 567 235 b 608 138 581 181 592 158 b 670 94 624 119 645 104 b 764 78 696 83 727 78 b 841 85 793 78 818 80 b 899 101 863 90 882 95 b 940 117 915 107 929 112 b 964 124 951 122 959 124 b 972 122 967 124 970 123 b 978 115 974 120 976 118 b 981 101 979 111 980 107 b 982 81 982 96 982 89 b 981 65 982 75 982 70 b 980 54 981 61 980 57 b 976 45 979 51 978 47 b 970 37 975 42 973 39 b 948 25 968 34 960 30 b 901 8 936 19 920 14 b 833 -6 881 3 859 -2 b 752 -13 808 -11 781 -13 b 668 -5 721 -13 693 -10 b 600 17 643 0 620 7 b 546 53 580 27 562 39 b 505 101 531 67 517 83 b 457 54 490 83 474 68 b 402 17 440 40 422 27 b 341 -5 383 7 362 0 b 274 -13 320 -10 297 -13 b 187 0 242 -13 213 -9 b 120 36 161 8 139 20 b 78 94 102 52 88 71 b 62 172 67 117 62 143 b 83 262 62 207 69 237 b 144 326 97 288 118 309 b 240 363 170 342 202 355 b 368 376 278 372 321 376 l 452 376 l 452 423 b 445 486 452 447 450 467 b 421 531 440 504 432 519 b 378 558 410 543 395 552 b 313 567 360 564 338 567 b 238 557 285 567 260 564 b 180 535 216 551 197 543 b 138 514 164 528 150 520 b 113 504 127 507 119 504 b 104 507 110 504 107 505 b 98 515 102 508 99 511 b 94 529 96 518 94 523 b 92 547 93 534 92 541 b 95 574 92 559 93 568 b 106 593 96 581 100 587 b 138 613 112 599 123 605 b 189 635 153 621 170 629 b 253 651 209 642 230 647 b 323 658 276 656 299 658 b 399 650 352 658 377 655 b 457 629 422 645 441 638 b 499 596 474 620 488 609 b 528 554 511 584 520 569 b 616 631 549 588 579 613 b 742 658 653 649 695 658 b 862 635 788 658 828 650 b 944 572 895 619 923 599 b 992 480 966 546 982 516 b 1007 369 1002 445 1007 408 l 1007 349 m 895 382 b 886 460 896 411 893 437 b 856 519 879 484 869 503 b 805 557 842 536 825 548 b 734 570 785 566 761 570 b 662 555 707 570 683 565 b 609 513 641 544 624 531 b 577 453 595 496 584 476 b 564 382 569 431 565 407 l 895 382 m 466 181 b 455 235 461 196 457 215 b 451 295 452 256 451 276 l 357 295 b 277 287 326 295 299 292 b 220 264 254 282 235 274 b 188 228 205 254 195 242 b 177 178 181 213 177 197 b 207 103 177 147 187 122 b 292 75 227 84 255 75 b 378 100 321 75 350 83 b 466 181 406 116 435 144 "},"":{"ha":587,"x_min":0,"x_max":0,"o":"m 543 110 b 542 90 543 102 542 96 b 539 76 541 84 541 79 b 535 65 538 72 537 68 b 525 53 534 63 530 58 b 495 31 519 47 509 40 b 441 6 480 22 463 14 b 370 -11 420 -2 396 -8 l 387 -50 b 408 -101 397 -71 404 -87 b 414 -138 412 -114 414 -127 b 405 -184 414 -156 411 -171 b 378 -219 399 -198 389 -209 b 336 -240 366 -228 352 -235 b 281 -248 319 -245 301 -248 b 236 -244 265 -248 251 -247 b 200 -238 222 -242 210 -240 b 179 -232 190 -236 183 -234 b 171 -225 175 -230 172 -228 b 167 -215 169 -222 168 -219 b 166 -199 166 -211 166 -205 b 171 -171 166 -185 168 -175 b 185 -163 173 -166 178 -163 l 269 -163 b 303 -154 284 -163 295 -160 b 315 -127 311 -148 315 -139 b 311 -105 315 -121 314 -114 b 300 -77 309 -96 305 -87 l 269 -6 b 153 48 222 2 184 21 b 84 157 123 76 99 113 b 61 315 69 202 61 255 b 83 470 61 375 68 426 b 143 576 98 513 118 548 b 234 637 169 603 199 624 b 346 657 268 650 306 657 b 402 652 365 657 384 655 b 453 637 421 648 438 643 b 494 617 468 632 482 625 b 520 597 506 609 515 603 b 531 585 526 592 529 588 b 536 573 533 581 535 578 b 539 559 538 569 539 564 b 540 538 540 553 540 547 b 534 502 540 521 538 509 b 519 491 530 494 525 491 b 495 502 512 491 504 495 b 462 527 487 510 475 518 b 413 552 448 536 432 544 b 345 563 393 559 371 563 b 221 501 291 563 249 542 b 178 321 192 459 178 399 b 189 217 178 281 181 247 b 222 143 196 188 207 163 b 275 99 236 123 254 108 b 347 84 296 89 320 84 b 415 96 373 84 396 88 b 466 123 434 104 451 113 b 502 150 480 133 492 142 b 524 161 511 157 519 161 b 532 159 527 161 530 160 b 538 150 535 157 537 154 b 542 133 540 145 541 140 b 543 110 542 127 543 119 "},"":{"ha":691,"x_min":0,"x_max":0,"o":"m 625 349 b 611 311 625 331 620 318 b 581 300 603 303 592 300 l 181 300 b 191 208 181 266 184 235 b 225 138 198 181 209 158 b 287 94 241 119 262 104 b 380 78 312 83 343 78 b 457 85 409 78 434 80 b 516 101 480 90 499 95 b 556 117 532 107 546 112 b 581 124 567 122 575 124 b 589 122 584 124 587 123 b 595 115 591 120 593 118 b 598 101 596 111 597 107 b 599 81 598 96 599 89 b 598 65 599 75 599 70 b 596 54 598 61 597 57 b 593 45 596 51 595 47 b 587 37 591 42 589 39 b 565 25 584 34 577 30 b 517 8 553 19 537 14 b 450 -6 498 3 476 -2 b 368 -13 424 -11 397 -13 b 236 8 318 -13 274 -6 b 141 71 199 22 167 43 b 83 174 115 98 96 133 b 63 319 70 216 63 264 b 83 461 63 372 70 419 b 142 567 97 503 117 538 b 235 634 168 596 198 619 b 356 658 271 650 311 658 b 478 635 404 658 445 650 b 562 573 512 619 540 599 b 609 481 583 547 599 516 b 625 369 620 446 625 409 l 625 349 m 512 382 b 473 520 513 441 500 487 b 351 570 446 554 405 570 b 279 555 324 570 300 565 b 227 513 258 544 241 531 b 194 453 212 496 202 476 b 181 382 186 431 182 407 l 512 382 m 401 769 b 407 756 404 764 406 760 b 405 747 408 753 407 750 b 392 742 402 745 398 743 b 369 740 387 741 379 740 b 347 741 360 740 352 740 b 331 744 341 742 336 743 b 320 751 327 746 323 748 b 311 762 317 753 314 757 l 188 920 b 182 931 184 924 182 928 b 186 942 181 935 183 939 b 202 948 189 945 195 947 b 233 951 210 950 221 951 b 261 949 244 951 253 950 b 279 945 268 949 274 947 b 292 938 284 944 289 941 b 303 926 296 935 300 931 l 401 769 m 92 645 "},"":{"ha":691,"x_min":0,"x_max":0,"o":"m 625 349 b 611 311 625 331 620 318 b 581 300 603 303 592 300 l 181 300 b 191 208 181 266 184 235 b 225 138 198 181 209 158 b 287 94 241 119 262 104 b 380 78 312 83 343 78 b 457 85 409 78 434 80 b 516 101 480 90 499 95 b 556 117 532 107 546 112 b 581 124 567 122 575 124 b 589 122 584 124 587 123 b 595 115 591 120 593 118 b 598 101 596 111 597 107 b 599 81 598 96 599 89 b 598 65 599 75 599 70 b 596 54 598 61 597 57 b 593 45 596 51 595 47 b 587 37 591 42 589 39 b 565 25 584 34 577 30 b 517 8 553 19 537 14 b 450 -6 498 3 476 -2 b 368 -13 424 -11 397 -13 b 236 8 318 -13 274 -6 b 141 71 199 22 167 43 b 83 174 115 98 96 133 b 63 319 70 216 63 264 b 83 461 63 372 70 419 b 142 567 97 503 117 538 b 235 634 168 596 198 619 b 356 658 271 650 311 658 b 478 635 404 658 445 650 b 562 573 512 619 540 599 b 609 481 583 547 599 516 b 625 369 620 446 625 409 l 625 349 m 512 382 b 473 520 513 441 500 487 b 351 570 446 554 405 570 b 279 555 324 570 300 565 b 227 513 258 544 241 531 b 194 453 212 496 202 476 b 181 382 186 431 182 407 l 512 382 m 402 926 b 412 938 405 931 408 935 b 425 945 415 941 420 944 b 444 949 430 947 437 949 b 472 951 452 950 461 951 b 503 948 485 951 495 950 b 519 942 511 947 516 945 b 524 931 523 939 524 935 b 517 920 523 928 521 924 l 395 762 b 385 751 391 757 388 753 b 375 744 382 748 379 746 b 360 741 371 743 366 742 b 337 740 354 740 346 740 b 313 742 327 740 319 741 b 301 747 307 743 303 745 b 298 756 298 750 297 753 b 304 769 299 760 301 764 l 402 926 m 208 645 "},"":{"ha":691,"x_min":0,"x_max":0,"o":"m 625 349 b 611 311 625 331 620 318 b 581 300 603 303 592 300 l 181 300 b 191 208 181 266 184 235 b 225 138 198 181 209 158 b 287 94 241 119 262 104 b 380 78 312 83 343 78 b 457 85 409 78 434 80 b 516 101 480 90 499 95 b 556 117 532 107 546 112 b 581 124 567 122 575 124 b 589 122 584 124 587 123 b 595 115 591 120 593 118 b 598 101 596 111 597 107 b 599 81 598 96 599 89 b 598 65 599 75 599 70 b 596 54 598 61 597 57 b 593 45 596 51 595 47 b 587 37 591 42 589 39 b 565 25 584 34 577 30 b 517 8 553 19 537 14 b 450 -6 498 3 476 -2 b 368 -13 424 -11 397 -13 b 236 8 318 -13 274 -6 b 141 71 199 22 167 43 b 83 174 115 98 96 133 b 63 319 70 216 63 264 b 83 461 63 372 70 419 b 142 567 97 503 117 538 b 235 634 168 596 198 619 b 356 658 271 650 311 658 b 478 635 404 658 445 650 b 562 573 512 619 540 599 b 609 481 583 547 599 516 b 625 369 620 446 625 409 l 625 349 m 512 382 b 473 520 513 441 500 487 b 351 570 446 554 405 570 b 279 555 324 570 300 565 b 227 513 258 544 241 531 b 194 453 212 496 202 476 b 181 382 186 431 182 407 l 512 382 m 262 760 b 254 750 260 756 257 752 b 244 744 252 747 248 745 b 230 741 241 743 236 742 b 209 740 225 740 217 740 b 181 742 197 740 187 741 b 168 749 174 744 170 746 b 167 761 165 752 165 756 b 178 778 169 765 172 771 l 290 933 b 298 942 292 937 295 940 b 310 947 301 944 305 945 b 327 950 314 948 320 949 b 353 951 334 950 343 951 b 376 950 362 951 370 950 b 393 946 383 949 388 948 b 404 941 397 945 401 943 b 412 933 407 939 409 936 l 524 778 b 534 761 529 771 532 765 b 533 749 536 756 535 752 b 520 742 531 746 527 744 b 492 740 513 741 504 740 b 470 741 483 740 475 740 b 456 744 464 742 459 743 b 447 750 452 745 449 747 l 439 760 l 351 882 l 262 760 m 77 645 "},"":{"ha":691,"x_min":0,"x_max":0,"o":"m 625 349 b 611 311 625 331 620 318 b 581 300 603 303 592 300 l 181 300 b 191 208 181 266 184 235 b 225 138 198 181 209 158 b 287 94 241 119 262 104 b 380 78 312 83 343 78 b 457 85 409 78 434 80 b 516 101 480 90 499 95 b 556 117 532 107 546 112 b 581 124 567 122 575 124 b 589 122 584 124 587 123 b 595 115 591 120 593 118 b 598 101 596 111 597 107 b 599 81 598 96 599 89 b 598 65 599 75 599 70 b 596 54 598 61 597 57 b 593 45 596 51 595 47 b 587 37 591 42 589 39 b 565 25 584 34 577 30 b 517 8 553 19 537 14 b 450 -6 498 3 476 -2 b 368 -13 424 -11 397 -13 b 236 8 318 -13 274 -6 b 141 71 199 22 167 43 b 83 174 115 98 96 133 b 63 319 70 216 63 264 b 83 461 63 372 70 419 b 142 567 97 503 117 538 b 235 634 168 596 198 619 b 356 658 271 650 311 658 b 478 635 404 658 445 650 b 562 573 512 619 540 599 b 609 481 583 547 599 516 b 625 369 620 446 625 409 l 625 349 m 512 382 b 473 520 513 441 500 487 b 351 570 446 554 405 570 b 279 555 324 570 300 565 b 227 513 258 544 241 531 b 194 453 212 496 202 476 b 181 382 186 431 182 407 l 512 382 m 294 825 b 280 774 294 800 289 784 b 230 761 271 765 254 761 b 180 774 205 761 189 765 b 168 823 172 783 168 799 b 181 875 168 849 172 866 b 231 888 190 884 206 888 b 281 875 255 888 272 884 b 294 825 289 866 294 849 m 534 825 b 520 774 534 800 529 784 b 470 761 511 765 494 761 b 420 774 446 761 429 765 b 408 823 412 783 408 799 b 421 875 408 849 412 866 b 471 888 430 884 446 888 b 521 875 496 888 512 884 b 534 825 529 866 534 849 m 78 645 "},"":{"ha":319,"x_min":0,"x_max":0,"o":"m 216 17 b 213 8 216 13 215 10 b 204 1 211 5 208 3 b 187 -3 200 0 194 -2 b 159 -4 180 -4 171 -4 b 132 -3 149 -4 139 -4 b 115 1 125 -2 119 0 b 106 8 111 3 108 5 b 104 17 105 10 104 13 l 104 627 b 106 636 104 631 105 634 b 115 643 108 639 111 641 b 132 647 119 645 125 647 b 159 648 139 648 149 648 b 187 647 171 648 180 648 b 204 643 194 647 200 645 b 213 636 208 641 211 639 b 216 627 215 634 216 631 l 216 17 m 210 769 b 216 756 213 764 215 760 b 213 747 217 753 216 750 b 201 742 211 745 207 743 b 178 740 195 741 188 740 b 155 741 169 740 161 740 b 140 744 149 742 144 743 b 129 751 136 746 132 748 b 119 762 126 753 123 757 l -3 920 b -9 931 -7 924 -9 928 b -5 942 -10 935 -9 939 b 11 948 -2 945 3 947 b 42 951 19 950 29 951 b 70 949 53 951 62 950 b 88 945 77 949 83 947 b 101 938 93 944 97 941 b 112 926 105 935 108 931 l 210 769 m -99 645 "},"":{"ha":319,"x_min":0,"x_max":0,"o":"m 216 17 b 213 8 216 13 215 10 b 204 1 211 5 208 3 b 187 -3 200 0 194 -2 b 159 -4 180 -4 171 -4 b 132 -3 149 -4 139 -4 b 115 1 125 -2 119 0 b 106 8 111 3 108 5 b 104 17 105 10 104 13 l 104 627 b 106 636 104 631 105 634 b 115 643 108 639 111 641 b 132 647 119 645 125 647 b 159 648 139 648 149 648 b 187 647 171 648 180 648 b 204 643 194 647 200 645 b 213 636 208 641 211 639 b 216 627 215 634 216 631 l 216 17 m 204 926 b 214 938 207 931 210 935 b 227 945 217 941 222 944 b 246 949 232 947 238 949 b 274 951 254 950 263 951 b 305 948 287 951 297 950 b 321 942 313 947 318 945 b 326 931 325 939 326 935 b 319 920 325 928 323 924 l 197 762 b 187 751 193 757 190 753 b 177 744 184 748 181 746 b 162 741 173 743 168 742 b 139 740 156 740 148 740 b 115 742 129 740 121 741 b 103 747 109 743 105 745 b 100 756 100 750 99 753 b 106 769 101 760 103 764 l 204 926 m 10 645 "}}}
